%TF.GenerationSoftware,KiCad,Pcbnew,5.1.9+dfsg1-1~bpo10+1*%
%TF.CreationDate,2021-06-04T12:04:03+02:00*%
%TF.ProjectId,vacctrl_rpi,76616363-7472-46c5-9f72-70692e6b6963,1.0*%
%TF.SameCoordinates,Original*%
%TF.FileFunction,Copper,L3,Inr*%
%TF.FilePolarity,Positive*%
%FSLAX46Y46*%
G04 Gerber Fmt 4.6, Leading zero omitted, Abs format (unit mm)*
G04 Created by KiCad (PCBNEW 5.1.9+dfsg1-1~bpo10+1) date 2021-06-04 12:04:03*
%MOMM*%
%LPD*%
G01*
G04 APERTURE LIST*
%TA.AperFunction,ComponentPad*%
%ADD10C,1.680000*%
%TD*%
%TA.AperFunction,ComponentPad*%
%ADD11C,1.508000*%
%TD*%
%TA.AperFunction,ComponentPad*%
%ADD12C,1.408000*%
%TD*%
%TA.AperFunction,ComponentPad*%
%ADD13R,1.508000X1.508000*%
%TD*%
%TA.AperFunction,ComponentPad*%
%ADD14C,2.550000*%
%TD*%
%TA.AperFunction,ComponentPad*%
%ADD15O,1.700000X1.700000*%
%TD*%
%TA.AperFunction,ComponentPad*%
%ADD16R,1.700000X1.700000*%
%TD*%
%TA.AperFunction,ComponentPad*%
%ADD17C,2.000000*%
%TD*%
%TA.AperFunction,ComponentPad*%
%ADD18C,1.800000*%
%TD*%
%TA.AperFunction,ComponentPad*%
%ADD19R,1.800000X1.800000*%
%TD*%
%TA.AperFunction,ViaPad*%
%ADD20C,0.450000*%
%TD*%
%TA.AperFunction,ViaPad*%
%ADD21C,0.600000*%
%TD*%
%TA.AperFunction,Conductor*%
%ADD22C,0.500000*%
%TD*%
%TA.AperFunction,Conductor*%
%ADD23C,0.200000*%
%TD*%
%TA.AperFunction,Conductor*%
%ADD24C,1.000000*%
%TD*%
G04 APERTURE END LIST*
D10*
%TO.N,Net-(J7-Pad18)*%
%TO.C,J7*%
X67060000Y-82840000D03*
%TO.N,+3V3*%
X67060000Y-80300000D03*
%TO.N,Net-(J7-Pad16)*%
X67060000Y-72100000D03*
%TO.N,+3V3*%
X67060000Y-69560000D03*
D11*
%TO.N,/Ethernet I/F/TR2_TAP*%
X73680000Y-79375000D03*
D12*
%TO.N,/Ethernet I/F/TR3_TAP*%
X74950000Y-81915000D03*
%TO.N,/Ethernet I/F/TR0_TAP*%
X74950000Y-70485000D03*
D11*
%TO.N,/Ethernet I/F/TR1_TAP*%
X73680000Y-73025000D03*
%TO.N,/Ethernet I/F/ETH_3_N*%
X77470000Y-81915000D03*
%TO.N,/Ethernet I/F/ETH_3_P*%
X80010000Y-80645000D03*
%TO.N,/Ethernet I/F/ETH_2_N*%
X77470000Y-79375000D03*
%TO.N,/Ethernet I/F/ETH_2_P*%
X80010000Y-78105000D03*
%TO.N,/Ethernet I/F/ETH_1_N*%
X77470000Y-76835000D03*
%TO.N,Net-(C1-Pad2)*%
X80010000Y-75565000D03*
X77470000Y-74295000D03*
%TO.N,/Ethernet I/F/ETH_1_P*%
X80010000Y-73025000D03*
%TO.N,/Ethernet I/F/ETH_0_N*%
X77470000Y-71755000D03*
D13*
%TO.N,/Ethernet I/F/ETH_0_P*%
X80010000Y-70485000D03*
D14*
%TO.N,GND*%
X74170000Y-84050000D03*
X74170000Y-68350000D03*
%TD*%
D15*
%TO.N,/Raspi_CM4_GPIO/nRPIBOOT*%
%TO.C,JP2*%
X191135000Y-65405000D03*
D16*
%TO.N,GND*%
X193675000Y-65405000D03*
%TD*%
D15*
%TO.N,GND*%
%TO.C,J4*%
X157480000Y-124904500D03*
D16*
%TO.N,+5V*%
X154940000Y-124904500D03*
%TD*%
D15*
%TO.N,+24V*%
%TO.C,JP1*%
X79375000Y-144145000D03*
D16*
%TO.N,Net-(J6-Pad2)*%
X79375000Y-141605000D03*
%TD*%
D17*
%TO.N,GND1*%
%TO.C,J6*%
X68500000Y-131400000D03*
%TO.N,Net-(J6-Pad5)*%
X72500000Y-131400000D03*
%TO.N,/RS485 I/F/RS485-D-*%
X70732233Y-129632233D03*
%TO.N,GND1*%
X70732233Y-133167767D03*
%TO.N,Net-(J6-Pad2)*%
X74267767Y-133167767D03*
%TO.N,/RS485 I/F/RS485-D+*%
X74267767Y-129632233D03*
%TD*%
%TO.N,Net-(SW1-Pad1)*%
%TO.C,SW1*%
X78105000Y-97155000D03*
%TO.N,/Raspi_CM4_GPIO/GLOBAL_EN*%
X78105000Y-101655000D03*
%TO.N,Net-(SW1-Pad1)*%
X71605000Y-97155000D03*
%TO.N,/Raspi_CM4_GPIO/GLOBAL_EN*%
X71605000Y-101655000D03*
%TD*%
D18*
%TO.N,+3V3*%
%TO.C,D2*%
X118364000Y-56515000D03*
D19*
%TO.N,Net-(D2-Pad1)*%
X118364000Y-59055000D03*
%TD*%
D18*
%TO.N,+3V3*%
%TO.C,D1*%
X127889000Y-56515000D03*
D19*
%TO.N,Net-(D1-Pad1)*%
X127889000Y-59055000D03*
%TD*%
D20*
%TO.N,GND*%
X107315000Y-138430000D03*
X107315000Y-139446000D03*
X106172000Y-139446000D03*
X107315000Y-129540000D03*
X107315000Y-128524000D03*
X106172000Y-128524000D03*
X226060000Y-134620000D03*
X226060000Y-121920000D03*
X226060000Y-118745000D03*
X226060000Y-113665000D03*
X226060000Y-108585000D03*
X226060000Y-103505000D03*
X226060000Y-98425000D03*
X226060000Y-93345000D03*
X226060000Y-128270000D03*
X216408000Y-62738000D03*
%TO.N,+3V3*%
X188595000Y-77597000D03*
D21*
X226060000Y-125730000D03*
D20*
X111633000Y-130810000D03*
X111633000Y-137160000D03*
X155448000Y-110617000D03*
%TO.N,GND1*%
X94615000Y-129540000D03*
X94615000Y-128524000D03*
X95504000Y-128524000D03*
X94615000Y-138430000D03*
X94615000Y-139446000D03*
X95758000Y-139446000D03*
X226060000Y-138430000D03*
X226060000Y-142875000D03*
%TO.N,/Raspi_CM4_GPIO/SD_DAT1*%
X151990000Y-110630000D03*
X204089000Y-72390000D03*
%TO.N,/Raspi_CM4_GPIO/SD_DAT0*%
X151390000Y-111380000D03*
X204089000Y-73406000D03*
%TO.N,/Raspi_CM4_GPIO/SD_CLK*%
X149990000Y-111380000D03*
X204089000Y-75438000D03*
%TO.N,/Raspi_CM4_GPIO/SD_CMD*%
X150790000Y-110580000D03*
X187590000Y-78480000D03*
%TO.N,/Raspi_CM4_GPIO/SD_DAT3*%
X150790000Y-113530000D03*
X187590000Y-79280000D03*
%TO.N,/Raspi_CM4_GPIO/SD_DAT2*%
X152390000Y-113530000D03*
X187590000Y-80280000D03*
%TO.N,/Raspi_CM4_GPIO/nRPIBOOT*%
X166840000Y-108430000D03*
%TO.N,/Raspi_CM4_HighSpeed/USB_P*%
X215540000Y-60080000D03*
X139740000Y-79530000D03*
%TO.N,/Raspi_CM4_HighSpeed/USB_N*%
X215540000Y-60780000D03*
X139040000Y-79530000D03*
%TO.N,/Raspi_CM4_GPIO/Pi_nLED_Activity*%
X142790000Y-111380000D03*
X118364000Y-64770000D03*
%TO.N,/Raspi_CM4_HighSpeed/USB_OTG*%
X138290000Y-79530000D03*
X206375000Y-62865000D03*
%TO.N,/Raspi_CM4_GPIO/SD_PWR_ON*%
X153590000Y-111380000D03*
X185674000Y-74930000D03*
%TO.N,/Raspi_CM4_GPIO/GLOBAL_EN*%
X158390000Y-113580000D03*
%TO.N,/Raspi_CM4_GPIO/nPWR_LED*%
X157590000Y-111380000D03*
X130290000Y-69480000D03*
%TO.N,/Raspi_CM4_GPIO/RUN_PG*%
X156790000Y-108380000D03*
X86868000Y-98044000D03*
D21*
%TO.N,+5V*%
X226060000Y-131445000D03*
D20*
X154940000Y-114300000D03*
X81153000Y-98679000D03*
D21*
%TO.N,/RS485 I/F/VISO*%
X88900000Y-131445000D03*
X88900000Y-136525000D03*
D20*
%TO.N,/Backplane I/F/SCL*%
X175940000Y-112430000D03*
%TO.N,/Backplane I/F/SDA*%
X175290000Y-112430000D03*
X175290000Y-119380000D03*
D21*
%TO.N,+24V*%
X226060000Y-140970000D03*
D20*
%TO.N,/RS485 I/F/RS485-D+*%
X93345000Y-132715000D03*
X93345000Y-135255000D03*
%TO.N,/Ethernet I/F/ETH_3_N*%
X139740000Y-114180000D03*
X86233000Y-81026000D03*
%TO.N,/Ethernet I/F/ETH_3_P*%
X139040000Y-114180000D03*
X86233000Y-80264000D03*
%TO.N,/Ethernet I/F/ETH_2_N*%
X86233000Y-79502000D03*
X140240000Y-113530000D03*
%TO.N,/Ethernet I/F/ETH_2_P*%
X86233000Y-78740000D03*
X140940000Y-113530000D03*
%TO.N,/Ethernet I/F/ETH_1_N*%
X139740000Y-107730000D03*
X86233000Y-72898000D03*
%TO.N,/Ethernet I/F/ETH_1_P*%
X86233000Y-73660000D03*
X139040000Y-107730000D03*
%TO.N,/Ethernet I/F/ETH_0_N*%
X86233000Y-72136000D03*
X140240000Y-108380000D03*
%TO.N,/Ethernet I/F/ETH_0_P*%
X86233000Y-71374000D03*
X140940000Y-108380000D03*
%TO.N,/Ethernet I/F/ETH_LEDG*%
X141440000Y-114180000D03*
X75438000Y-88265000D03*
%TO.N,/Ethernet I/F/ETH_LEDY*%
X142140000Y-114180000D03*
X75438000Y-90170000D03*
%TO.N,/RS485 I/F/uart_rts*%
X107315000Y-133985000D03*
X148390000Y-110580000D03*
%TO.N,/RS485 I/F/uart_rx*%
X148890000Y-113530000D03*
X107442000Y-135890000D03*
%TO.N,/RS485 I/F/uart_tx*%
X149590000Y-113530000D03*
X149590000Y-129530000D03*
%TO.N,/Raspi_CM4_GPIO/GPIO26*%
X192950000Y-100050000D03*
%TO.N,/Raspi_CM4_GPIO/GPIO13*%
X192950000Y-101450000D03*
%TO.N,/Raspi_CM4_GPIO/GPIO19*%
X192950000Y-100750000D03*
%TO.N,/Raspi_CM4_GPIO/GPIO06*%
X189500000Y-102700000D03*
%TO.N,/Raspi_CM4_GPIO/GPIO05*%
X189500000Y-103400000D03*
%TO.N,/Raspi_CM4_GPIO/GPIO11*%
X189500000Y-104100000D03*
%TO.N,/Raspi_CM4_GPIO/GPIO10*%
X185890000Y-109380000D03*
%TO.N,/Raspi_CM4_GPIO/GPIO22*%
X185890000Y-110080000D03*
%TO.N,/Raspi_CM4_GPIO/GPIO27*%
X185890000Y-110780000D03*
%TO.N,/Raspi_CM4_GPIO/GPIO04*%
X185890000Y-112080000D03*
%TO.N,/Raspi_CM4_GPIO/GPIO03*%
X185890000Y-112780000D03*
%TO.N,/Raspi_CM4_GPIO/GPIO02*%
X185890000Y-113480000D03*
%TD*%
D22*
%TO.N,+3V3*%
X127889000Y-56515000D02*
X118364000Y-56515000D01*
X67060000Y-69560000D02*
X64389000Y-72231000D01*
X64389000Y-77629000D02*
X67060000Y-80300000D01*
X64389000Y-72231000D02*
X64389000Y-77629000D01*
X67060000Y-80300000D02*
X64389000Y-82971000D01*
X64389000Y-82971000D02*
X64389000Y-115316000D01*
X64389000Y-115316000D02*
X65278000Y-116205000D01*
X65278000Y-116205000D02*
X102235000Y-116205000D01*
X102235000Y-116205000D02*
X111633000Y-125603000D01*
X111633000Y-137160000D02*
X111633000Y-130810000D01*
X111633000Y-130810000D02*
X111633000Y-125603000D01*
X67060000Y-65020000D02*
X75565000Y-56515000D01*
X67060000Y-69560000D02*
X67060000Y-65020000D01*
X118364000Y-56515000D02*
X75565000Y-56515000D01*
D23*
%TO.N,/Raspi_CM4_GPIO/nRPIBOOT*%
X187965000Y-65405000D02*
X191135000Y-65405000D01*
X166840000Y-86530000D02*
X187965000Y-65405000D01*
X166840000Y-108430000D02*
X166840000Y-86530000D01*
%TO.N,/Raspi_CM4_GPIO/nPWR_LED*%
X133840000Y-69480000D02*
X130290000Y-69480000D01*
X135640000Y-71280000D02*
X133840000Y-69480000D01*
X135640000Y-85380000D02*
X135640000Y-84980000D01*
X157590000Y-107330000D02*
X135640000Y-85380000D01*
X157590000Y-111380000D02*
X157590000Y-107330000D01*
X135640000Y-84980000D02*
X135640000Y-71280000D01*
%TO.N,/Raspi_CM4_GPIO/RUN_PG*%
X146454000Y-98044000D02*
X156790000Y-108380000D01*
X86868000Y-98044000D02*
X146454000Y-98044000D01*
D24*
%TO.N,+5V*%
X226060000Y-131445000D02*
X156718000Y-131445000D01*
X156718000Y-131445000D02*
X154940000Y-129667000D01*
X154940000Y-114300000D02*
X154940000Y-114300000D01*
D23*
X154940000Y-114300000D02*
X143002000Y-114300000D01*
X143002000Y-114300000D02*
X142113000Y-115189000D01*
X142113000Y-115189000D02*
X111379000Y-115189000D01*
X111379000Y-115189000D02*
X108712000Y-112522000D01*
X108712000Y-112522000D02*
X108712000Y-102616000D01*
X108712000Y-102616000D02*
X107315000Y-101219000D01*
X107315000Y-101219000D02*
X81788000Y-101219000D01*
X81788000Y-101219000D02*
X81153000Y-100584000D01*
X81153000Y-100584000D02*
X81153000Y-98679000D01*
X81153000Y-98679000D02*
X81153000Y-98679000D01*
D24*
X154940000Y-129667000D02*
X154940000Y-124904500D01*
X154940000Y-124904500D02*
X154940000Y-114300000D01*
%TD*%
M02*
