%TF.GenerationSoftware,KiCad,Pcbnew,5.1.9+dfsg1-1~bpo10+1*%
%TF.CreationDate,2021-06-04T12:04:03+02:00*%
%TF.ProjectId,vacctrl_rpi,76616363-7472-46c5-9f72-70692e6b6963,1.0*%
%TF.SameCoordinates,Original*%
%TF.FileFunction,Paste,Top*%
%TF.FilePolarity,Positive*%
%FSLAX46Y46*%
G04 Gerber Fmt 4.6, Leading zero omitted, Abs format (unit mm)*
G04 Created by KiCad (PCBNEW 5.1.9+dfsg1-1~bpo10+1) date 2021-06-04 12:04:03*
%MOMM*%
%LPD*%
G01*
G04 APERTURE LIST*
%ADD10C,0.100000*%
%ADD11R,0.800000X1.200000*%
%ADD12R,0.500000X0.500000*%
%ADD13R,1.400000X0.700000*%
%ADD14R,1.200000X0.700000*%
%ADD15R,3.200000X1.200000*%
%ADD16R,1.200000X1.200000*%
%ADD17R,1.400000X1.000000*%
%ADD18R,1.900000X1.500000*%
%ADD19R,0.200000X0.700000*%
%ADD20R,0.550000X0.400000*%
%ADD21R,0.550000X0.300000*%
%ADD22R,0.400000X0.550000*%
%ADD23R,0.300000X0.550000*%
%ADD24R,1.500000X0.400000*%
%ADD25R,1.060000X0.650000*%
%ADD26R,1.900000X1.000000*%
%ADD27R,1.900000X1.800000*%
%ADD28R,1.300000X1.650000*%
%ADD29R,1.550000X1.425000*%
%ADD30R,1.380000X0.450000*%
%ADD31R,0.400000X1.500000*%
G04 APERTURE END LIST*
D10*
%TO.C,J1*%
G36*
X221326421Y-83295000D02*
G01*
X221185000Y-83436421D01*
X221043579Y-83295000D01*
X221185000Y-83153579D01*
X221326421Y-83295000D01*
G37*
D11*
X216135000Y-70745000D03*
D12*
X221435000Y-83045000D03*
D13*
X205735000Y-72545000D03*
X205735000Y-73645000D03*
X205735000Y-74745000D03*
X205735000Y-75845000D03*
X205735000Y-76945000D03*
X205735000Y-78045000D03*
X205735000Y-79145000D03*
D14*
X205635000Y-71595000D03*
D15*
X219735000Y-70745000D03*
D16*
X209935000Y-70745000D03*
D17*
X205735000Y-82145000D03*
D18*
X220735000Y-84045000D03*
D13*
X205735000Y-80245000D03*
%TD*%
D19*
%TO.C,U3*%
X138790000Y-78520000D03*
X138790000Y-75440000D03*
X139190000Y-78520000D03*
X139190000Y-75440000D03*
X139590000Y-78520000D03*
X139590000Y-75440000D03*
X139990000Y-78520000D03*
X139990000Y-75440000D03*
X140390000Y-78520000D03*
X140390000Y-75440000D03*
X140790000Y-78520000D03*
X140790000Y-75440000D03*
X141190000Y-78520000D03*
X141190000Y-75440000D03*
X141590000Y-78520000D03*
X141590000Y-75440000D03*
X141990000Y-78520000D03*
X141990000Y-75440000D03*
X142390000Y-78520000D03*
X142390000Y-75440000D03*
X142790000Y-78520000D03*
X142790000Y-75440000D03*
X143190000Y-78520000D03*
X143190000Y-75440000D03*
X143590000Y-78520000D03*
X143590000Y-75440000D03*
X143990000Y-78520000D03*
X143990000Y-75440000D03*
X144390000Y-78520000D03*
X144390000Y-75440000D03*
X144790000Y-78520000D03*
X144790000Y-75440000D03*
X145190000Y-78520000D03*
X145190000Y-75440000D03*
X145590000Y-78520000D03*
X145590000Y-75440000D03*
X145990000Y-78520000D03*
X145990000Y-75440000D03*
X146390000Y-78520000D03*
X146390000Y-75440000D03*
X146790000Y-78520000D03*
X146790000Y-75440000D03*
X147190000Y-78520000D03*
X147190000Y-75440000D03*
X147590000Y-78520000D03*
X147590000Y-75440000D03*
X147990000Y-78520000D03*
X147990000Y-75440000D03*
X148390000Y-78520000D03*
X148390000Y-75440000D03*
X148790000Y-78520000D03*
X148790000Y-75440000D03*
X149190000Y-78520000D03*
X149190000Y-75440000D03*
X149590000Y-78520000D03*
X149590000Y-75440000D03*
X149990000Y-78520000D03*
X149990000Y-75440000D03*
X150390000Y-78520000D03*
X150390000Y-75440000D03*
X150790000Y-78520000D03*
X150790000Y-75440000D03*
X151190000Y-78520000D03*
X151190000Y-75440000D03*
X151590000Y-78520000D03*
X151590000Y-75440000D03*
X151990000Y-78520000D03*
X151990000Y-75440000D03*
X152390000Y-78520000D03*
X152390000Y-75440000D03*
X152790000Y-78520000D03*
X152790000Y-75440000D03*
X153190000Y-78520000D03*
X153190000Y-75440000D03*
X153590000Y-78520000D03*
X153590000Y-75440000D03*
X153990000Y-78520000D03*
X153990000Y-75440000D03*
X154390000Y-78520000D03*
X154390000Y-75440000D03*
X154790000Y-78520000D03*
X154790000Y-75440000D03*
X155190000Y-78520000D03*
X155190000Y-75440000D03*
X155590000Y-78520000D03*
X155590000Y-75440000D03*
X155990000Y-78520000D03*
X155990000Y-75440000D03*
X156390000Y-78520000D03*
X156390000Y-75440000D03*
X156790000Y-78520000D03*
X156790000Y-75440000D03*
X157190000Y-78520000D03*
X157190000Y-75440000D03*
X157590000Y-78520000D03*
X157590000Y-75440000D03*
X157990000Y-78520000D03*
X157990000Y-75440000D03*
X158390000Y-78520000D03*
X158390000Y-75440000D03*
X153590000Y-109440000D03*
X153190000Y-109440000D03*
X155190000Y-109440000D03*
X150790000Y-112520000D03*
X154790000Y-112520000D03*
X150390000Y-112520000D03*
X156390000Y-109440000D03*
X158390000Y-109440000D03*
X149190000Y-109440000D03*
X148390000Y-109440000D03*
X151990000Y-112520000D03*
X151190000Y-109440000D03*
X151590000Y-109440000D03*
X154390000Y-112520000D03*
X157990000Y-112520000D03*
X154790000Y-109440000D03*
X155190000Y-112520000D03*
X152790000Y-112520000D03*
X152390000Y-109440000D03*
X153990000Y-112520000D03*
X151190000Y-112520000D03*
X149990000Y-112520000D03*
X155990000Y-112520000D03*
X158390000Y-112520000D03*
X157990000Y-109440000D03*
X157590000Y-112520000D03*
X157190000Y-109440000D03*
X156390000Y-112520000D03*
X148790000Y-109440000D03*
X151590000Y-112520000D03*
X156790000Y-109440000D03*
X153990000Y-109440000D03*
X148790000Y-112520000D03*
X152790000Y-109440000D03*
X156790000Y-112520000D03*
X157590000Y-109440000D03*
X157190000Y-112520000D03*
X152390000Y-112520000D03*
X155990000Y-109440000D03*
X149590000Y-112520000D03*
X150790000Y-109440000D03*
X148390000Y-112520000D03*
X153590000Y-112520000D03*
X155590000Y-112520000D03*
X153190000Y-112520000D03*
X150390000Y-109440000D03*
X149990000Y-109440000D03*
X155590000Y-109440000D03*
X149590000Y-109440000D03*
X151990000Y-109440000D03*
X149190000Y-112520000D03*
X154390000Y-109440000D03*
X147190000Y-112520000D03*
X145190000Y-109440000D03*
X138790000Y-109440000D03*
X139990000Y-112520000D03*
X139590000Y-109440000D03*
X146790000Y-112520000D03*
X143190000Y-112520000D03*
X146390000Y-109440000D03*
X146390000Y-112520000D03*
X145990000Y-109440000D03*
X145590000Y-112520000D03*
X144390000Y-112520000D03*
X141190000Y-112520000D03*
X145990000Y-112520000D03*
X145590000Y-109440000D03*
X145190000Y-112520000D03*
X143990000Y-112520000D03*
X144790000Y-109440000D03*
X143590000Y-112520000D03*
X139990000Y-109440000D03*
X144790000Y-112520000D03*
X144390000Y-109440000D03*
X142390000Y-112520000D03*
X141990000Y-109440000D03*
X140790000Y-109440000D03*
X143990000Y-109440000D03*
X143590000Y-109440000D03*
X141590000Y-112520000D03*
X143190000Y-109440000D03*
X142390000Y-109440000D03*
X142790000Y-112520000D03*
X141190000Y-109440000D03*
X140390000Y-112520000D03*
X139590000Y-112520000D03*
X138790000Y-112520000D03*
X140390000Y-109440000D03*
X146790000Y-109440000D03*
X142790000Y-109440000D03*
X139190000Y-109440000D03*
X141590000Y-109440000D03*
X140790000Y-112520000D03*
X141990000Y-112520000D03*
X139190000Y-112520000D03*
X147990000Y-109440000D03*
X147990000Y-112520000D03*
X147590000Y-109440000D03*
X147590000Y-112520000D03*
X147190000Y-109440000D03*
%TD*%
%TO.C,R8*%
G36*
G01*
X86597500Y-133560000D02*
X86122500Y-133560000D01*
G75*
G02*
X85885000Y-133322500I0J237500D01*
G01*
X85885000Y-132822500D01*
G75*
G02*
X86122500Y-132585000I237500J0D01*
G01*
X86597500Y-132585000D01*
G75*
G02*
X86835000Y-132822500I0J-237500D01*
G01*
X86835000Y-133322500D01*
G75*
G02*
X86597500Y-133560000I-237500J0D01*
G01*
G37*
G36*
G01*
X86597500Y-135385000D02*
X86122500Y-135385000D01*
G75*
G02*
X85885000Y-135147500I0J237500D01*
G01*
X85885000Y-134647500D01*
G75*
G02*
X86122500Y-134410000I237500J0D01*
G01*
X86597500Y-134410000D01*
G75*
G02*
X86835000Y-134647500I0J-237500D01*
G01*
X86835000Y-135147500D01*
G75*
G02*
X86597500Y-135385000I-237500J0D01*
G01*
G37*
%TD*%
D20*
%TO.C,U8*%
X84705000Y-72517000D03*
D21*
X84705000Y-73517000D03*
X84705000Y-72017000D03*
X84705000Y-71517000D03*
X84705000Y-73017000D03*
X85475000Y-71517000D03*
X85475000Y-72017000D03*
D20*
X85475000Y-72517000D03*
D21*
X85475000Y-73017000D03*
X85475000Y-73517000D03*
%TD*%
D20*
%TO.C,U7*%
X84705000Y-79883000D03*
D21*
X84705000Y-80883000D03*
X84705000Y-79383000D03*
X84705000Y-78883000D03*
X84705000Y-80383000D03*
X85475000Y-78883000D03*
X85475000Y-79383000D03*
D20*
X85475000Y-79883000D03*
D21*
X85475000Y-80383000D03*
X85475000Y-80883000D03*
%TD*%
%TO.C,U5*%
G36*
G01*
X97340000Y-138280000D02*
X97340000Y-138580000D01*
G75*
G02*
X97190000Y-138730000I-150000J0D01*
G01*
X95440000Y-138730000D01*
G75*
G02*
X95290000Y-138580000I0J150000D01*
G01*
X95290000Y-138280000D01*
G75*
G02*
X95440000Y-138130000I150000J0D01*
G01*
X97190000Y-138130000D01*
G75*
G02*
X97340000Y-138280000I0J-150000D01*
G01*
G37*
G36*
G01*
X97340000Y-137010000D02*
X97340000Y-137310000D01*
G75*
G02*
X97190000Y-137460000I-150000J0D01*
G01*
X95440000Y-137460000D01*
G75*
G02*
X95290000Y-137310000I0J150000D01*
G01*
X95290000Y-137010000D01*
G75*
G02*
X95440000Y-136860000I150000J0D01*
G01*
X97190000Y-136860000D01*
G75*
G02*
X97340000Y-137010000I0J-150000D01*
G01*
G37*
G36*
G01*
X97340000Y-135740000D02*
X97340000Y-136040000D01*
G75*
G02*
X97190000Y-136190000I-150000J0D01*
G01*
X95440000Y-136190000D01*
G75*
G02*
X95290000Y-136040000I0J150000D01*
G01*
X95290000Y-135740000D01*
G75*
G02*
X95440000Y-135590000I150000J0D01*
G01*
X97190000Y-135590000D01*
G75*
G02*
X97340000Y-135740000I0J-150000D01*
G01*
G37*
G36*
G01*
X97340000Y-134470000D02*
X97340000Y-134770000D01*
G75*
G02*
X97190000Y-134920000I-150000J0D01*
G01*
X95440000Y-134920000D01*
G75*
G02*
X95290000Y-134770000I0J150000D01*
G01*
X95290000Y-134470000D01*
G75*
G02*
X95440000Y-134320000I150000J0D01*
G01*
X97190000Y-134320000D01*
G75*
G02*
X97340000Y-134470000I0J-150000D01*
G01*
G37*
G36*
G01*
X97340000Y-133200000D02*
X97340000Y-133500000D01*
G75*
G02*
X97190000Y-133650000I-150000J0D01*
G01*
X95440000Y-133650000D01*
G75*
G02*
X95290000Y-133500000I0J150000D01*
G01*
X95290000Y-133200000D01*
G75*
G02*
X95440000Y-133050000I150000J0D01*
G01*
X97190000Y-133050000D01*
G75*
G02*
X97340000Y-133200000I0J-150000D01*
G01*
G37*
G36*
G01*
X97340000Y-131930000D02*
X97340000Y-132230000D01*
G75*
G02*
X97190000Y-132380000I-150000J0D01*
G01*
X95440000Y-132380000D01*
G75*
G02*
X95290000Y-132230000I0J150000D01*
G01*
X95290000Y-131930000D01*
G75*
G02*
X95440000Y-131780000I150000J0D01*
G01*
X97190000Y-131780000D01*
G75*
G02*
X97340000Y-131930000I0J-150000D01*
G01*
G37*
G36*
G01*
X97340000Y-130660000D02*
X97340000Y-130960000D01*
G75*
G02*
X97190000Y-131110000I-150000J0D01*
G01*
X95440000Y-131110000D01*
G75*
G02*
X95290000Y-130960000I0J150000D01*
G01*
X95290000Y-130660000D01*
G75*
G02*
X95440000Y-130510000I150000J0D01*
G01*
X97190000Y-130510000D01*
G75*
G02*
X97340000Y-130660000I0J-150000D01*
G01*
G37*
G36*
G01*
X97340000Y-129390000D02*
X97340000Y-129690000D01*
G75*
G02*
X97190000Y-129840000I-150000J0D01*
G01*
X95440000Y-129840000D01*
G75*
G02*
X95290000Y-129690000I0J150000D01*
G01*
X95290000Y-129390000D01*
G75*
G02*
X95440000Y-129240000I150000J0D01*
G01*
X97190000Y-129240000D01*
G75*
G02*
X97340000Y-129390000I0J-150000D01*
G01*
G37*
G36*
G01*
X106640000Y-129390000D02*
X106640000Y-129690000D01*
G75*
G02*
X106490000Y-129840000I-150000J0D01*
G01*
X104740000Y-129840000D01*
G75*
G02*
X104590000Y-129690000I0J150000D01*
G01*
X104590000Y-129390000D01*
G75*
G02*
X104740000Y-129240000I150000J0D01*
G01*
X106490000Y-129240000D01*
G75*
G02*
X106640000Y-129390000I0J-150000D01*
G01*
G37*
G36*
G01*
X106640000Y-130660000D02*
X106640000Y-130960000D01*
G75*
G02*
X106490000Y-131110000I-150000J0D01*
G01*
X104740000Y-131110000D01*
G75*
G02*
X104590000Y-130960000I0J150000D01*
G01*
X104590000Y-130660000D01*
G75*
G02*
X104740000Y-130510000I150000J0D01*
G01*
X106490000Y-130510000D01*
G75*
G02*
X106640000Y-130660000I0J-150000D01*
G01*
G37*
G36*
G01*
X106640000Y-131930000D02*
X106640000Y-132230000D01*
G75*
G02*
X106490000Y-132380000I-150000J0D01*
G01*
X104740000Y-132380000D01*
G75*
G02*
X104590000Y-132230000I0J150000D01*
G01*
X104590000Y-131930000D01*
G75*
G02*
X104740000Y-131780000I150000J0D01*
G01*
X106490000Y-131780000D01*
G75*
G02*
X106640000Y-131930000I0J-150000D01*
G01*
G37*
G36*
G01*
X106640000Y-133200000D02*
X106640000Y-133500000D01*
G75*
G02*
X106490000Y-133650000I-150000J0D01*
G01*
X104740000Y-133650000D01*
G75*
G02*
X104590000Y-133500000I0J150000D01*
G01*
X104590000Y-133200000D01*
G75*
G02*
X104740000Y-133050000I150000J0D01*
G01*
X106490000Y-133050000D01*
G75*
G02*
X106640000Y-133200000I0J-150000D01*
G01*
G37*
G36*
G01*
X106640000Y-134470000D02*
X106640000Y-134770000D01*
G75*
G02*
X106490000Y-134920000I-150000J0D01*
G01*
X104740000Y-134920000D01*
G75*
G02*
X104590000Y-134770000I0J150000D01*
G01*
X104590000Y-134470000D01*
G75*
G02*
X104740000Y-134320000I150000J0D01*
G01*
X106490000Y-134320000D01*
G75*
G02*
X106640000Y-134470000I0J-150000D01*
G01*
G37*
G36*
G01*
X106640000Y-135740000D02*
X106640000Y-136040000D01*
G75*
G02*
X106490000Y-136190000I-150000J0D01*
G01*
X104740000Y-136190000D01*
G75*
G02*
X104590000Y-136040000I0J150000D01*
G01*
X104590000Y-135740000D01*
G75*
G02*
X104740000Y-135590000I150000J0D01*
G01*
X106490000Y-135590000D01*
G75*
G02*
X106640000Y-135740000I0J-150000D01*
G01*
G37*
G36*
G01*
X106640000Y-137010000D02*
X106640000Y-137310000D01*
G75*
G02*
X106490000Y-137460000I-150000J0D01*
G01*
X104740000Y-137460000D01*
G75*
G02*
X104590000Y-137310000I0J150000D01*
G01*
X104590000Y-137010000D01*
G75*
G02*
X104740000Y-136860000I150000J0D01*
G01*
X106490000Y-136860000D01*
G75*
G02*
X106640000Y-137010000I0J-150000D01*
G01*
G37*
G36*
G01*
X106640000Y-138280000D02*
X106640000Y-138580000D01*
G75*
G02*
X106490000Y-138730000I-150000J0D01*
G01*
X104740000Y-138730000D01*
G75*
G02*
X104590000Y-138580000I0J150000D01*
G01*
X104590000Y-138280000D01*
G75*
G02*
X104740000Y-138130000I150000J0D01*
G01*
X106490000Y-138130000D01*
G75*
G02*
X106640000Y-138280000I0J-150000D01*
G01*
G37*
%TD*%
%TO.C,R9*%
G36*
G01*
X86597500Y-129750000D02*
X86122500Y-129750000D01*
G75*
G02*
X85885000Y-129512500I0J237500D01*
G01*
X85885000Y-129012500D01*
G75*
G02*
X86122500Y-128775000I237500J0D01*
G01*
X86597500Y-128775000D01*
G75*
G02*
X86835000Y-129012500I0J-237500D01*
G01*
X86835000Y-129512500D01*
G75*
G02*
X86597500Y-129750000I-237500J0D01*
G01*
G37*
G36*
G01*
X86597500Y-131575000D02*
X86122500Y-131575000D01*
G75*
G02*
X85885000Y-131337500I0J237500D01*
G01*
X85885000Y-130837500D01*
G75*
G02*
X86122500Y-130600000I237500J0D01*
G01*
X86597500Y-130600000D01*
G75*
G02*
X86835000Y-130837500I0J-237500D01*
G01*
X86835000Y-131337500D01*
G75*
G02*
X86597500Y-131575000I-237500J0D01*
G01*
G37*
%TD*%
%TO.C,R7*%
G36*
G01*
X86597500Y-137370000D02*
X86122500Y-137370000D01*
G75*
G02*
X85885000Y-137132500I0J237500D01*
G01*
X85885000Y-136632500D01*
G75*
G02*
X86122500Y-136395000I237500J0D01*
G01*
X86597500Y-136395000D01*
G75*
G02*
X86835000Y-136632500I0J-237500D01*
G01*
X86835000Y-137132500D01*
G75*
G02*
X86597500Y-137370000I-237500J0D01*
G01*
G37*
G36*
G01*
X86597500Y-139195000D02*
X86122500Y-139195000D01*
G75*
G02*
X85885000Y-138957500I0J237500D01*
G01*
X85885000Y-138457500D01*
G75*
G02*
X86122500Y-138220000I237500J0D01*
G01*
X86597500Y-138220000D01*
G75*
G02*
X86835000Y-138457500I0J-237500D01*
G01*
X86835000Y-138957500D01*
G75*
G02*
X86597500Y-139195000I-237500J0D01*
G01*
G37*
%TD*%
%TO.C,R4*%
G36*
G01*
X72600000Y-89932500D02*
X72600000Y-90407500D01*
G75*
G02*
X72362500Y-90645000I-237500J0D01*
G01*
X71862500Y-90645000D01*
G75*
G02*
X71625000Y-90407500I0J237500D01*
G01*
X71625000Y-89932500D01*
G75*
G02*
X71862500Y-89695000I237500J0D01*
G01*
X72362500Y-89695000D01*
G75*
G02*
X72600000Y-89932500I0J-237500D01*
G01*
G37*
G36*
G01*
X74425000Y-89932500D02*
X74425000Y-90407500D01*
G75*
G02*
X74187500Y-90645000I-237500J0D01*
G01*
X73687500Y-90645000D01*
G75*
G02*
X73450000Y-90407500I0J237500D01*
G01*
X73450000Y-89932500D01*
G75*
G02*
X73687500Y-89695000I237500J0D01*
G01*
X74187500Y-89695000D01*
G75*
G02*
X74425000Y-89932500I0J-237500D01*
G01*
G37*
%TD*%
%TO.C,R3*%
G36*
G01*
X73450000Y-88502500D02*
X73450000Y-88027500D01*
G75*
G02*
X73687500Y-87790000I237500J0D01*
G01*
X74187500Y-87790000D01*
G75*
G02*
X74425000Y-88027500I0J-237500D01*
G01*
X74425000Y-88502500D01*
G75*
G02*
X74187500Y-88740000I-237500J0D01*
G01*
X73687500Y-88740000D01*
G75*
G02*
X73450000Y-88502500I0J237500D01*
G01*
G37*
G36*
G01*
X71625000Y-88502500D02*
X71625000Y-88027500D01*
G75*
G02*
X71862500Y-87790000I237500J0D01*
G01*
X72362500Y-87790000D01*
G75*
G02*
X72600000Y-88027500I0J-237500D01*
G01*
X72600000Y-88502500D01*
G75*
G02*
X72362500Y-88740000I-237500J0D01*
G01*
X71862500Y-88740000D01*
G75*
G02*
X71625000Y-88502500I0J237500D01*
G01*
G37*
%TD*%
%TO.C,C11*%
G36*
G01*
X91202500Y-138347500D02*
X91677500Y-138347500D01*
G75*
G02*
X91915000Y-138585000I0J-237500D01*
G01*
X91915000Y-139185000D01*
G75*
G02*
X91677500Y-139422500I-237500J0D01*
G01*
X91202500Y-139422500D01*
G75*
G02*
X90965000Y-139185000I0J237500D01*
G01*
X90965000Y-138585000D01*
G75*
G02*
X91202500Y-138347500I237500J0D01*
G01*
G37*
G36*
G01*
X91202500Y-136622500D02*
X91677500Y-136622500D01*
G75*
G02*
X91915000Y-136860000I0J-237500D01*
G01*
X91915000Y-137460000D01*
G75*
G02*
X91677500Y-137697500I-237500J0D01*
G01*
X91202500Y-137697500D01*
G75*
G02*
X90965000Y-137460000I0J237500D01*
G01*
X90965000Y-136860000D01*
G75*
G02*
X91202500Y-136622500I237500J0D01*
G01*
G37*
%TD*%
%TO.C,C10*%
G36*
G01*
X93107500Y-138347500D02*
X93582500Y-138347500D01*
G75*
G02*
X93820000Y-138585000I0J-237500D01*
G01*
X93820000Y-139185000D01*
G75*
G02*
X93582500Y-139422500I-237500J0D01*
G01*
X93107500Y-139422500D01*
G75*
G02*
X92870000Y-139185000I0J237500D01*
G01*
X92870000Y-138585000D01*
G75*
G02*
X93107500Y-138347500I237500J0D01*
G01*
G37*
G36*
G01*
X93107500Y-136622500D02*
X93582500Y-136622500D01*
G75*
G02*
X93820000Y-136860000I0J-237500D01*
G01*
X93820000Y-137460000D01*
G75*
G02*
X93582500Y-137697500I-237500J0D01*
G01*
X93107500Y-137697500D01*
G75*
G02*
X92870000Y-137460000I0J237500D01*
G01*
X92870000Y-136860000D01*
G75*
G02*
X93107500Y-136622500I237500J0D01*
G01*
G37*
%TD*%
%TO.C,C9*%
G36*
G01*
X93582500Y-129622500D02*
X93107500Y-129622500D01*
G75*
G02*
X92870000Y-129385000I0J237500D01*
G01*
X92870000Y-128785000D01*
G75*
G02*
X93107500Y-128547500I237500J0D01*
G01*
X93582500Y-128547500D01*
G75*
G02*
X93820000Y-128785000I0J-237500D01*
G01*
X93820000Y-129385000D01*
G75*
G02*
X93582500Y-129622500I-237500J0D01*
G01*
G37*
G36*
G01*
X93582500Y-131347500D02*
X93107500Y-131347500D01*
G75*
G02*
X92870000Y-131110000I0J237500D01*
G01*
X92870000Y-130510000D01*
G75*
G02*
X93107500Y-130272500I237500J0D01*
G01*
X93582500Y-130272500D01*
G75*
G02*
X93820000Y-130510000I0J-237500D01*
G01*
X93820000Y-131110000D01*
G75*
G02*
X93582500Y-131347500I-237500J0D01*
G01*
G37*
%TD*%
%TO.C,C7*%
G36*
G01*
X91677500Y-129622500D02*
X91202500Y-129622500D01*
G75*
G02*
X90965000Y-129385000I0J237500D01*
G01*
X90965000Y-128785000D01*
G75*
G02*
X91202500Y-128547500I237500J0D01*
G01*
X91677500Y-128547500D01*
G75*
G02*
X91915000Y-128785000I0J-237500D01*
G01*
X91915000Y-129385000D01*
G75*
G02*
X91677500Y-129622500I-237500J0D01*
G01*
G37*
G36*
G01*
X91677500Y-131347500D02*
X91202500Y-131347500D01*
G75*
G02*
X90965000Y-131110000I0J237500D01*
G01*
X90965000Y-130510000D01*
G75*
G02*
X91202500Y-130272500I237500J0D01*
G01*
X91677500Y-130272500D01*
G75*
G02*
X91915000Y-130510000I0J-237500D01*
G01*
X91915000Y-131110000D01*
G75*
G02*
X91677500Y-131347500I-237500J0D01*
G01*
G37*
%TD*%
%TO.C,C6*%
G36*
G01*
X110252500Y-138347500D02*
X110727500Y-138347500D01*
G75*
G02*
X110965000Y-138585000I0J-237500D01*
G01*
X110965000Y-139185000D01*
G75*
G02*
X110727500Y-139422500I-237500J0D01*
G01*
X110252500Y-139422500D01*
G75*
G02*
X110015000Y-139185000I0J237500D01*
G01*
X110015000Y-138585000D01*
G75*
G02*
X110252500Y-138347500I237500J0D01*
G01*
G37*
G36*
G01*
X110252500Y-136622500D02*
X110727500Y-136622500D01*
G75*
G02*
X110965000Y-136860000I0J-237500D01*
G01*
X110965000Y-137460000D01*
G75*
G02*
X110727500Y-137697500I-237500J0D01*
G01*
X110252500Y-137697500D01*
G75*
G02*
X110015000Y-137460000I0J237500D01*
G01*
X110015000Y-136860000D01*
G75*
G02*
X110252500Y-136622500I237500J0D01*
G01*
G37*
%TD*%
%TO.C,C5*%
G36*
G01*
X108347500Y-138347500D02*
X108822500Y-138347500D01*
G75*
G02*
X109060000Y-138585000I0J-237500D01*
G01*
X109060000Y-139185000D01*
G75*
G02*
X108822500Y-139422500I-237500J0D01*
G01*
X108347500Y-139422500D01*
G75*
G02*
X108110000Y-139185000I0J237500D01*
G01*
X108110000Y-138585000D01*
G75*
G02*
X108347500Y-138347500I237500J0D01*
G01*
G37*
G36*
G01*
X108347500Y-136622500D02*
X108822500Y-136622500D01*
G75*
G02*
X109060000Y-136860000I0J-237500D01*
G01*
X109060000Y-137460000D01*
G75*
G02*
X108822500Y-137697500I-237500J0D01*
G01*
X108347500Y-137697500D01*
G75*
G02*
X108110000Y-137460000I0J237500D01*
G01*
X108110000Y-136860000D01*
G75*
G02*
X108347500Y-136622500I237500J0D01*
G01*
G37*
%TD*%
%TO.C,C4*%
G36*
G01*
X110727500Y-129622500D02*
X110252500Y-129622500D01*
G75*
G02*
X110015000Y-129385000I0J237500D01*
G01*
X110015000Y-128785000D01*
G75*
G02*
X110252500Y-128547500I237500J0D01*
G01*
X110727500Y-128547500D01*
G75*
G02*
X110965000Y-128785000I0J-237500D01*
G01*
X110965000Y-129385000D01*
G75*
G02*
X110727500Y-129622500I-237500J0D01*
G01*
G37*
G36*
G01*
X110727500Y-131347500D02*
X110252500Y-131347500D01*
G75*
G02*
X110015000Y-131110000I0J237500D01*
G01*
X110015000Y-130510000D01*
G75*
G02*
X110252500Y-130272500I237500J0D01*
G01*
X110727500Y-130272500D01*
G75*
G02*
X110965000Y-130510000I0J-237500D01*
G01*
X110965000Y-131110000D01*
G75*
G02*
X110727500Y-131347500I-237500J0D01*
G01*
G37*
%TD*%
%TO.C,C3*%
G36*
G01*
X108822500Y-129622500D02*
X108347500Y-129622500D01*
G75*
G02*
X108110000Y-129385000I0J237500D01*
G01*
X108110000Y-128785000D01*
G75*
G02*
X108347500Y-128547500I237500J0D01*
G01*
X108822500Y-128547500D01*
G75*
G02*
X109060000Y-128785000I0J-237500D01*
G01*
X109060000Y-129385000D01*
G75*
G02*
X108822500Y-129622500I-237500J0D01*
G01*
G37*
G36*
G01*
X108822500Y-131347500D02*
X108347500Y-131347500D01*
G75*
G02*
X108110000Y-131110000I0J237500D01*
G01*
X108110000Y-130510000D01*
G75*
G02*
X108347500Y-130272500I237500J0D01*
G01*
X108822500Y-130272500D01*
G75*
G02*
X109060000Y-130510000I0J-237500D01*
G01*
X109060000Y-131110000D01*
G75*
G02*
X108822500Y-131347500I-237500J0D01*
G01*
G37*
%TD*%
%TO.C,C1*%
G36*
G01*
X84765000Y-75962500D02*
X84765000Y-76437500D01*
G75*
G02*
X84527500Y-76675000I-237500J0D01*
G01*
X83927500Y-76675000D01*
G75*
G02*
X83690000Y-76437500I0J237500D01*
G01*
X83690000Y-75962500D01*
G75*
G02*
X83927500Y-75725000I237500J0D01*
G01*
X84527500Y-75725000D01*
G75*
G02*
X84765000Y-75962500I0J-237500D01*
G01*
G37*
G36*
G01*
X86490000Y-75962500D02*
X86490000Y-76437500D01*
G75*
G02*
X86252500Y-76675000I-237500J0D01*
G01*
X85652500Y-76675000D01*
G75*
G02*
X85415000Y-76437500I0J237500D01*
G01*
X85415000Y-75962500D01*
G75*
G02*
X85652500Y-75725000I237500J0D01*
G01*
X86252500Y-75725000D01*
G75*
G02*
X86490000Y-75962500I0J-237500D01*
G01*
G37*
%TD*%
D22*
%TO.C,U4*%
X214376000Y-58035000D03*
D23*
X213376000Y-58035000D03*
X214876000Y-58035000D03*
X215376000Y-58035000D03*
X213876000Y-58035000D03*
X215376000Y-58805000D03*
X214876000Y-58805000D03*
D22*
X214376000Y-58805000D03*
D23*
X213876000Y-58805000D03*
X213376000Y-58805000D03*
%TD*%
%TO.C,R13*%
G36*
G01*
X188832500Y-75140000D02*
X188357500Y-75140000D01*
G75*
G02*
X188120000Y-74902500I0J237500D01*
G01*
X188120000Y-74402500D01*
G75*
G02*
X188357500Y-74165000I237500J0D01*
G01*
X188832500Y-74165000D01*
G75*
G02*
X189070000Y-74402500I0J-237500D01*
G01*
X189070000Y-74902500D01*
G75*
G02*
X188832500Y-75140000I-237500J0D01*
G01*
G37*
G36*
G01*
X188832500Y-76965000D02*
X188357500Y-76965000D01*
G75*
G02*
X188120000Y-76727500I0J237500D01*
G01*
X188120000Y-76227500D01*
G75*
G02*
X188357500Y-75990000I237500J0D01*
G01*
X188832500Y-75990000D01*
G75*
G02*
X189070000Y-76227500I0J-237500D01*
G01*
X189070000Y-76727500D01*
G75*
G02*
X188832500Y-76965000I-237500J0D01*
G01*
G37*
%TD*%
D24*
%TO.C,U2*%
X82550000Y-98455000D03*
X82550000Y-97155000D03*
X85210000Y-97155000D03*
X85210000Y-97805000D03*
X85210000Y-98455000D03*
%TD*%
D25*
%TO.C,U6*%
X191940000Y-76515000D03*
X191940000Y-74615000D03*
X194140000Y-74615000D03*
X194140000Y-75565000D03*
X194140000Y-76515000D03*
%TD*%
%TO.C,R6*%
G36*
G01*
X207407500Y-64202500D02*
X207882500Y-64202500D01*
G75*
G02*
X208120000Y-64440000I0J-237500D01*
G01*
X208120000Y-64940000D01*
G75*
G02*
X207882500Y-65177500I-237500J0D01*
G01*
X207407500Y-65177500D01*
G75*
G02*
X207170000Y-64940000I0J237500D01*
G01*
X207170000Y-64440000D01*
G75*
G02*
X207407500Y-64202500I237500J0D01*
G01*
G37*
G36*
G01*
X207407500Y-62377500D02*
X207882500Y-62377500D01*
G75*
G02*
X208120000Y-62615000I0J-237500D01*
G01*
X208120000Y-63115000D01*
G75*
G02*
X207882500Y-63352500I-237500J0D01*
G01*
X207407500Y-63352500D01*
G75*
G02*
X207170000Y-63115000I0J237500D01*
G01*
X207170000Y-62615000D01*
G75*
G02*
X207407500Y-62377500I237500J0D01*
G01*
G37*
%TD*%
%TO.C,R5*%
G36*
G01*
X212237500Y-63102500D02*
X212237500Y-62627500D01*
G75*
G02*
X212475000Y-62390000I237500J0D01*
G01*
X212975000Y-62390000D01*
G75*
G02*
X213212500Y-62627500I0J-237500D01*
G01*
X213212500Y-63102500D01*
G75*
G02*
X212975000Y-63340000I-237500J0D01*
G01*
X212475000Y-63340000D01*
G75*
G02*
X212237500Y-63102500I0J237500D01*
G01*
G37*
G36*
G01*
X210412500Y-63102500D02*
X210412500Y-62627500D01*
G75*
G02*
X210650000Y-62390000I237500J0D01*
G01*
X211150000Y-62390000D01*
G75*
G02*
X211387500Y-62627500I0J-237500D01*
G01*
X211387500Y-63102500D01*
G75*
G02*
X211150000Y-63340000I-237500J0D01*
G01*
X210650000Y-63340000D01*
G75*
G02*
X210412500Y-63102500I0J237500D01*
G01*
G37*
%TD*%
D26*
%TO.C,J3*%
X220910000Y-58775000D03*
D27*
X220910000Y-61475000D03*
D28*
X220910000Y-56950000D03*
X220910000Y-63700000D03*
D29*
X218335000Y-57837500D03*
X218335000Y-62812500D03*
D30*
X218250000Y-59025000D03*
X218250000Y-59675000D03*
X218250000Y-60325000D03*
X218250000Y-60975000D03*
X218250000Y-61625000D03*
%TD*%
D31*
%TO.C,U1*%
X126589000Y-66040000D03*
X127889000Y-66040000D03*
X127889000Y-68700000D03*
X127239000Y-68700000D03*
X126589000Y-68700000D03*
%TD*%
%TO.C,R1*%
G36*
G01*
X127651500Y-62932500D02*
X128126500Y-62932500D01*
G75*
G02*
X128364000Y-63170000I0J-237500D01*
G01*
X128364000Y-63670000D01*
G75*
G02*
X128126500Y-63907500I-237500J0D01*
G01*
X127651500Y-63907500D01*
G75*
G02*
X127414000Y-63670000I0J237500D01*
G01*
X127414000Y-63170000D01*
G75*
G02*
X127651500Y-62932500I237500J0D01*
G01*
G37*
G36*
G01*
X127651500Y-61107500D02*
X128126500Y-61107500D01*
G75*
G02*
X128364000Y-61345000I0J-237500D01*
G01*
X128364000Y-61845000D01*
G75*
G02*
X128126500Y-62082500I-237500J0D01*
G01*
X127651500Y-62082500D01*
G75*
G02*
X127414000Y-61845000I0J237500D01*
G01*
X127414000Y-61345000D01*
G75*
G02*
X127651500Y-61107500I237500J0D01*
G01*
G37*
%TD*%
%TO.C,R2*%
G36*
G01*
X118601500Y-62082500D02*
X118126500Y-62082500D01*
G75*
G02*
X117889000Y-61845000I0J237500D01*
G01*
X117889000Y-61345000D01*
G75*
G02*
X118126500Y-61107500I237500J0D01*
G01*
X118601500Y-61107500D01*
G75*
G02*
X118839000Y-61345000I0J-237500D01*
G01*
X118839000Y-61845000D01*
G75*
G02*
X118601500Y-62082500I-237500J0D01*
G01*
G37*
G36*
G01*
X118601500Y-63907500D02*
X118126500Y-63907500D01*
G75*
G02*
X117889000Y-63670000I0J237500D01*
G01*
X117889000Y-63170000D01*
G75*
G02*
X118126500Y-62932500I237500J0D01*
G01*
X118601500Y-62932500D01*
G75*
G02*
X118839000Y-63170000I0J-237500D01*
G01*
X118839000Y-63670000D01*
G75*
G02*
X118601500Y-63907500I-237500J0D01*
G01*
G37*
%TD*%
%TO.C,C12*%
G36*
G01*
X197722500Y-75215000D02*
X197247500Y-75215000D01*
G75*
G02*
X197010000Y-74977500I0J237500D01*
G01*
X197010000Y-74402500D01*
G75*
G02*
X197247500Y-74165000I237500J0D01*
G01*
X197722500Y-74165000D01*
G75*
G02*
X197960000Y-74402500I0J-237500D01*
G01*
X197960000Y-74977500D01*
G75*
G02*
X197722500Y-75215000I-237500J0D01*
G01*
G37*
G36*
G01*
X197722500Y-76965000D02*
X197247500Y-76965000D01*
G75*
G02*
X197010000Y-76727500I0J237500D01*
G01*
X197010000Y-76152500D01*
G75*
G02*
X197247500Y-75915000I237500J0D01*
G01*
X197722500Y-75915000D01*
G75*
G02*
X197960000Y-76152500I0J-237500D01*
G01*
X197960000Y-76727500D01*
G75*
G02*
X197722500Y-76965000I-237500J0D01*
G01*
G37*
%TD*%
M02*
