%TF.GenerationSoftware,KiCad,Pcbnew,5.1.9+dfsg1-1~bpo10+1*%
%TF.CreationDate,2021-06-04T12:04:03+02:00*%
%TF.ProjectId,vacctrl_rpi,76616363-7472-46c5-9f72-70692e6b6963,1.0*%
%TF.SameCoordinates,Original*%
%TF.FileFunction,Copper,L2,Inr*%
%TF.FilePolarity,Positive*%
%FSLAX46Y46*%
G04 Gerber Fmt 4.6, Leading zero omitted, Abs format (unit mm)*
G04 Created by KiCad (PCBNEW 5.1.9+dfsg1-1~bpo10+1) date 2021-06-04 12:04:03*
%MOMM*%
%LPD*%
G01*
G04 APERTURE LIST*
%TA.AperFunction,ComponentPad*%
%ADD10C,1.680000*%
%TD*%
%TA.AperFunction,ComponentPad*%
%ADD11C,1.508000*%
%TD*%
%TA.AperFunction,ComponentPad*%
%ADD12C,1.408000*%
%TD*%
%TA.AperFunction,ComponentPad*%
%ADD13R,1.508000X1.508000*%
%TD*%
%TA.AperFunction,ComponentPad*%
%ADD14C,2.550000*%
%TD*%
%TA.AperFunction,ComponentPad*%
%ADD15O,1.700000X1.700000*%
%TD*%
%TA.AperFunction,ComponentPad*%
%ADD16R,1.700000X1.700000*%
%TD*%
%TA.AperFunction,ComponentPad*%
%ADD17C,2.000000*%
%TD*%
%TA.AperFunction,ComponentPad*%
%ADD18C,1.800000*%
%TD*%
%TA.AperFunction,ComponentPad*%
%ADD19R,1.800000X1.800000*%
%TD*%
%TA.AperFunction,ViaPad*%
%ADD20C,0.450000*%
%TD*%
%TA.AperFunction,ViaPad*%
%ADD21C,0.600000*%
%TD*%
%TA.AperFunction,Conductor*%
%ADD22C,0.500000*%
%TD*%
%TA.AperFunction,Conductor*%
%ADD23C,0.200000*%
%TD*%
%TA.AperFunction,Conductor*%
%ADD24C,0.191262*%
%TD*%
%TA.AperFunction,Conductor*%
%ADD25C,0.144780*%
%TD*%
G04 APERTURE END LIST*
D10*
%TO.N,Net-(J7-Pad18)*%
%TO.C,J7*%
X67060000Y-82840000D03*
%TO.N,+3V3*%
X67060000Y-80300000D03*
%TO.N,Net-(J7-Pad16)*%
X67060000Y-72100000D03*
%TO.N,+3V3*%
X67060000Y-69560000D03*
D11*
%TO.N,/Ethernet I/F/TR2_TAP*%
X73680000Y-79375000D03*
D12*
%TO.N,/Ethernet I/F/TR3_TAP*%
X74950000Y-81915000D03*
%TO.N,/Ethernet I/F/TR0_TAP*%
X74950000Y-70485000D03*
D11*
%TO.N,/Ethernet I/F/TR1_TAP*%
X73680000Y-73025000D03*
%TO.N,/Ethernet I/F/ETH_3_N*%
X77470000Y-81915000D03*
%TO.N,/Ethernet I/F/ETH_3_P*%
X80010000Y-80645000D03*
%TO.N,/Ethernet I/F/ETH_2_N*%
X77470000Y-79375000D03*
%TO.N,/Ethernet I/F/ETH_2_P*%
X80010000Y-78105000D03*
%TO.N,/Ethernet I/F/ETH_1_N*%
X77470000Y-76835000D03*
%TO.N,Net-(C1-Pad2)*%
X80010000Y-75565000D03*
X77470000Y-74295000D03*
%TO.N,/Ethernet I/F/ETH_1_P*%
X80010000Y-73025000D03*
%TO.N,/Ethernet I/F/ETH_0_N*%
X77470000Y-71755000D03*
D13*
%TO.N,/Ethernet I/F/ETH_0_P*%
X80010000Y-70485000D03*
D14*
%TO.N,GND*%
X74170000Y-84050000D03*
X74170000Y-68350000D03*
%TD*%
D15*
%TO.N,/Raspi_CM4_GPIO/nRPIBOOT*%
%TO.C,JP2*%
X191135000Y-65405000D03*
D16*
%TO.N,GND*%
X193675000Y-65405000D03*
%TD*%
D15*
%TO.N,GND*%
%TO.C,J4*%
X157480000Y-124904500D03*
D16*
%TO.N,+5V*%
X154940000Y-124904500D03*
%TD*%
D15*
%TO.N,+24V*%
%TO.C,JP1*%
X79375000Y-144145000D03*
D16*
%TO.N,Net-(J6-Pad2)*%
X79375000Y-141605000D03*
%TD*%
D17*
%TO.N,GND1*%
%TO.C,J6*%
X68500000Y-131400000D03*
%TO.N,Net-(J6-Pad5)*%
X72500000Y-131400000D03*
%TO.N,/RS485 I/F/RS485-D-*%
X70732233Y-129632233D03*
%TO.N,GND1*%
X70732233Y-133167767D03*
%TO.N,Net-(J6-Pad2)*%
X74267767Y-133167767D03*
%TO.N,/RS485 I/F/RS485-D+*%
X74267767Y-129632233D03*
%TD*%
%TO.N,Net-(SW1-Pad1)*%
%TO.C,SW1*%
X78105000Y-97155000D03*
%TO.N,/Raspi_CM4_GPIO/GLOBAL_EN*%
X78105000Y-101655000D03*
%TO.N,Net-(SW1-Pad1)*%
X71605000Y-97155000D03*
%TO.N,/Raspi_CM4_GPIO/GLOBAL_EN*%
X71605000Y-101655000D03*
%TD*%
D18*
%TO.N,+3V3*%
%TO.C,D2*%
X118364000Y-56515000D03*
D19*
%TO.N,Net-(D2-Pad1)*%
X118364000Y-59055000D03*
%TD*%
D18*
%TO.N,+3V3*%
%TO.C,D1*%
X127889000Y-56515000D03*
D19*
%TO.N,Net-(D1-Pad1)*%
X127889000Y-59055000D03*
%TD*%
D20*
%TO.N,GND*%
X107315000Y-138430000D03*
X107315000Y-139446000D03*
X106172000Y-139446000D03*
X107315000Y-129540000D03*
X107315000Y-128524000D03*
X106172000Y-128524000D03*
X226060000Y-134620000D03*
X226060000Y-121920000D03*
X226060000Y-118745000D03*
X226060000Y-113665000D03*
X226060000Y-108585000D03*
X226060000Y-103505000D03*
X226060000Y-98425000D03*
X226060000Y-93345000D03*
X226060000Y-128270000D03*
X216408000Y-62738000D03*
%TO.N,+3V3*%
X188595000Y-77597000D03*
D21*
X226060000Y-125730000D03*
D20*
X111633000Y-130810000D03*
X111633000Y-137160000D03*
X155448000Y-110617000D03*
%TO.N,GND1*%
X94615000Y-129540000D03*
X94615000Y-128524000D03*
X95504000Y-128524000D03*
X94615000Y-138430000D03*
X94615000Y-139446000D03*
X95758000Y-139446000D03*
X226060000Y-138430000D03*
X226060000Y-142875000D03*
%TO.N,/Raspi_CM4_GPIO/SD_DAT1*%
X151990000Y-110630000D03*
X204089000Y-72390000D03*
%TO.N,/Raspi_CM4_GPIO/SD_DAT0*%
X151390000Y-111380000D03*
X204089000Y-73406000D03*
%TO.N,/Raspi_CM4_GPIO/SD_CLK*%
X149990000Y-111380000D03*
X204089000Y-75438000D03*
%TO.N,/Raspi_CM4_GPIO/SD_CMD*%
X150790000Y-110580000D03*
X187590000Y-78480000D03*
%TO.N,/Raspi_CM4_GPIO/SD_DAT3*%
X150790000Y-113530000D03*
X187590000Y-79280000D03*
%TO.N,/Raspi_CM4_GPIO/SD_DAT2*%
X152390000Y-113530000D03*
X187590000Y-80280000D03*
%TO.N,/Raspi_CM4_GPIO/nRPIBOOT*%
X166840000Y-108430000D03*
%TO.N,/Raspi_CM4_HighSpeed/USB_P*%
X215540000Y-60080000D03*
X139740000Y-79530000D03*
%TO.N,/Raspi_CM4_HighSpeed/USB_N*%
X215540000Y-60780000D03*
X139040000Y-79530000D03*
%TO.N,/Raspi_CM4_GPIO/Pi_nLED_Activity*%
X142790000Y-111380000D03*
X118364000Y-64770000D03*
%TO.N,/Raspi_CM4_HighSpeed/USB_OTG*%
X138290000Y-79530000D03*
X206375000Y-62865000D03*
%TO.N,/Raspi_CM4_GPIO/SD_PWR_ON*%
X153590000Y-111380000D03*
X185674000Y-74930000D03*
%TO.N,/Raspi_CM4_GPIO/GLOBAL_EN*%
X158390000Y-113580000D03*
%TO.N,/Raspi_CM4_GPIO/nPWR_LED*%
X157590000Y-111380000D03*
X130290000Y-69480000D03*
%TO.N,/Raspi_CM4_GPIO/RUN_PG*%
X156790000Y-108380000D03*
X86868000Y-98044000D03*
D21*
%TO.N,+5V*%
X226060000Y-131445000D03*
D20*
X154940000Y-114300000D03*
X81153000Y-98679000D03*
D21*
%TO.N,/RS485 I/F/VISO*%
X88900000Y-131445000D03*
X88900000Y-136525000D03*
D20*
%TO.N,/Backplane I/F/SCL*%
X175940000Y-112430000D03*
%TO.N,/Backplane I/F/SDA*%
X175290000Y-112430000D03*
X175290000Y-119380000D03*
D21*
%TO.N,+24V*%
X226060000Y-140970000D03*
D20*
%TO.N,/RS485 I/F/RS485-D+*%
X93345000Y-132715000D03*
X93345000Y-135255000D03*
%TO.N,/Ethernet I/F/ETH_3_N*%
X139740000Y-114180000D03*
X86233000Y-81026000D03*
%TO.N,/Ethernet I/F/ETH_3_P*%
X139040000Y-114180000D03*
X86233000Y-80264000D03*
%TO.N,/Ethernet I/F/ETH_2_N*%
X86233000Y-79502000D03*
X140240000Y-113530000D03*
%TO.N,/Ethernet I/F/ETH_2_P*%
X86233000Y-78740000D03*
X140940000Y-113530000D03*
%TO.N,/Ethernet I/F/ETH_1_N*%
X139740000Y-107730000D03*
X86233000Y-72898000D03*
%TO.N,/Ethernet I/F/ETH_1_P*%
X86233000Y-73660000D03*
X139040000Y-107730000D03*
%TO.N,/Ethernet I/F/ETH_0_N*%
X86233000Y-72136000D03*
X140240000Y-108380000D03*
%TO.N,/Ethernet I/F/ETH_0_P*%
X86233000Y-71374000D03*
X140940000Y-108380000D03*
%TO.N,/Ethernet I/F/ETH_LEDG*%
X141440000Y-114180000D03*
X75438000Y-88265000D03*
%TO.N,/Ethernet I/F/ETH_LEDY*%
X142140000Y-114180000D03*
X75438000Y-90170000D03*
%TO.N,/RS485 I/F/uart_rts*%
X107315000Y-133985000D03*
X148390000Y-110580000D03*
%TO.N,/RS485 I/F/uart_rx*%
X148890000Y-113530000D03*
X107442000Y-135890000D03*
%TO.N,/RS485 I/F/uart_tx*%
X149590000Y-113530000D03*
X149590000Y-129530000D03*
%TO.N,/Raspi_CM4_GPIO/GPIO26*%
X192950000Y-100050000D03*
%TO.N,/Raspi_CM4_GPIO/GPIO13*%
X192950000Y-101450000D03*
%TO.N,/Raspi_CM4_GPIO/GPIO19*%
X192950000Y-100750000D03*
%TO.N,/Raspi_CM4_GPIO/GPIO06*%
X189500000Y-102700000D03*
%TO.N,/Raspi_CM4_GPIO/GPIO05*%
X189500000Y-103400000D03*
%TO.N,/Raspi_CM4_GPIO/GPIO11*%
X189500000Y-104100000D03*
%TO.N,/Raspi_CM4_GPIO/GPIO10*%
X185890000Y-109380000D03*
%TO.N,/Raspi_CM4_GPIO/GPIO22*%
X185890000Y-110080000D03*
%TO.N,/Raspi_CM4_GPIO/GPIO27*%
X185890000Y-110780000D03*
%TO.N,/Raspi_CM4_GPIO/GPIO04*%
X185890000Y-112080000D03*
%TO.N,/Raspi_CM4_GPIO/GPIO03*%
X185890000Y-112780000D03*
%TO.N,/Raspi_CM4_GPIO/GPIO02*%
X185890000Y-113480000D03*
%TD*%
D22*
%TO.N,+3V3*%
X155448000Y-110617000D02*
X156337000Y-110617000D01*
X156337000Y-110617000D02*
X156464000Y-110490000D01*
X156464000Y-110490000D02*
X159512000Y-110490000D01*
X174752000Y-125730000D02*
X182753000Y-125730000D01*
X159512000Y-110490000D02*
X174752000Y-125730000D01*
D23*
X188595000Y-124714000D02*
X189611000Y-125730000D01*
X188595000Y-77597000D02*
X188595000Y-124714000D01*
D22*
X226060000Y-125730000D02*
X189611000Y-125730000D01*
X189611000Y-125730000D02*
X182753000Y-125730000D01*
X163322000Y-137160000D02*
X170180000Y-130302000D01*
X111633000Y-137160000D02*
X163322000Y-137160000D01*
X169672000Y-130810000D02*
X170180000Y-130302000D01*
X170180000Y-130302000D02*
X174752000Y-125730000D01*
D23*
%TO.N,/Raspi_CM4_GPIO/SD_DAT1*%
X151990000Y-110630000D02*
X151990000Y-92780000D01*
X151990000Y-92780000D02*
X153340000Y-91430000D01*
X153340000Y-91430000D02*
X166390000Y-91430000D01*
X185430000Y-72390000D02*
X166390000Y-91430000D01*
X204089000Y-72390000D02*
X185430000Y-72390000D01*
%TO.N,/Raspi_CM4_GPIO/SD_DAT0*%
X151390000Y-111380000D02*
X152272000Y-111380000D01*
X152272000Y-111380000D02*
X152527000Y-111125000D01*
X152527000Y-111125000D02*
X152527000Y-92964000D01*
X152527000Y-92964000D02*
X153543000Y-91948000D01*
X153543000Y-91948000D02*
X166497000Y-91948000D01*
X166497000Y-91948000D02*
X185547000Y-72898000D01*
X185547000Y-72898000D02*
X203581000Y-72898000D01*
X203581000Y-72898000D02*
X204089000Y-73406000D01*
X204089000Y-73406000D02*
X204089000Y-73406000D01*
%TO.N,/Raspi_CM4_GPIO/SD_CLK*%
X149990000Y-111380000D02*
X150496000Y-111380000D01*
X150496000Y-111380000D02*
X151003000Y-111887000D01*
X151003000Y-111887000D02*
X152400000Y-111887000D01*
X152400000Y-111887000D02*
X152908000Y-111379000D01*
X152908000Y-111379000D02*
X152908000Y-93218000D01*
X152908000Y-93218000D02*
X153797000Y-92329000D01*
X153797000Y-92329000D02*
X166751000Y-92329000D01*
X166751000Y-92329000D02*
X185547000Y-73533000D01*
X185547000Y-73533000D02*
X202184000Y-73533000D01*
X202184000Y-73533000D02*
X204089000Y-75438000D01*
%TO.N,/Raspi_CM4_GPIO/SD_CMD*%
X150790000Y-110580000D02*
X149790000Y-110580000D01*
X149790000Y-110580000D02*
X149390000Y-110980000D01*
X149390000Y-110980000D02*
X149390000Y-111980000D01*
X149390000Y-111980000D02*
X149790000Y-112380000D01*
X149790000Y-112380000D02*
X153590000Y-112380000D01*
X153590000Y-112380000D02*
X154090000Y-111880000D01*
X154090000Y-93580000D02*
X154590000Y-93080000D01*
X154090000Y-111880000D02*
X154090000Y-93580000D01*
X154590000Y-93080000D02*
X168090000Y-93080000D01*
X168090000Y-93080000D02*
X182690000Y-78480000D01*
X182690000Y-78480000D02*
X187590000Y-78480000D01*
X187590000Y-78480000D02*
X187590000Y-78480000D01*
%TO.N,/Raspi_CM4_GPIO/SD_DAT3*%
X187590000Y-79280000D02*
X187590000Y-79280000D01*
X168240000Y-93430000D02*
X182390000Y-79280000D01*
X155240000Y-93430000D02*
X168240000Y-93430000D01*
X151190000Y-113530000D02*
X151990000Y-112730000D01*
X182390000Y-79280000D02*
X187590000Y-79280000D01*
X150790000Y-113530000D02*
X151190000Y-113530000D01*
X154440000Y-112030000D02*
X154440000Y-94230000D01*
X151990000Y-112730000D02*
X153740000Y-112730000D01*
X153740000Y-112730000D02*
X154440000Y-112030000D01*
X154440000Y-94230000D02*
X155240000Y-93430000D01*
%TO.N,/Raspi_CM4_GPIO/SD_DAT2*%
X152390000Y-113530000D02*
X153440000Y-113530000D01*
X153440000Y-113530000D02*
X154790000Y-112180000D01*
X154790000Y-94380000D02*
X155390000Y-93780000D01*
X154790000Y-112180000D02*
X154790000Y-94380000D01*
X155390000Y-93780000D02*
X168390000Y-93780000D01*
X168390000Y-93780000D02*
X181890000Y-80280000D01*
X181890000Y-80280000D02*
X187590000Y-80280000D01*
X187590000Y-80280000D02*
X187590000Y-80280000D01*
D24*
%TO.N,/Raspi_CM4_HighSpeed/USB_P*%
X215387231Y-60232769D02*
X215540000Y-60080000D01*
X182788290Y-60225420D02*
X182853521Y-60232769D01*
X182624331Y-60122397D02*
X182670748Y-60168814D01*
X174763267Y-59209675D02*
X174867906Y-59143926D01*
X174675881Y-59297061D02*
X174763267Y-59209675D01*
X174610132Y-59401700D02*
X174675881Y-59297061D01*
X174177750Y-61227563D02*
X174191895Y-61267989D01*
X174569315Y-59518347D02*
X174610132Y-59401700D01*
X181850003Y-60168814D02*
X181896420Y-60122397D01*
X182853521Y-60232769D02*
X215387231Y-60232769D01*
X182589406Y-60066815D02*
X182624331Y-60122397D01*
X181931345Y-60066815D02*
X181953026Y-60004855D01*
X174406776Y-61371470D02*
X174447202Y-61357325D01*
X182670748Y-60168814D02*
X182726330Y-60203739D01*
X182567725Y-60004855D02*
X182589406Y-60066815D01*
X174281231Y-61357325D02*
X174321657Y-61371470D01*
X175713090Y-59518347D02*
X175726927Y-59641151D01*
X174244967Y-61334538D02*
X174281231Y-61357325D01*
X174513751Y-61304253D02*
X174536538Y-61267989D01*
X173743880Y-60246605D02*
X173860527Y-60287422D01*
X182553026Y-59874393D02*
X182567725Y-60004855D01*
X174321657Y-61371470D02*
X174364217Y-61376266D01*
X174555479Y-59641151D02*
X174569315Y-59518347D01*
X174172955Y-61185004D02*
X174177750Y-61227563D01*
X164242769Y-79298303D02*
X164242769Y-63848303D01*
X175519138Y-59209675D02*
X175606524Y-59297061D01*
X139587231Y-79682769D02*
X139587231Y-80598303D01*
X181794421Y-60203739D02*
X181850003Y-60168814D01*
X167858303Y-60232769D02*
X173621076Y-60232769D01*
X182726330Y-60203739D02*
X182788290Y-60225420D01*
X174214682Y-61304253D02*
X174244967Y-61334538D01*
X139740000Y-79530000D02*
X139587231Y-79682769D01*
X181989406Y-59812433D02*
X182024331Y-59756851D01*
X174052552Y-60440557D02*
X174118301Y-60545196D01*
X173965166Y-60353171D02*
X174052552Y-60440557D01*
X174867906Y-59143926D02*
X174984553Y-59103109D01*
X174118301Y-60545196D02*
X174159118Y-60661843D01*
X139587231Y-80598303D02*
X139621697Y-80632769D01*
X182070748Y-59710434D02*
X182126330Y-59675509D01*
X182126330Y-59675509D02*
X182188290Y-59653828D01*
X174172955Y-60784647D02*
X174172955Y-61185004D01*
X173860527Y-60287422D02*
X173965166Y-60353171D01*
X175175048Y-59089272D02*
X175297852Y-59103109D01*
X174550683Y-61227563D02*
X174555479Y-61185004D01*
X175297852Y-59103109D02*
X175414499Y-59143926D01*
X174984553Y-59103109D02*
X175107357Y-59089272D01*
X175414499Y-59143926D02*
X175519138Y-59209675D01*
X181732461Y-60225420D02*
X181794421Y-60203739D01*
X174159118Y-60661843D02*
X174172955Y-60784647D01*
X182496420Y-59756851D02*
X182531345Y-59812433D01*
X175672273Y-59401700D02*
X175713090Y-59518347D01*
X182450003Y-59710434D02*
X182496420Y-59756851D01*
X175726927Y-59641151D02*
X175726927Y-60041507D01*
X174447202Y-61357325D02*
X174483466Y-61334538D01*
X174191895Y-61267989D02*
X174214682Y-61304253D01*
X175745867Y-60124493D02*
X175768654Y-60160757D01*
X182024331Y-59756851D02*
X182070748Y-59710434D01*
X175768654Y-60160757D02*
X175798939Y-60191042D01*
X175726927Y-60041507D02*
X175731722Y-60084067D01*
X175798939Y-60191042D02*
X175835203Y-60213829D01*
X175107357Y-59089272D02*
X175175048Y-59089272D01*
X175875629Y-60227974D02*
X175918189Y-60232769D01*
X175606524Y-59297061D02*
X175672273Y-59401700D01*
X174536538Y-61267989D02*
X174550683Y-61227563D01*
X181667231Y-60232769D02*
X181732461Y-60225420D01*
X175835203Y-60213829D02*
X175875629Y-60227974D01*
X181896420Y-60122397D02*
X181931345Y-60066815D01*
X175918189Y-60232769D02*
X181667231Y-60232769D01*
X181953026Y-60004855D02*
X181967725Y-59874393D01*
X175731722Y-60084067D02*
X175745867Y-60124493D01*
X181967725Y-59874393D02*
X181989406Y-59812433D01*
X174364217Y-61376266D02*
X174406776Y-61371470D01*
X162908303Y-80632769D02*
X164242769Y-79298303D01*
X182188290Y-59653828D02*
X182253521Y-59646478D01*
X174555479Y-61185004D02*
X174555479Y-59641151D01*
X182253521Y-59646478D02*
X182267231Y-59646478D01*
X173621076Y-60232769D02*
X173743880Y-60246605D01*
X182267231Y-59646478D02*
X182332461Y-59653828D01*
X174483466Y-61334538D02*
X174513751Y-61304253D01*
X182332461Y-59653828D02*
X182394421Y-59675509D01*
X164242769Y-63848303D02*
X167858303Y-60232769D01*
X182394421Y-59675509D02*
X182450003Y-59710434D01*
X139621697Y-80632769D02*
X162908303Y-80632769D01*
X182531345Y-59812433D02*
X182553026Y-59874393D01*
%TO.N,/Raspi_CM4_HighSpeed/USB_N*%
X215387231Y-60627231D02*
X215540000Y-60780000D01*
X175540253Y-60506829D02*
X175644892Y-60572578D01*
X175346301Y-60198157D02*
X175387118Y-60314804D01*
X175332465Y-59674996D02*
X175332465Y-60075353D01*
X175327669Y-59632437D02*
X175332465Y-59674996D01*
X175313524Y-59592011D02*
X175327669Y-59632437D01*
X175290737Y-59555747D02*
X175313524Y-59592011D01*
X175224188Y-59502675D02*
X175260452Y-59525462D01*
X175183762Y-59488530D02*
X175224188Y-59502675D01*
X175098643Y-59488530D02*
X175141203Y-59483734D01*
X174949941Y-61218849D02*
X174949941Y-59674996D01*
X174936104Y-61341653D02*
X174949941Y-61218849D01*
X174895287Y-61458300D02*
X174936104Y-61341653D01*
X174637513Y-61716074D02*
X174742152Y-61650325D01*
X174520866Y-61756891D02*
X174637513Y-61716074D01*
X174398062Y-61770728D02*
X174520866Y-61756891D01*
X174742152Y-61650325D02*
X174829538Y-61562939D01*
X174968881Y-59592011D02*
X174991668Y-59555747D01*
X175058217Y-59502675D02*
X175098643Y-59488530D01*
X173759552Y-60735507D02*
X173773697Y-60775933D01*
X174330371Y-61770728D02*
X174398062Y-61770728D01*
X174949941Y-59674996D02*
X174954736Y-59632437D01*
X175387118Y-60314804D02*
X175452867Y-60419443D01*
X173833146Y-61458300D02*
X173898895Y-61562939D01*
X175332465Y-60075353D02*
X175346301Y-60198157D01*
X175021953Y-59525462D02*
X175058217Y-59502675D01*
X173736765Y-60699243D02*
X173759552Y-60735507D01*
X174207567Y-61756891D02*
X174330371Y-61770728D01*
X173898895Y-61562939D02*
X173986281Y-61650325D01*
X175884343Y-60627231D02*
X215387231Y-60627231D01*
X175141203Y-59483734D02*
X175183762Y-59488530D01*
X163071697Y-81027231D02*
X164637231Y-79461697D01*
X174829538Y-61562939D02*
X174895287Y-61458300D01*
X173792329Y-61341653D02*
X173833146Y-61458300D01*
X175761539Y-60613395D02*
X175884343Y-60627231D01*
X175260452Y-59525462D02*
X175290737Y-59555747D01*
X175452867Y-60419443D02*
X175540253Y-60506829D01*
X173587231Y-60627231D02*
X173629790Y-60632026D01*
X168021697Y-60627231D02*
X173587231Y-60627231D01*
X139458303Y-81027231D02*
X163071697Y-81027231D01*
X173773697Y-60775933D02*
X173778493Y-60818493D01*
X175644892Y-60572578D02*
X175761539Y-60613395D01*
X173986281Y-61650325D02*
X174090920Y-61716074D01*
X139040000Y-79530000D02*
X139192769Y-79682769D01*
X174991668Y-59555747D02*
X175021953Y-59525462D01*
X173706480Y-60668958D02*
X173736765Y-60699243D01*
X139192769Y-79682769D02*
X139192769Y-80761697D01*
X164637231Y-79461697D02*
X164637231Y-64011697D01*
X139192769Y-80761697D02*
X139458303Y-81027231D01*
X164637231Y-64011697D02*
X168021697Y-60627231D01*
X173778493Y-60818493D02*
X173778493Y-61218849D01*
X174954736Y-59632437D02*
X174968881Y-59592011D01*
X173629790Y-60632026D02*
X173670216Y-60646171D01*
X173670216Y-60646171D02*
X173706480Y-60668958D01*
X173778493Y-61218849D02*
X173792329Y-61341653D01*
X174090920Y-61716074D02*
X174207567Y-61756891D01*
D23*
%TO.N,/Raspi_CM4_GPIO/Pi_nLED_Activity*%
X142790000Y-111380000D02*
X142790000Y-93880000D01*
X142790000Y-93880000D02*
X135590000Y-86680000D01*
X135590000Y-86680000D02*
X135590000Y-72980000D01*
X135590000Y-72980000D02*
X132890000Y-70280000D01*
X132890000Y-70280000D02*
X118921000Y-70280000D01*
X118921000Y-70280000D02*
X118364000Y-69723000D01*
X118364000Y-69723000D02*
X118364000Y-64770000D01*
X118364000Y-64770000D02*
X118364000Y-64770000D01*
%TO.N,/Raspi_CM4_HighSpeed/USB_OTG*%
X138290000Y-81730000D02*
X138290000Y-79530000D01*
X206375000Y-62865000D02*
X167944800Y-62865000D01*
X164140000Y-82080000D02*
X138640000Y-82080000D01*
X166140000Y-80080000D02*
X164140000Y-82080000D01*
X166140000Y-64669800D02*
X166140000Y-80080000D01*
X167944800Y-62865000D02*
X166140000Y-64669800D01*
X138640000Y-82080000D02*
X138290000Y-81730000D01*
%TO.N,/Raspi_CM4_GPIO/SD_PWR_ON*%
X167894000Y-92710000D02*
X185674000Y-74930000D01*
X154178000Y-92710000D02*
X167894000Y-92710000D01*
X153590000Y-111380000D02*
X153590000Y-93298000D01*
X153590000Y-93298000D02*
X154178000Y-92710000D01*
%TO.N,/Raspi_CM4_GPIO/GLOBAL_EN*%
X158390000Y-113580000D02*
X158390000Y-118030000D01*
X158390000Y-118030000D02*
X157540000Y-118880000D01*
X157540000Y-118880000D02*
X109690000Y-118880000D01*
X92465000Y-101655000D02*
X78105000Y-101655000D01*
X109690000Y-118880000D02*
X92465000Y-101655000D01*
X78105000Y-101655000D02*
X71605000Y-101655000D01*
%TO.N,/Raspi_CM4_GPIO/nPWR_LED*%
X130290000Y-69480000D02*
X130290000Y-69480000D01*
D25*
%TO.N,/Ethernet I/F/ETH_3_N*%
X86025990Y-80818990D02*
X86233000Y-81026000D01*
X77470000Y-81915000D02*
X81272060Y-81915000D01*
X81272060Y-81915000D02*
X82368070Y-80818990D01*
X82368070Y-80818990D02*
X86025990Y-80818990D01*
X113846930Y-80818990D02*
X86440010Y-80818990D01*
X115142010Y-103517210D02*
X115142010Y-82114070D01*
X115127673Y-103580027D02*
X115138381Y-103549426D01*
X115087499Y-103630403D02*
X115110424Y-103607478D01*
X114293275Y-103707968D02*
X114391408Y-103673630D01*
X114205243Y-103763282D02*
X114293275Y-103707968D01*
X114131727Y-103836798D02*
X114205243Y-103763282D01*
X114076413Y-103924830D02*
X114131727Y-103836798D01*
X114030434Y-104126276D02*
X114042075Y-104022963D01*
X114042075Y-104286536D02*
X114030434Y-104183223D01*
X114076413Y-104384669D02*
X114042075Y-104286536D01*
X114391408Y-104635869D02*
X114293275Y-104601531D01*
X114494721Y-104647510D02*
X114391408Y-104635869D01*
X116108806Y-104647510D02*
X114494721Y-104647510D01*
X116141022Y-104651139D02*
X116108806Y-104647510D01*
X116171623Y-104661847D02*
X116141022Y-104651139D01*
X115110424Y-103607478D02*
X115127673Y-103580027D01*
X116199074Y-104679096D02*
X116171623Y-104661847D01*
X116221999Y-104702021D02*
X116199074Y-104679096D01*
X116171623Y-104922732D02*
X116199074Y-104905483D01*
X116141022Y-104933440D02*
X116171623Y-104922732D01*
X116108806Y-104937070D02*
X116141022Y-104933440D01*
X114391408Y-104948710D02*
X114494721Y-104937070D01*
X114293275Y-104983048D02*
X114391408Y-104948710D01*
X114076413Y-105199910D02*
X114131727Y-105111878D01*
X114042075Y-105298043D02*
X114076413Y-105199910D01*
X114042075Y-105561616D02*
X114030434Y-105458303D01*
X116199074Y-104905483D02*
X116221999Y-104882558D01*
X114131727Y-105747781D02*
X114076413Y-105659749D01*
X114293275Y-105876611D02*
X114205243Y-105821297D01*
X114494721Y-105922590D02*
X114391408Y-105910949D01*
X116108806Y-105922590D02*
X114494721Y-105922590D01*
X116141022Y-105926219D02*
X116108806Y-105922590D01*
X116199074Y-105954176D02*
X116171623Y-105936927D01*
X116221999Y-105977101D02*
X116199074Y-105954176D01*
X114076413Y-105659749D02*
X114042075Y-105561616D01*
X116239248Y-106004552D02*
X116221999Y-105977101D01*
X116253586Y-104792290D02*
X116249956Y-104760073D01*
X116253586Y-106067370D02*
X116249956Y-106035153D01*
X116249956Y-106099586D02*
X116253586Y-106067370D01*
X116239248Y-106130187D02*
X116249956Y-106099586D01*
X114205243Y-105038362D02*
X114293275Y-104983048D01*
X116249956Y-104824506D02*
X116253586Y-104792290D01*
X116171623Y-106197812D02*
X116199074Y-106180563D01*
X114391408Y-107186029D02*
X114293275Y-107151691D01*
X115029447Y-103658360D02*
X115060048Y-103647652D01*
X116249956Y-104760073D02*
X116239248Y-104729472D01*
X114042075Y-106836696D02*
X114030434Y-106733383D01*
X116239248Y-104729472D02*
X116221999Y-104702021D01*
X116199074Y-107229256D02*
X116171623Y-107212007D01*
X116221999Y-107252181D02*
X116199074Y-107229256D01*
X114030434Y-106676436D02*
X114042075Y-106573123D01*
X115243302Y-107662038D02*
X115316818Y-107588522D01*
X116221999Y-104882558D02*
X116239248Y-104855107D01*
X114131727Y-105111878D02*
X114205243Y-105038362D01*
X114030434Y-104183223D02*
X114030434Y-104126276D01*
X114293275Y-104601531D02*
X114205243Y-104546217D01*
X116199074Y-106180563D02*
X116221999Y-106157638D01*
X115142010Y-112848070D02*
X115142010Y-107951516D01*
X114494721Y-103661990D02*
X114997230Y-103661990D01*
X114494721Y-104937070D02*
X116108806Y-104937070D01*
X114030434Y-105401356D02*
X114042075Y-105298043D01*
X116108806Y-107197670D02*
X114494721Y-107197670D01*
X117783930Y-115489990D02*
X115142010Y-112848070D01*
X114997230Y-103661990D02*
X115029447Y-103658360D01*
X115138381Y-103549426D02*
X115142010Y-103517210D01*
X115153650Y-107848203D02*
X115187988Y-107750070D01*
X115060048Y-103647652D02*
X115087499Y-103630403D01*
X115404850Y-107533208D02*
X115502983Y-107498870D01*
X115142010Y-82114070D02*
X113846930Y-80818990D01*
X116239248Y-104855107D02*
X116249956Y-104824506D01*
X114030434Y-105458303D02*
X114030434Y-105401356D01*
X116221999Y-106157638D02*
X116239248Y-106130187D01*
X115142010Y-107951516D02*
X115153650Y-107848203D01*
X114205243Y-104546217D02*
X114131727Y-104472701D01*
X139563990Y-114802070D02*
X138876070Y-115489990D01*
X114042075Y-106573123D02*
X114076413Y-106474990D01*
X115187988Y-107750070D02*
X115243302Y-107662038D01*
X139740000Y-114180000D02*
X139563990Y-114356010D01*
X116199074Y-107455643D02*
X116221999Y-107432718D01*
X114030434Y-106733383D02*
X114030434Y-106676436D01*
X116249956Y-106035153D02*
X116239248Y-106004552D01*
X116108806Y-106212150D02*
X116141022Y-106208520D01*
X114042075Y-104022963D02*
X114076413Y-103924830D01*
X116171623Y-105936927D02*
X116141022Y-105926219D01*
X139563990Y-114356010D02*
X139563990Y-114802070D01*
X114391408Y-106223790D02*
X114494721Y-106212150D01*
X116171623Y-107472892D02*
X116199074Y-107455643D01*
X115606296Y-107487230D02*
X116108806Y-107487230D01*
X114076413Y-106474990D02*
X114131727Y-106386958D01*
X138876070Y-115489990D02*
X117783930Y-115489990D01*
X114494721Y-107197670D02*
X114391408Y-107186029D01*
X114131727Y-107022861D02*
X114076413Y-106934829D01*
X86440010Y-80818990D02*
X86233000Y-81026000D01*
X114391408Y-105910949D02*
X114293275Y-105876611D01*
X115502983Y-107498870D02*
X115606296Y-107487230D01*
X116108806Y-107487230D02*
X116141022Y-107483600D01*
X116141022Y-107483600D02*
X116171623Y-107472892D01*
X116141022Y-106208520D02*
X116171623Y-106197812D01*
X116221999Y-107432718D02*
X116239248Y-107405267D01*
X116239248Y-107405267D02*
X116249956Y-107374666D01*
X116249956Y-107374666D02*
X116253586Y-107342450D01*
X116253586Y-107342450D02*
X116249956Y-107310233D01*
X116249956Y-107310233D02*
X116239248Y-107279632D01*
X116239248Y-107279632D02*
X116221999Y-107252181D01*
X116171623Y-107212007D02*
X116141022Y-107201299D01*
X114205243Y-105821297D02*
X114131727Y-105747781D01*
X115316818Y-107588522D02*
X115404850Y-107533208D01*
X116141022Y-107201299D02*
X116108806Y-107197670D01*
X114391408Y-103673630D02*
X114494721Y-103661990D01*
X114494721Y-106212150D02*
X116108806Y-106212150D01*
X114293275Y-107151691D02*
X114205243Y-107096377D01*
X114205243Y-107096377D02*
X114131727Y-107022861D01*
X114076413Y-106934829D02*
X114042075Y-106836696D01*
X114131727Y-104472701D02*
X114076413Y-104384669D01*
X114131727Y-106386958D02*
X114205243Y-106313442D01*
X114205243Y-106313442D02*
X114293275Y-106258128D01*
X114293275Y-106258128D02*
X114391408Y-106223790D01*
%TO.N,/Ethernet I/F/ETH_3_P*%
X80010000Y-80645000D02*
X80932020Y-81567020D01*
X80932020Y-81567020D02*
X81127920Y-81567020D01*
X82223930Y-80471010D02*
X86025990Y-80471010D01*
X81127920Y-81567020D02*
X82223930Y-80471010D01*
X86025990Y-80471010D02*
X86233000Y-80264000D01*
X139216010Y-114356010D02*
X139040000Y-114180000D01*
X138731930Y-115142010D02*
X139216010Y-114657930D01*
X115489990Y-112703930D02*
X117928070Y-115142010D01*
X115489990Y-107979990D02*
X115489990Y-112703930D01*
X115521576Y-107889721D02*
X115504327Y-107917172D01*
X116137279Y-107835210D02*
X115634770Y-107835210D01*
X116240592Y-107823569D02*
X116137279Y-107835210D01*
X116338725Y-107789231D02*
X116240592Y-107823569D01*
X116601566Y-107370923D02*
X116589925Y-107474236D01*
X116601566Y-107313976D02*
X116601566Y-107370923D01*
X116589925Y-107210663D02*
X116601566Y-107313976D01*
X116500273Y-107024498D02*
X116555587Y-107112530D01*
X116426757Y-106950982D02*
X116500273Y-107024498D01*
X116240592Y-106861330D02*
X116338725Y-106895668D01*
X114490978Y-106846060D02*
X114523194Y-106849690D01*
X114382044Y-106737126D02*
X114392752Y-106767727D01*
X114392752Y-106642092D02*
X114382044Y-106672693D01*
X116426757Y-107733917D02*
X116338725Y-107789231D01*
X114432926Y-106591716D02*
X114410001Y-106614641D01*
X114432926Y-106818103D02*
X114460377Y-106835352D01*
X114460377Y-106574467D02*
X114432926Y-106591716D01*
X114523194Y-106560130D02*
X114490978Y-106563759D01*
X115493619Y-107947773D02*
X115489990Y-107979990D01*
X116137279Y-106560130D02*
X114523194Y-106560130D01*
X116240592Y-106548489D02*
X116137279Y-106560130D01*
X116338725Y-106514151D02*
X116240592Y-106548489D01*
X116500273Y-106385321D02*
X116426757Y-106458837D01*
X116555587Y-106297289D02*
X116500273Y-106385321D01*
X115571952Y-107849547D02*
X115544501Y-107866796D01*
X116500273Y-107660401D02*
X116426757Y-107733917D01*
X114410001Y-106795178D02*
X114432926Y-106818103D01*
X116589925Y-106199156D02*
X116555587Y-106297289D01*
X116589925Y-105935583D02*
X116601566Y-106038896D01*
X116555587Y-105837450D02*
X116589925Y-105935583D01*
X139216010Y-114657930D02*
X139216010Y-114356010D01*
X116500273Y-105749418D02*
X116555587Y-105837450D01*
X116338725Y-105620588D02*
X116426757Y-105675902D01*
X116240592Y-105586250D02*
X116338725Y-105620588D01*
X116137279Y-105574610D02*
X116240592Y-105586250D01*
X114460377Y-105560272D02*
X114490978Y-105570980D01*
X114490978Y-106563759D02*
X114460377Y-106574467D01*
X114432926Y-105543023D02*
X114460377Y-105560272D01*
X114410001Y-105520098D02*
X114432926Y-105543023D01*
X114382044Y-105462046D02*
X114392752Y-105492647D01*
X114378414Y-106704910D02*
X114382044Y-106737126D01*
X115444012Y-103747129D02*
X115388698Y-103835161D01*
X94472025Y-80078280D02*
X94504656Y-80026349D01*
X115634770Y-107835210D02*
X115602553Y-107838839D01*
X115388698Y-103835161D02*
X115315182Y-103908677D01*
X114432926Y-105316636D02*
X114410001Y-105339561D01*
X114490978Y-105570980D02*
X114523194Y-105574610D01*
X115489990Y-81969930D02*
X115489990Y-103545683D01*
X114523194Y-106849690D02*
X116137279Y-106849690D01*
X114382044Y-104122533D02*
X114378414Y-104154750D01*
X115478350Y-103648996D02*
X115444012Y-103747129D01*
X113991070Y-80471010D02*
X115489990Y-81969930D01*
X86440010Y-80471010D02*
X94171010Y-80471010D01*
X114432926Y-104267943D02*
X114460377Y-104285192D01*
X114523194Y-104299530D02*
X116137279Y-104299530D01*
X115504327Y-107917172D02*
X115493619Y-107947773D01*
X116601566Y-106095843D02*
X116589925Y-106199156D01*
X94985147Y-80026349D02*
X95017778Y-80078280D01*
X115602553Y-107838839D02*
X115571952Y-107849547D01*
X95038034Y-80136171D02*
X95051769Y-80258065D01*
X94341778Y-80411256D02*
X94385147Y-80367887D01*
X116555587Y-104562370D02*
X116589925Y-104660503D01*
X94941778Y-79982980D02*
X94985147Y-80026349D01*
X117928070Y-115142010D02*
X138731930Y-115142010D01*
X94889847Y-79950349D02*
X94941778Y-79982980D01*
X95148025Y-80411256D02*
X95199956Y-80443887D01*
X114382044Y-106672693D02*
X114378414Y-106704910D01*
X116601566Y-104820763D02*
X116589925Y-104924076D01*
X94831956Y-79930093D02*
X94889847Y-79950349D01*
X95017778Y-80078280D02*
X95038034Y-80136171D01*
X95051769Y-80258065D02*
X95072025Y-80315956D01*
X114460377Y-105299387D02*
X114432926Y-105316636D01*
X94771010Y-79923225D02*
X94831956Y-79930093D01*
X114410001Y-104064481D02*
X114392752Y-104091932D01*
X95257847Y-80464143D02*
X95318794Y-80471010D01*
X94599956Y-79950349D02*
X94657847Y-79930093D01*
X94171010Y-80471010D02*
X94231956Y-80464143D01*
X94385147Y-80367887D02*
X94417778Y-80315956D01*
X115129017Y-103998329D02*
X115025704Y-104009970D01*
X116555587Y-107112530D02*
X116589925Y-107210663D01*
X114490978Y-104295900D02*
X114523194Y-104299530D01*
X94718794Y-79923225D02*
X94771010Y-79923225D01*
X94231956Y-80464143D02*
X94289847Y-80443887D01*
X114490978Y-105288679D02*
X114460377Y-105299387D01*
X95072025Y-80315956D02*
X95104656Y-80367887D01*
X114460377Y-106835352D02*
X114490978Y-106846060D01*
X116555587Y-105022209D02*
X116500273Y-105110241D01*
X116589925Y-107474236D02*
X116555587Y-107572369D01*
X94417778Y-80315956D02*
X94438034Y-80258065D01*
X116601566Y-104763816D02*
X116601566Y-104820763D01*
X94504656Y-80026349D02*
X94548025Y-79982980D01*
X116426757Y-104400822D02*
X116500273Y-104474338D01*
X94451769Y-80136171D02*
X94472025Y-80078280D01*
X114460377Y-104285192D02*
X114490978Y-104295900D01*
X94548025Y-79982980D02*
X94599956Y-79950349D01*
X94289847Y-80443887D02*
X94341778Y-80411256D01*
X86233000Y-80264000D02*
X86440010Y-80471010D01*
X116338725Y-104345508D02*
X116426757Y-104400822D01*
X94438034Y-80258065D02*
X94451769Y-80136171D01*
X115544501Y-107866796D02*
X115521576Y-107889721D01*
X114392752Y-106767727D02*
X114410001Y-106795178D01*
X94657847Y-79930093D02*
X94718794Y-79923225D01*
X116240592Y-105273409D02*
X116137279Y-105285050D01*
X115227150Y-103963991D02*
X115129017Y-103998329D01*
X114392752Y-105492647D02*
X114410001Y-105520098D01*
X115025704Y-104009970D02*
X114523194Y-104009970D01*
X116601566Y-106038896D02*
X116601566Y-106095843D01*
X114523194Y-104009970D02*
X114490978Y-104013599D01*
X116426757Y-105183757D02*
X116338725Y-105239071D01*
X116338725Y-106895668D02*
X116426757Y-106950982D01*
X114490978Y-104013599D02*
X114460377Y-104024307D01*
X114460377Y-104024307D02*
X114432926Y-104041556D01*
X114432926Y-104041556D02*
X114410001Y-104064481D01*
X95318794Y-80471010D02*
X113991070Y-80471010D01*
X114378414Y-104154750D02*
X114382044Y-104186966D01*
X114382044Y-104186966D02*
X114392752Y-104217567D01*
X114392752Y-104217567D02*
X114410001Y-104245018D01*
X95199956Y-80443887D02*
X95257847Y-80464143D01*
X114392752Y-104091932D02*
X114382044Y-104122533D01*
X116137279Y-104299530D02*
X116240592Y-104311170D01*
X115315182Y-103908677D02*
X115227150Y-103963991D01*
X114410001Y-104245018D02*
X114432926Y-104267943D01*
X116555587Y-107572369D02*
X116500273Y-107660401D01*
X116137279Y-106849690D02*
X116240592Y-106861330D01*
X115489990Y-103545683D02*
X115478350Y-103648996D01*
X114392752Y-105367012D02*
X114382044Y-105397613D01*
X116240592Y-104311170D02*
X116338725Y-104345508D01*
X116589925Y-104660503D02*
X116601566Y-104763816D01*
X116426757Y-106458837D02*
X116338725Y-106514151D01*
X116500273Y-104474338D02*
X116555587Y-104562370D01*
X114382044Y-105397613D02*
X114378414Y-105429830D01*
X114523194Y-105574610D02*
X116137279Y-105574610D01*
X116589925Y-104924076D02*
X116555587Y-105022209D01*
X114523194Y-105285050D02*
X114490978Y-105288679D01*
X116500273Y-105110241D02*
X116426757Y-105183757D01*
X114410001Y-106614641D02*
X114392752Y-106642092D01*
X116426757Y-105675902D02*
X116500273Y-105749418D01*
X116338725Y-105239071D02*
X116240592Y-105273409D01*
X116137279Y-105285050D02*
X114523194Y-105285050D01*
X114378414Y-105429830D02*
X114382044Y-105462046D01*
X95104656Y-80367887D02*
X95148025Y-80411256D01*
X114410001Y-105339561D02*
X114392752Y-105367012D01*
%TO.N,/Ethernet I/F/ETH_2_N*%
X79937930Y-79548990D02*
X83130070Y-79548990D01*
X79763940Y-79375000D02*
X79937930Y-79548990D01*
X77470000Y-79375000D02*
X79763940Y-79375000D01*
X86025990Y-79294990D02*
X86233000Y-79502000D01*
X83384070Y-79294990D02*
X86025990Y-79294990D01*
X83130070Y-79548990D02*
X83384070Y-79294990D01*
X140416010Y-113353990D02*
X140240000Y-113530000D01*
X140416010Y-111802070D02*
X140416010Y-113353990D01*
X118539423Y-89412981D02*
X118556672Y-89440432D01*
X118516498Y-89390056D02*
X118539423Y-89412981D01*
X118489047Y-89372807D02*
X118516498Y-89390056D01*
X118426230Y-89358470D02*
X118458446Y-89362099D01*
X117801770Y-89312491D02*
X117899903Y-89346829D01*
X118571010Y-101545070D02*
X128179930Y-111153990D01*
X117640222Y-89183661D02*
X117713738Y-89257177D01*
X117538930Y-88894183D02*
X117550570Y-88997496D01*
X117538930Y-88837236D02*
X117538930Y-88894183D01*
X117550570Y-88733923D02*
X117538930Y-88837236D01*
X117584908Y-88635790D02*
X117550570Y-88733923D01*
X117713738Y-88474242D02*
X117640222Y-88547758D01*
X118571010Y-89503250D02*
X118571010Y-101545070D01*
X117801770Y-88418928D02*
X117713738Y-88474242D01*
X117640222Y-88547758D02*
X117584908Y-88635790D01*
X118003216Y-88372950D02*
X117899903Y-88384590D01*
X119490527Y-88369320D02*
X119458310Y-88372950D01*
X119521128Y-88358612D02*
X119490527Y-88369320D01*
X119588753Y-88290987D02*
X119571504Y-88318438D01*
X119599461Y-88260386D02*
X119588753Y-88290987D01*
X119588753Y-88165352D02*
X119599461Y-88195953D01*
X119548579Y-88341363D02*
X119521128Y-88358612D01*
X119571504Y-88137901D02*
X119588753Y-88165352D01*
X119548579Y-88114976D02*
X119571504Y-88137901D01*
X119490527Y-88087019D02*
X119521128Y-88097727D01*
X117899903Y-88071749D02*
X118003216Y-88083390D01*
X117640222Y-87908581D02*
X117713738Y-87982097D01*
X117550570Y-87722416D02*
X117584908Y-87820549D01*
X117538930Y-87619103D02*
X117550570Y-87722416D01*
X118571010Y-81733070D02*
X118571010Y-85678010D01*
X91275749Y-79507935D02*
X91296005Y-79450044D01*
X119458310Y-88372950D02*
X118003216Y-88372950D01*
X117538930Y-87562156D02*
X117538930Y-87619103D01*
X91542774Y-79294990D02*
X116132930Y-79294990D01*
X117801770Y-88037411D02*
X117899903Y-88071749D01*
X91241758Y-79687720D02*
X91262014Y-79629829D01*
X90662014Y-79507935D02*
X90675749Y-79629829D01*
X117899903Y-85834430D02*
X117801770Y-85868768D01*
X117899903Y-86796669D02*
X118003216Y-86808310D01*
X91328636Y-79398113D02*
X91372005Y-79354744D01*
X119521128Y-88097727D02*
X119548579Y-88114976D01*
X91165758Y-79783020D02*
X91209127Y-79739651D01*
X117584908Y-89095629D02*
X117640222Y-89183661D01*
X91372005Y-79354744D02*
X91423936Y-79322113D01*
X91423936Y-79322113D02*
X91481827Y-79301857D01*
X119571504Y-86862821D02*
X119588753Y-86890272D01*
X117899903Y-88384590D02*
X117801770Y-88418928D01*
X119458310Y-88083390D02*
X119490527Y-88087019D01*
X116132930Y-79294990D02*
X118571010Y-81733070D01*
X91262014Y-79629829D02*
X91275749Y-79507935D01*
X128179930Y-111153990D02*
X139767930Y-111153990D01*
X117640222Y-87272678D02*
X117584908Y-87360710D01*
X118556672Y-85740827D02*
X118539423Y-85768278D01*
X118539423Y-85768278D02*
X118516498Y-85791203D01*
X118458446Y-85819160D02*
X118426230Y-85822790D01*
X119599461Y-86920873D02*
X119603090Y-86953090D01*
X119599461Y-88195953D02*
X119603090Y-88228170D01*
X117584908Y-87820549D02*
X117640222Y-87908581D01*
X90455936Y-79301857D02*
X90513827Y-79322113D01*
X91296005Y-79450044D02*
X91328636Y-79398113D01*
X90513827Y-79322113D02*
X90565758Y-79354744D01*
X90675749Y-79629829D02*
X90696005Y-79687720D01*
X118571010Y-85678010D02*
X118567380Y-85710226D01*
X118516498Y-85791203D02*
X118489047Y-85808452D01*
X90641758Y-79450044D02*
X90662014Y-79507935D01*
X91113827Y-79815651D02*
X91165758Y-79783020D01*
X90394990Y-79294990D02*
X90455936Y-79301857D01*
X86233000Y-79502000D02*
X86440010Y-79294990D01*
X91055936Y-79835907D02*
X91113827Y-79815651D01*
X117713738Y-89257177D02*
X117801770Y-89312491D01*
X91209127Y-79739651D02*
X91241758Y-79687720D01*
X90772005Y-79783020D02*
X90823936Y-79815651D01*
X90881827Y-79835907D02*
X90942774Y-79842775D01*
X118003216Y-88083390D02*
X119458310Y-88083390D01*
X119490527Y-87094240D02*
X119458310Y-87097870D01*
X90823936Y-79815651D02*
X90881827Y-79835907D01*
X117584908Y-86085630D02*
X117550570Y-86183763D01*
X90696005Y-79687720D02*
X90728636Y-79739651D01*
X119571504Y-87043358D02*
X119548579Y-87066283D01*
X90942774Y-79842775D02*
X90994990Y-79842775D01*
X118489047Y-85808452D02*
X118458446Y-85819160D01*
X118426230Y-85822790D02*
X118003216Y-85822790D01*
X117713738Y-87982097D02*
X117801770Y-88037411D01*
X90565758Y-79354744D02*
X90609127Y-79398113D01*
X117550570Y-86183763D02*
X117538930Y-86287076D01*
X118003216Y-85822790D02*
X117899903Y-85834430D01*
X118567380Y-85710226D02*
X118556672Y-85740827D01*
X117801770Y-85868768D02*
X117713738Y-85924082D01*
X139767930Y-111153990D02*
X140416010Y-111802070D01*
X117538930Y-86287076D02*
X117538930Y-86344023D01*
X117713738Y-86707017D02*
X117801770Y-86762331D01*
X117538930Y-86344023D02*
X117550570Y-86447336D01*
X118003216Y-89358470D02*
X118426230Y-89358470D01*
X117640222Y-86633501D02*
X117713738Y-86707017D01*
X117713738Y-85924082D02*
X117640222Y-85997598D01*
X119458310Y-86808310D02*
X119490527Y-86811939D01*
X117550570Y-86447336D02*
X117584908Y-86545469D01*
X117801770Y-86762331D02*
X117899903Y-86796669D01*
X90728636Y-79739651D02*
X90772005Y-79783020D01*
X119490527Y-86811939D02*
X119521128Y-86822647D01*
X118458446Y-89362099D02*
X118489047Y-89372807D01*
X117550570Y-88997496D02*
X117584908Y-89095629D01*
X90609127Y-79398113D02*
X90641758Y-79450044D01*
X117713738Y-87199162D02*
X117640222Y-87272678D01*
X118556672Y-89440432D02*
X118567380Y-89471033D01*
X119521128Y-86822647D02*
X119548579Y-86839896D01*
X119571504Y-88318438D02*
X119548579Y-88341363D01*
X119521128Y-87083532D02*
X119490527Y-87094240D01*
X118567380Y-89471033D02*
X118571010Y-89503250D01*
X91481827Y-79301857D02*
X91542774Y-79294990D01*
X119548579Y-86839896D02*
X119571504Y-86862821D01*
X117899903Y-89346829D02*
X118003216Y-89358470D01*
X119588753Y-86890272D02*
X119599461Y-86920873D01*
X90994990Y-79842775D02*
X91055936Y-79835907D01*
X117640222Y-85997598D02*
X117584908Y-86085630D01*
X117584908Y-86545469D02*
X117640222Y-86633501D01*
X119603090Y-86953090D02*
X119599461Y-86985306D01*
X119599461Y-86985306D02*
X119588753Y-87015907D01*
X119588753Y-87015907D02*
X119571504Y-87043358D01*
X119548579Y-87066283D02*
X119521128Y-87083532D01*
X119603090Y-88228170D02*
X119599461Y-88260386D01*
X119458310Y-87097870D02*
X118003216Y-87097870D01*
X118003216Y-87097870D02*
X117899903Y-87109510D01*
X117899903Y-87109510D02*
X117801770Y-87143848D01*
X86440010Y-79294990D02*
X90394990Y-79294990D01*
X117801770Y-87143848D02*
X117713738Y-87199162D01*
X117584908Y-87360710D02*
X117550570Y-87458843D01*
X118003216Y-86808310D02*
X119458310Y-86808310D01*
X117550570Y-87458843D02*
X117538930Y-87562156D01*
%TO.N,/Ethernet I/F/ETH_2_P*%
X80010000Y-79128940D02*
X80082070Y-79201010D01*
X80010000Y-78105000D02*
X80010000Y-79128940D01*
X80082070Y-79201010D02*
X82985930Y-79201010D01*
X86025990Y-78947010D02*
X86233000Y-78740000D01*
X82985930Y-79201010D02*
X83239930Y-78947010D01*
X83239930Y-78947010D02*
X86025990Y-78947010D01*
X119486784Y-88720930D02*
X118031690Y-88720930D01*
X117968872Y-88735267D02*
X117941421Y-88752516D01*
X117968872Y-86185107D02*
X117941421Y-86202356D01*
X119905092Y-88458089D02*
X119849778Y-88546121D01*
X140763990Y-113353990D02*
X140940000Y-113530000D01*
X119939430Y-88359956D02*
X119905092Y-88458089D01*
X119939430Y-88096383D02*
X119951070Y-88199696D01*
X119849778Y-87910218D02*
X119905092Y-87998250D01*
X119776262Y-87836702D02*
X119849778Y-87910218D01*
X119688230Y-87781388D02*
X119776262Y-87836702D01*
X117941421Y-88752516D02*
X117918496Y-88775441D01*
X119486784Y-87445850D02*
X118031690Y-87445850D01*
X119590097Y-88709289D02*
X119486784Y-88720930D01*
X116277070Y-78947010D02*
X118918990Y-81588930D01*
X118031690Y-89010490D02*
X118454703Y-89010490D01*
X119951070Y-88256643D02*
X119939430Y-88359956D01*
X118031690Y-86170770D02*
X117999473Y-86174399D01*
X117918496Y-87680898D02*
X117941421Y-87703823D01*
X117890539Y-87558413D02*
X117886910Y-87590630D01*
X117918496Y-87500361D02*
X117901247Y-87527812D01*
X119939430Y-87084876D02*
X119905092Y-87183009D01*
X117999473Y-87449479D02*
X117968872Y-87460187D01*
X119486784Y-87735410D02*
X119590097Y-87747050D01*
X117968872Y-87721072D02*
X117999473Y-87731780D01*
X119905092Y-87183009D02*
X119849778Y-87271041D01*
X118031690Y-87735410D02*
X119486784Y-87735410D01*
X117890539Y-87622846D02*
X117901247Y-87653447D01*
X119849778Y-88546121D02*
X119776262Y-88619637D01*
X118817697Y-85995961D02*
X118744181Y-86069477D01*
X118873011Y-89273330D02*
X118907349Y-89371463D01*
X118558016Y-86159129D02*
X118454703Y-86170770D01*
X117918496Y-88955978D02*
X117941421Y-88978903D01*
X118817697Y-89185298D02*
X118873011Y-89273330D01*
X119849778Y-87271041D02*
X119776262Y-87344557D01*
X119849778Y-86635138D02*
X119905092Y-86723170D01*
X118656149Y-86124791D02*
X118558016Y-86159129D01*
X117886910Y-87590630D02*
X117890539Y-87622846D01*
X119590097Y-87434209D02*
X119486784Y-87445850D01*
X117901247Y-87653447D02*
X117918496Y-87680898D01*
X118744181Y-86069477D02*
X118656149Y-86124791D01*
X117901247Y-86378367D02*
X117918496Y-86405818D01*
X117999473Y-87731780D02*
X118031690Y-87735410D01*
X86440010Y-78947010D02*
X116277070Y-78947010D01*
X117901247Y-86252732D02*
X117890539Y-86283333D01*
X119688230Y-88674951D02*
X119590097Y-88709289D01*
X117968872Y-86445992D02*
X117999473Y-86456700D01*
X117901247Y-87527812D02*
X117890539Y-87558413D01*
X119776262Y-86561622D02*
X119849778Y-86635138D01*
X117941421Y-86202356D02*
X117918496Y-86225281D01*
X118744181Y-89111782D02*
X118817697Y-89185298D01*
X118918990Y-101400930D02*
X128324070Y-110806010D01*
X118918990Y-85706483D02*
X118907349Y-85809796D01*
X86233000Y-78740000D02*
X86440010Y-78947010D01*
X117890539Y-86347766D02*
X117901247Y-86378367D01*
X117918496Y-86225281D02*
X117901247Y-86252732D01*
X118873011Y-85907929D02*
X118817697Y-85995961D01*
X118031690Y-86460330D02*
X119486784Y-86460330D01*
X119688230Y-87399871D02*
X119590097Y-87434209D01*
X117890539Y-86283333D02*
X117886910Y-86315550D01*
X119590097Y-86471970D02*
X119688230Y-86506308D01*
X117999473Y-89006860D02*
X118031690Y-89010490D01*
X117918496Y-86405818D02*
X117941421Y-86428743D01*
X117941421Y-86428743D02*
X117968872Y-86445992D01*
X117968872Y-87460187D02*
X117941421Y-87477436D01*
X119905092Y-86723170D02*
X119939430Y-86821303D01*
X118907349Y-85809796D02*
X118873011Y-85907929D01*
X119590097Y-87747050D02*
X119688230Y-87781388D01*
X118454703Y-86170770D02*
X118031690Y-86170770D01*
X118558016Y-89022130D02*
X118656149Y-89056468D01*
X119951070Y-86924616D02*
X119951070Y-86981563D01*
X119688230Y-86506308D02*
X119776262Y-86561622D01*
X119776262Y-88619637D02*
X119688230Y-88674951D01*
X117886910Y-86315550D02*
X117890539Y-86347766D01*
X119939430Y-86821303D02*
X119951070Y-86924616D01*
X117941421Y-87477436D02*
X117918496Y-87500361D01*
X117918496Y-88775441D02*
X117901247Y-88802892D01*
X117941421Y-87703823D02*
X117968872Y-87721072D01*
X117901247Y-88802892D02*
X117890539Y-88833493D01*
X117890539Y-88833493D02*
X117886910Y-88865710D01*
X118918990Y-81588930D02*
X118918990Y-85706483D01*
X117886910Y-88865710D02*
X117890539Y-88897926D01*
X117890539Y-88897926D02*
X117901247Y-88928527D01*
X117901247Y-88928527D02*
X117918496Y-88955978D01*
X117941421Y-88978903D02*
X117968872Y-88996152D01*
X119905092Y-87998250D02*
X119939430Y-88096383D01*
X117968872Y-88996152D02*
X117999473Y-89006860D01*
X118454703Y-89010490D02*
X118558016Y-89022130D01*
X119951070Y-88199696D02*
X119951070Y-88256643D01*
X117999473Y-86174399D02*
X117968872Y-86185107D01*
X118907349Y-89371463D02*
X118918990Y-89474776D01*
X118656149Y-89056468D02*
X118744181Y-89111782D01*
X118031690Y-87445850D02*
X117999473Y-87449479D01*
X118031690Y-88720930D02*
X117999473Y-88724559D01*
X119776262Y-87344557D02*
X119688230Y-87399871D01*
X118918990Y-89474776D02*
X118918990Y-101400930D01*
X128324070Y-110806010D02*
X139912070Y-110806010D01*
X139912070Y-110806010D02*
X140763990Y-111657930D01*
X119951070Y-86981563D02*
X119939430Y-87084876D01*
X117999473Y-86456700D02*
X118031690Y-86460330D01*
X140763990Y-111657930D02*
X140763990Y-113353990D01*
X119486784Y-86460330D02*
X119590097Y-86471970D01*
X117999473Y-88724559D02*
X117968872Y-88735267D01*
%TO.N,/Ethernet I/F/ETH_1_N*%
X86233000Y-72898000D02*
X86233000Y-73025000D01*
X80572669Y-72071609D02*
X81606070Y-73105010D01*
X78740000Y-75565000D02*
X78740000Y-74168000D01*
X78740000Y-74168000D02*
X79056609Y-73851391D01*
X77470000Y-76835000D02*
X78740000Y-75565000D01*
X79056609Y-73851391D02*
X79056609Y-72581391D01*
X79056609Y-72581391D02*
X79566391Y-72071609D01*
X79566391Y-72071609D02*
X80572669Y-72071609D01*
X127452349Y-83757623D02*
X127463990Y-83860936D01*
X127418011Y-83659490D02*
X127452349Y-83757623D01*
X127362697Y-83571458D02*
X127418011Y-83659490D01*
X127289181Y-83497942D02*
X127362697Y-83571458D01*
X126293629Y-83284086D02*
X126304337Y-83314687D01*
X126290000Y-83251870D02*
X126293629Y-83284086D01*
X126402563Y-83110719D02*
X126371962Y-83121427D01*
X126434780Y-83107090D02*
X126402563Y-83110719D01*
X128277007Y-83095449D02*
X128173694Y-83107090D01*
X128626340Y-82482543D02*
X128637980Y-82585856D01*
X126344511Y-82089983D02*
X126371962Y-82107232D01*
X126304337Y-82039607D02*
X126321586Y-82067058D01*
X126293629Y-82009006D02*
X126304337Y-82039607D01*
X126290000Y-81976790D02*
X126293629Y-82009006D01*
X126293629Y-81944573D02*
X126290000Y-81976790D01*
X126344511Y-81863596D02*
X126321586Y-81886521D01*
X126371962Y-81846347D02*
X126344511Y-81863596D01*
X126402563Y-81835639D02*
X126371962Y-81846347D01*
X126434780Y-81832010D02*
X126402563Y-81835639D01*
X128173694Y-81832010D02*
X126434780Y-81832010D01*
X128375140Y-81786031D02*
X128277007Y-81820369D01*
X128463172Y-81730717D02*
X128375140Y-81786031D01*
X128592002Y-82844249D02*
X128536688Y-82932281D01*
X128637980Y-81367723D02*
X128626340Y-81471036D01*
X128173694Y-83107090D02*
X126434780Y-83107090D01*
X128637980Y-81310776D02*
X128637980Y-81367723D01*
X128626340Y-81207463D02*
X128637980Y-81310776D01*
X128592002Y-81109330D02*
X128626340Y-81207463D01*
X128536688Y-81021298D02*
X128592002Y-81109330D01*
X128375140Y-80892468D02*
X128463172Y-80947782D01*
X128375140Y-83061111D02*
X128277007Y-83095449D01*
X128277007Y-80858130D02*
X128375140Y-80892468D01*
X128463172Y-83005797D02*
X128375140Y-83061111D01*
X128173694Y-80846490D02*
X128277007Y-80858130D01*
X127463990Y-87457930D02*
X139563990Y-99557930D01*
X126434780Y-80846490D02*
X128173694Y-80846490D01*
X126371962Y-80832152D02*
X126402563Y-80842860D01*
X126344511Y-80814903D02*
X126371962Y-80832152D01*
X126321586Y-80791978D02*
X126344511Y-80814903D01*
X126304337Y-80764527D02*
X126321586Y-80791978D01*
X126293629Y-80733926D02*
X126304337Y-80764527D01*
X126290000Y-80701710D02*
X126293629Y-80733926D01*
X126293629Y-80669493D02*
X126290000Y-80701710D01*
X126304337Y-80638892D02*
X126293629Y-80669493D01*
X126321586Y-80611441D02*
X126304337Y-80638892D01*
X126344511Y-80588516D02*
X126321586Y-80611441D01*
X126371962Y-80571267D02*
X126344511Y-80588516D01*
X126402563Y-80560559D02*
X126371962Y-80571267D01*
X126434780Y-80556930D02*
X126402563Y-80560559D01*
X128173694Y-80556930D02*
X126434780Y-80556930D01*
X128375140Y-80510951D02*
X128277007Y-80545289D01*
X128463172Y-80455637D02*
X128375140Y-80510951D01*
X128536688Y-80382121D02*
X128463172Y-80455637D01*
X128626340Y-80195956D02*
X128592002Y-80294089D01*
X126321586Y-81886521D02*
X126304337Y-81913972D01*
X128637980Y-80092643D02*
X128626340Y-80195956D01*
X128592002Y-79834250D02*
X128626340Y-79932383D01*
X128536688Y-79746218D02*
X128592002Y-79834250D01*
X128463172Y-79672702D02*
X128536688Y-79746218D01*
X128375140Y-79617388D02*
X128463172Y-79672702D01*
X126293629Y-83219653D02*
X126290000Y-83251870D01*
X128277007Y-79583050D02*
X128375140Y-79617388D01*
X126321586Y-83161601D02*
X126304337Y-83189052D01*
X126434780Y-79571410D02*
X128173694Y-79571410D01*
X126344511Y-83138676D02*
X126321586Y-83161601D01*
X126402563Y-79567780D02*
X126434780Y-79571410D01*
X126371962Y-83121427D02*
X126344511Y-83138676D01*
X126371962Y-79557072D02*
X126402563Y-79567780D01*
X126344511Y-79539823D02*
X126371962Y-79557072D01*
X126321586Y-79516898D02*
X126344511Y-79539823D01*
X126304337Y-79489447D02*
X126321586Y-79516898D01*
X126293629Y-79394413D02*
X126290000Y-79426630D01*
X126304337Y-79363812D02*
X126293629Y-79394413D01*
X126321586Y-79336361D02*
X126304337Y-79363812D01*
X126344511Y-79313436D02*
X126321586Y-79336361D01*
X126434780Y-79281850D02*
X126402563Y-79285479D01*
X128173694Y-79281850D02*
X126434780Y-79281850D01*
X128277007Y-79270209D02*
X128173694Y-79281850D01*
X128463172Y-78397622D02*
X128536688Y-78471138D01*
X126434780Y-78296330D02*
X128173694Y-78296330D01*
X126402563Y-78292700D02*
X126434780Y-78296330D01*
X126321586Y-78241818D02*
X126344511Y-78264743D01*
X126293629Y-78183766D02*
X126304337Y-78214367D01*
X126371962Y-78021107D02*
X126344511Y-78038356D01*
X127201149Y-77960791D02*
X127103016Y-77995129D01*
X126371962Y-78281992D02*
X126402563Y-78292700D01*
X127452349Y-77645796D02*
X127418011Y-77743929D01*
X128375140Y-82167548D02*
X128463172Y-82222862D01*
X128536688Y-79107041D02*
X128463172Y-79180557D01*
X126321586Y-83342138D02*
X126344511Y-83365063D01*
X127463990Y-77542483D02*
X127452349Y-77645796D01*
X128626340Y-79932383D02*
X128637980Y-80035696D01*
X139563990Y-107553990D02*
X139740000Y-107730000D01*
X128536688Y-78471138D02*
X128592002Y-78559170D01*
X126402563Y-80842860D02*
X126434780Y-80846490D01*
X128592002Y-79019009D02*
X128536688Y-79107041D01*
X128277007Y-80545289D02*
X128173694Y-80556930D01*
X128375140Y-79235871D02*
X128277007Y-79270209D01*
X126304337Y-83189052D02*
X126293629Y-83219653D01*
X128173694Y-79571410D02*
X128277007Y-79583050D01*
X128536688Y-81657201D02*
X128463172Y-81730717D01*
X128463172Y-82222862D02*
X128536688Y-82296378D01*
X127463990Y-83860936D02*
X127463990Y-87457930D01*
X126371962Y-79296187D02*
X126344511Y-79313436D01*
X126371962Y-83382312D02*
X126402563Y-83393020D01*
X128637980Y-80035696D02*
X128637980Y-80092643D01*
X128637980Y-78817563D02*
X128626340Y-78920876D01*
X126434780Y-82121570D02*
X128173694Y-82121570D01*
X126293629Y-78119333D02*
X126290000Y-78151550D01*
X128173694Y-78296330D02*
X128277007Y-78307970D01*
X128592002Y-80294089D02*
X128536688Y-80382121D01*
X128375140Y-78342308D02*
X128463172Y-78397622D01*
X128592002Y-82384410D02*
X128626340Y-82482543D01*
X126371962Y-82107232D02*
X126402563Y-82117940D01*
X128536688Y-82296378D02*
X128592002Y-82384410D01*
X127463990Y-75401930D02*
X127463990Y-77542483D01*
X126304337Y-78088732D02*
X126293629Y-78119333D01*
X128637980Y-82585856D02*
X128637980Y-82642803D01*
X126344511Y-78038356D02*
X126321586Y-78061281D01*
X127289181Y-77905477D02*
X127201149Y-77960791D01*
X128463172Y-79180557D02*
X128375140Y-79235871D01*
X128277007Y-78307970D02*
X128375140Y-78342308D01*
X128626340Y-82746116D02*
X128592002Y-82844249D01*
X127362697Y-77831961D02*
X127289181Y-77905477D01*
X127201149Y-83442628D02*
X127289181Y-83497942D01*
X127103016Y-77995129D02*
X126999703Y-78006770D01*
X126344511Y-83365063D02*
X126371962Y-83382312D01*
X126999703Y-83396650D02*
X127103016Y-83408290D01*
X128463172Y-80947782D02*
X128536688Y-81021298D01*
X126321586Y-82067058D02*
X126344511Y-82089983D01*
X128173694Y-82121570D02*
X128277007Y-82133210D01*
X128592002Y-78559170D02*
X128626340Y-78657303D01*
X128626340Y-78657303D02*
X128637980Y-78760616D01*
X128536688Y-82932281D02*
X128463172Y-83005797D01*
X128637980Y-78760616D02*
X128637980Y-78817563D01*
X128626340Y-78920876D02*
X128592002Y-79019009D01*
X126402563Y-79285479D02*
X126371962Y-79296187D01*
X126290000Y-79426630D02*
X126293629Y-79458846D01*
X126293629Y-79458846D02*
X126304337Y-79489447D01*
X126402563Y-82117940D02*
X126434780Y-82121570D01*
X128277007Y-82133210D02*
X128375140Y-82167548D01*
X128637980Y-82642803D02*
X128626340Y-82746116D01*
X127418011Y-77743929D02*
X127362697Y-77831961D01*
X126321586Y-78061281D02*
X126304337Y-78088732D01*
X126304337Y-83314687D02*
X126321586Y-83342138D01*
X126402563Y-83393020D02*
X126434780Y-83396650D01*
X126434780Y-83396650D02*
X126999703Y-83396650D01*
X127103016Y-83408290D02*
X127201149Y-83442628D01*
X126290000Y-78151550D02*
X126293629Y-78183766D01*
X128626340Y-81471036D02*
X128592002Y-81569169D01*
X128592002Y-81569169D02*
X128536688Y-81657201D01*
X126304337Y-78214367D02*
X126321586Y-78241818D01*
X139563990Y-99557930D02*
X139563990Y-107553990D01*
X126999703Y-78006770D02*
X126434780Y-78006770D01*
X126434780Y-78006770D02*
X126402563Y-78010399D01*
X126344511Y-78264743D02*
X126371962Y-78281992D01*
X128277007Y-81820369D02*
X128173694Y-81832010D01*
X126304337Y-81913972D02*
X126293629Y-81944573D01*
X126402563Y-78010399D02*
X126371962Y-78021107D01*
X125167070Y-73105010D02*
X127463990Y-75401930D01*
X86440010Y-73105010D02*
X86233000Y-72898000D01*
X125167070Y-73105010D02*
X86440010Y-73105010D01*
X86025990Y-73105010D02*
X86233000Y-72898000D01*
X81606070Y-73105010D02*
X86025990Y-73105010D01*
%TO.N,/Ethernet I/F/ETH_1_P*%
X86233000Y-73660000D02*
X86233000Y-73499980D01*
X81461930Y-73452990D02*
X81029970Y-73021030D01*
X81026000Y-73025000D02*
X81029970Y-73021030D01*
X80010000Y-73025000D02*
X81026000Y-73025000D01*
X81461930Y-73452990D02*
X86025990Y-73452990D01*
X86025990Y-73452990D02*
X86233000Y-73660000D01*
X126043312Y-83569821D02*
X126116828Y-83643337D01*
X125987998Y-83481789D02*
X126043312Y-83569821D01*
X125953660Y-83383656D02*
X125987998Y-83481789D01*
X125942020Y-83280343D02*
X125953660Y-83383656D01*
X125942020Y-83223396D02*
X125942020Y-83280343D01*
X125953660Y-83120083D02*
X125942020Y-83223396D01*
X125987998Y-83021950D02*
X125953660Y-83120083D01*
X126043312Y-82933918D02*
X125987998Y-83021950D01*
X126116828Y-82860402D02*
X126043312Y-82933918D01*
X126204860Y-82805088D02*
X126116828Y-82860402D01*
X125953660Y-79294843D02*
X125942020Y-79398156D01*
X125942020Y-81948316D02*
X125942020Y-82005263D01*
X126043312Y-79744581D02*
X126116828Y-79818097D01*
X125953660Y-81845003D02*
X125942020Y-81948316D01*
X125987998Y-79656549D02*
X126043312Y-79744581D01*
X91994794Y-74000775D02*
X92047010Y-74000775D01*
X126406306Y-81194470D02*
X128145220Y-81194470D01*
X128235489Y-78902283D02*
X128208038Y-78919532D01*
X128258414Y-78879358D02*
X128235489Y-78902283D01*
X128290000Y-78789090D02*
X128286371Y-78821306D01*
X128275663Y-78726272D02*
X128286371Y-78756873D01*
X128258414Y-78698821D02*
X128275663Y-78726272D01*
X92217778Y-73941020D02*
X92261147Y-73897651D01*
X125987998Y-78381469D02*
X126043312Y-78469501D01*
X126204860Y-83698651D02*
X126302993Y-83732989D01*
X125987998Y-82206709D02*
X126043312Y-82294741D01*
X125953660Y-78283336D02*
X125987998Y-78381469D01*
X126204860Y-80254928D02*
X126116828Y-80310242D01*
X128286371Y-78821306D02*
X128275663Y-78851907D01*
X125942020Y-78180023D02*
X125953660Y-78283336D01*
X125987998Y-77921630D02*
X125953660Y-78019763D01*
X125987998Y-81746870D02*
X125953660Y-81845003D01*
X126043312Y-77833598D02*
X125987998Y-77921630D01*
X126043312Y-81658838D02*
X125987998Y-81746870D01*
X126116828Y-77760082D02*
X126043312Y-77833598D01*
X126204860Y-77704768D02*
X126116828Y-77760082D01*
X126204860Y-78598331D02*
X126302993Y-78632669D01*
X126116828Y-78543017D02*
X126204860Y-78598331D01*
X127116010Y-87602070D02*
X139216010Y-99702070D01*
X126406306Y-77658790D02*
X126302993Y-77670430D01*
X126116828Y-79035162D02*
X126043312Y-79108678D01*
X128177437Y-81198099D02*
X128208038Y-81208807D01*
X92348025Y-73608044D02*
X92380656Y-73556113D01*
X128275663Y-78851907D02*
X128258414Y-78879358D01*
X86440010Y-73452990D02*
X91447010Y-73452990D01*
X125953660Y-79558416D02*
X125987998Y-79656549D01*
X91933847Y-73993907D02*
X91994794Y-74000775D01*
X126043312Y-81019661D02*
X126116828Y-81093177D01*
X126971230Y-83744630D02*
X127003446Y-83748259D01*
X126406306Y-78933870D02*
X126302993Y-78945510D01*
X126302993Y-78632669D02*
X126406306Y-78644310D01*
X126302993Y-82770750D02*
X126204860Y-82805088D01*
X128235489Y-78675896D02*
X128258414Y-78698821D01*
X91714034Y-73665935D02*
X91727769Y-73787829D01*
X127116010Y-83889410D02*
X127116010Y-87602070D01*
X126971230Y-77658790D02*
X126406306Y-77658790D01*
X126302993Y-78945510D02*
X126204860Y-78979848D01*
X92165847Y-73973651D02*
X92217778Y-73941020D01*
X91507956Y-73459857D02*
X91565847Y-73480113D01*
X91661147Y-73556113D02*
X91693778Y-73608044D01*
X125942020Y-79398156D02*
X125942020Y-79455103D01*
X128286371Y-78756873D02*
X128290000Y-78789090D01*
X92293778Y-73845720D02*
X92314034Y-73787829D01*
X125942020Y-80673236D02*
X125942020Y-80730183D01*
X91780656Y-73897651D02*
X91824025Y-73941020D01*
X91748025Y-73845720D02*
X91780656Y-73897651D01*
X128177437Y-78647939D02*
X128208038Y-78658647D01*
X127112380Y-83857193D02*
X127116010Y-83889410D01*
X127003446Y-77655160D02*
X126971230Y-77658790D01*
X91617778Y-73512744D02*
X91661147Y-73556113D01*
X128145220Y-78644310D02*
X128177437Y-78647939D01*
X127034047Y-77644452D02*
X127003446Y-77655160D01*
X91447010Y-73452990D02*
X91507956Y-73459857D01*
X92327769Y-73665935D02*
X92348025Y-73608044D01*
X126406306Y-78644310D02*
X128145220Y-78644310D01*
X128208038Y-78658647D02*
X128235489Y-78675896D01*
X92380656Y-73556113D02*
X92424025Y-73512744D01*
X91693778Y-73608044D02*
X91714034Y-73665935D01*
X92424025Y-73512744D02*
X92475956Y-73480113D01*
X126204860Y-78979848D02*
X126116828Y-79035162D01*
X92475956Y-73480113D02*
X92533847Y-73459857D01*
X86233000Y-73660000D02*
X86440010Y-73452990D01*
X128208038Y-81208807D02*
X128235489Y-81226056D01*
X92533847Y-73459857D02*
X92594794Y-73452990D01*
X125942020Y-78123076D02*
X125942020Y-78180023D01*
X128177437Y-78930240D02*
X128145220Y-78933870D01*
X125022930Y-73452990D02*
X127116010Y-75546070D01*
X126302993Y-81182829D02*
X126406306Y-81194470D01*
X125953660Y-78019763D02*
X125942020Y-78123076D01*
X91875956Y-73973651D02*
X91933847Y-73993907D01*
X128208038Y-78919532D02*
X128177437Y-78930240D01*
X92594794Y-73452990D02*
X125022930Y-73452990D01*
X126204860Y-81148491D02*
X126302993Y-81182829D01*
X126043312Y-78469501D02*
X126116828Y-78543017D01*
X126302993Y-83732989D02*
X126406306Y-83744630D01*
X126043312Y-82294741D02*
X126116828Y-82368257D01*
X92314034Y-73787829D02*
X92327769Y-73665935D01*
X128235489Y-79950976D02*
X128258414Y-79973901D01*
X126204860Y-82423571D02*
X126302993Y-82457909D01*
X127116010Y-77514010D02*
X127112380Y-77546226D01*
X128177437Y-79923019D02*
X128208038Y-79933727D01*
X125942020Y-79455103D02*
X125953660Y-79558416D01*
X92047010Y-74000775D02*
X92107956Y-73993907D01*
X126204860Y-79873411D02*
X126302993Y-79907749D01*
X126406306Y-79919390D02*
X128145220Y-79919390D01*
X126406306Y-83744630D02*
X126971230Y-83744630D01*
X128145220Y-78933870D02*
X126406306Y-78933870D01*
X127116010Y-75546070D02*
X127116010Y-77514010D01*
X126116828Y-82368257D02*
X126204860Y-82423571D01*
X128145220Y-79919390D02*
X128177437Y-79923019D01*
X92261147Y-73897651D02*
X92293778Y-73845720D01*
X128208038Y-79933727D02*
X128235489Y-79950976D01*
X128258414Y-79973901D02*
X128275663Y-80001352D01*
X127003446Y-83748259D02*
X127034047Y-83758967D01*
X127112380Y-77546226D02*
X127101672Y-77576827D01*
X126302993Y-82457909D02*
X126406306Y-82469550D01*
X128275663Y-80001352D02*
X128286371Y-80031953D01*
X127034047Y-83758967D02*
X127061498Y-83776216D01*
X127101672Y-77576827D02*
X127084423Y-77604278D01*
X126406306Y-82469550D02*
X128145220Y-82469550D01*
X128286371Y-80031953D02*
X128290000Y-80064170D01*
X127061498Y-83776216D02*
X127084423Y-83799141D01*
X127084423Y-77604278D02*
X127061498Y-77627203D01*
X128145220Y-82469550D02*
X128177437Y-82473179D01*
X128290000Y-80064170D02*
X128286371Y-80096386D01*
X127084423Y-83799141D02*
X127101672Y-83826592D01*
X126043312Y-79108678D02*
X125987998Y-79196710D01*
X127061498Y-77627203D02*
X127034047Y-77644452D01*
X128177437Y-82473179D02*
X128208038Y-82483887D01*
X128286371Y-80096386D02*
X128275663Y-80126987D01*
X128275663Y-80126987D02*
X128258414Y-80154438D01*
X128258414Y-80154438D02*
X128235489Y-80177363D01*
X139216010Y-99702070D02*
X139216010Y-107553990D01*
X128235489Y-80177363D02*
X128208038Y-80194612D01*
X139216010Y-107553990D02*
X139040000Y-107730000D01*
X91565847Y-73480113D02*
X91617778Y-73512744D01*
X128208038Y-80194612D02*
X128177437Y-80205320D01*
X128286371Y-82582113D02*
X128290000Y-82614330D01*
X128275663Y-81276432D02*
X128286371Y-81307033D01*
X128177437Y-80205320D02*
X128145220Y-80208950D01*
X128258414Y-81248981D02*
X128275663Y-81276432D01*
X128290000Y-82614330D02*
X128286371Y-82646546D01*
X128290000Y-81339250D02*
X128286371Y-81371466D01*
X126406306Y-80208950D02*
X126302993Y-80220590D01*
X126302993Y-80220590D02*
X126204860Y-80254928D01*
X128208038Y-82744772D02*
X128177437Y-82755480D01*
X126043312Y-80383758D02*
X125987998Y-80471790D01*
X128177437Y-82755480D02*
X128145220Y-82759110D01*
X125987998Y-80471790D02*
X125953660Y-80569923D01*
X128145220Y-82759110D02*
X126406306Y-82759110D01*
X125953660Y-80569923D02*
X125942020Y-80673236D01*
X126406306Y-82759110D02*
X126302993Y-82770750D01*
X125942020Y-80730183D02*
X125953660Y-80833496D01*
X125953660Y-80833496D02*
X125987998Y-80931629D01*
X125987998Y-80931629D02*
X126043312Y-81019661D01*
X126116828Y-81093177D02*
X126204860Y-81148491D01*
X126302993Y-79907749D02*
X126406306Y-79919390D01*
X128145220Y-81194470D02*
X128177437Y-81198099D01*
X128235489Y-81226056D02*
X128258414Y-81248981D01*
X126406306Y-81484030D02*
X126302993Y-81495670D01*
X128145220Y-80208950D02*
X126406306Y-80208950D01*
X128286371Y-81307033D02*
X128290000Y-81339250D01*
X128286371Y-81371466D02*
X128275663Y-81402067D01*
X91727769Y-73787829D02*
X91748025Y-73845720D01*
X128275663Y-81402067D02*
X128258414Y-81429518D01*
X126116828Y-80310242D02*
X126043312Y-80383758D01*
X128258414Y-81429518D02*
X128235489Y-81452443D01*
X127101672Y-83826592D02*
X127112380Y-83857193D01*
X125987998Y-79196710D02*
X125953660Y-79294843D01*
X128208038Y-82483887D02*
X128235489Y-82501136D01*
X128235489Y-81452443D02*
X128208038Y-81469692D01*
X128208038Y-81469692D02*
X128177437Y-81480400D01*
X128177437Y-81480400D02*
X128145220Y-81484030D01*
X128145220Y-81484030D02*
X126406306Y-81484030D01*
X126302993Y-81495670D02*
X126204860Y-81530008D01*
X92107956Y-73993907D02*
X92165847Y-73973651D01*
X126204860Y-81530008D02*
X126116828Y-81585322D01*
X126302993Y-77670430D02*
X126204860Y-77704768D01*
X126116828Y-81585322D02*
X126043312Y-81658838D01*
X126116828Y-79818097D02*
X126204860Y-79873411D01*
X125942020Y-82005263D02*
X125953660Y-82108576D01*
X126116828Y-83643337D02*
X126204860Y-83698651D01*
X125953660Y-82108576D02*
X125987998Y-82206709D01*
X128235489Y-82501136D02*
X128258414Y-82524061D01*
X128258414Y-82524061D02*
X128275663Y-82551512D01*
X128275663Y-82551512D02*
X128286371Y-82582113D01*
X128286371Y-82646546D02*
X128275663Y-82677147D01*
X128275663Y-82677147D02*
X128258414Y-82704598D01*
X128258414Y-82704598D02*
X128235489Y-82727523D01*
X91824025Y-73941020D02*
X91875956Y-73973651D01*
X128235489Y-82727523D02*
X128208038Y-82744772D01*
%TO.N,/Ethernet I/F/ETH_0_N*%
X79763940Y-71755000D02*
X79808759Y-71799819D01*
X77470000Y-71755000D02*
X79763940Y-71755000D01*
X79808759Y-71799819D02*
X80685248Y-71799819D01*
X80685248Y-71799819D02*
X80814419Y-71928990D01*
X86233000Y-72136000D02*
X86233000Y-72009000D01*
X86025990Y-71928990D02*
X86233000Y-72136000D01*
X80814419Y-71928990D02*
X86025990Y-71928990D01*
X140416010Y-96593070D02*
X140416010Y-108203990D01*
X131597856Y-79815551D02*
X131695989Y-79849889D01*
X131509824Y-79760237D02*
X131597856Y-79815551D01*
X131335016Y-79397243D02*
X131346656Y-79500556D01*
X131436308Y-79050818D02*
X131380994Y-79138850D01*
X131799302Y-78876010D02*
X131695989Y-78887650D01*
X133348224Y-78876010D02*
X131799302Y-78876010D01*
X131597856Y-78921988D02*
X131509824Y-78977302D01*
X133478667Y-78794047D02*
X133461418Y-78821498D01*
X132382423Y-79916041D02*
X132399672Y-79943492D01*
X133493004Y-78731230D02*
X133489375Y-78763446D01*
X132399672Y-79943492D02*
X132410380Y-79974093D01*
X133478667Y-78668412D02*
X133489375Y-78699013D01*
X133461418Y-78640961D02*
X133478667Y-78668412D01*
X132332047Y-79875867D02*
X132359498Y-79893116D01*
X133438493Y-78618036D02*
X133461418Y-78640961D01*
X133411042Y-78600787D02*
X133438493Y-78618036D01*
X131380994Y-79598689D02*
X131436308Y-79686721D01*
X133380441Y-78590079D02*
X133411042Y-78600787D01*
X132410380Y-79974093D02*
X132414010Y-80006310D01*
X131799302Y-78586450D02*
X133348224Y-78586450D01*
X131695989Y-78574809D02*
X131799302Y-78586450D01*
X131436308Y-78411641D02*
X131509824Y-78485157D01*
X133489375Y-78763446D02*
X133478667Y-78794047D01*
X131346656Y-78225476D02*
X131380994Y-78323609D01*
X131335016Y-78122163D02*
X131346656Y-78225476D01*
X131346656Y-77961903D02*
X131335016Y-78065216D01*
X132414010Y-80006310D02*
X132414010Y-88591070D01*
X131436308Y-77775738D02*
X131380994Y-77863770D01*
X131509824Y-77702222D02*
X131436308Y-77775738D01*
X131799302Y-77600930D02*
X131695989Y-77612570D01*
X131695989Y-79849889D02*
X131799302Y-79861530D01*
X131346656Y-79236983D02*
X131335016Y-79340296D01*
X133380441Y-77597300D02*
X133348224Y-77600930D01*
X133411042Y-77586592D02*
X133380441Y-77597300D01*
X133461418Y-77546418D02*
X133438493Y-77569343D01*
X133478667Y-77518967D02*
X133461418Y-77546418D01*
X133493004Y-77456150D02*
X133489375Y-77488366D01*
X131597856Y-78540471D02*
X131695989Y-78574809D01*
X133438493Y-77342956D02*
X133461418Y-77365881D01*
X133380441Y-77314999D02*
X133411042Y-77325707D01*
X133348224Y-77311370D02*
X133380441Y-77314999D01*
X133411042Y-78861672D02*
X133380441Y-78872380D01*
X131799302Y-77311370D02*
X133348224Y-77311370D01*
X131695989Y-77299729D02*
X131799302Y-77311370D01*
X131509824Y-77210077D02*
X131597856Y-77265391D01*
X131509824Y-78977302D02*
X131436308Y-79050818D01*
X133461418Y-78821498D02*
X133438493Y-78844423D01*
X131436308Y-77136561D02*
X131509824Y-77210077D01*
X131346656Y-76950396D02*
X131380994Y-77048529D01*
X131335016Y-76790136D02*
X131335016Y-76847083D01*
X132382423Y-74996258D02*
X132359498Y-75019183D01*
X133438493Y-78844423D02*
X133411042Y-78861672D01*
X92106005Y-71988744D02*
X92157936Y-71956113D01*
X131118930Y-71928990D02*
X132414010Y-73224070D01*
X132414010Y-74905990D02*
X132410380Y-74938206D01*
X131799302Y-76036290D02*
X133348224Y-76036290D01*
X131346656Y-75675316D02*
X131380994Y-75773449D01*
X133380441Y-76039919D02*
X133411042Y-76050627D01*
X92009749Y-72141935D02*
X92030005Y-72084044D01*
X132414010Y-73224070D02*
X132414010Y-74905990D01*
X132301446Y-75047140D02*
X132269230Y-75050770D01*
X91943127Y-72373651D02*
X91975758Y-72321720D01*
X91847827Y-72449651D02*
X91899758Y-72417020D01*
X133380441Y-78872380D02*
X133348224Y-78876010D01*
X92062636Y-72032113D02*
X92106005Y-71988744D01*
X132332047Y-75036432D02*
X132301446Y-75047140D01*
X131436308Y-75861481D02*
X131509824Y-75934997D01*
X132399672Y-74968807D02*
X132382423Y-74996258D01*
X91728990Y-72476775D02*
X91789936Y-72469907D01*
X91299758Y-71988744D02*
X91343127Y-72032113D01*
X131509824Y-75152062D02*
X131436308Y-75225578D01*
X131380994Y-75313610D02*
X131346656Y-75411743D01*
X131695989Y-78887650D02*
X131597856Y-78921988D01*
X133411042Y-76050627D02*
X133438493Y-76067876D01*
X133478667Y-76118252D02*
X133489375Y-76148853D01*
X133438493Y-76294263D02*
X133411042Y-76311512D01*
X91975758Y-72321720D02*
X91996014Y-72263829D01*
X91462636Y-72373651D02*
X91506005Y-72417020D01*
X131695989Y-75062410D02*
X131597856Y-75096748D01*
X91247827Y-71956113D02*
X91299758Y-71988744D01*
X91506005Y-72417020D02*
X91557936Y-72449651D01*
X133438493Y-76067876D02*
X133461418Y-76090801D01*
X131695989Y-76024649D02*
X131799302Y-76036290D01*
X92215827Y-71935857D02*
X92276774Y-71928990D01*
X131597856Y-77265391D02*
X131695989Y-77299729D01*
X133478667Y-76243887D02*
X133461418Y-76271338D01*
X133489375Y-77423933D02*
X133493004Y-77456150D01*
X91676774Y-72476775D02*
X91728990Y-72476775D01*
X132410380Y-74938206D02*
X132399672Y-74968807D01*
X131597856Y-77646908D02*
X131509824Y-77702222D01*
X133411042Y-77325707D02*
X133438493Y-77342956D01*
X92030005Y-72084044D02*
X92062636Y-72032113D01*
X131380994Y-78323609D02*
X131436308Y-78411641D01*
X91343127Y-72032113D02*
X91375758Y-72084044D01*
X132359498Y-79893116D02*
X132382423Y-79916041D01*
X91189936Y-71935857D02*
X91247827Y-71956113D01*
X91789936Y-72469907D02*
X91847827Y-72449651D01*
X91557936Y-72449651D02*
X91615827Y-72469907D01*
X131346656Y-79500556D02*
X131380994Y-79598689D01*
X92157936Y-71956113D02*
X92215827Y-71935857D01*
X131799302Y-75050770D02*
X131695989Y-75062410D01*
X91430005Y-72321720D02*
X91462636Y-72373651D01*
X86440010Y-71928990D02*
X91128990Y-71928990D01*
X92276774Y-71928990D02*
X131118930Y-71928990D01*
X133348224Y-78586450D02*
X133380441Y-78590079D01*
X132359498Y-75019183D02*
X132332047Y-75036432D01*
X91396014Y-72141935D02*
X91409749Y-72263829D01*
X132269230Y-79861530D02*
X132301446Y-79865159D01*
X133489375Y-77488366D02*
X133478667Y-77518967D01*
X91899758Y-72417020D02*
X91943127Y-72373651D01*
X91375758Y-72084044D02*
X91396014Y-72141935D01*
X86233000Y-72136000D02*
X86440010Y-71928990D01*
X132301446Y-79865159D02*
X132332047Y-79875867D01*
X133493004Y-76181070D02*
X133489375Y-76213286D01*
X132269230Y-75050770D02*
X131799302Y-75050770D01*
X131380994Y-79138850D02*
X131346656Y-79236983D01*
X91128990Y-71928990D02*
X91189936Y-71935857D01*
X131346656Y-75411743D02*
X131335016Y-75515056D01*
X131597856Y-75096748D02*
X131509824Y-75152062D01*
X133461418Y-77365881D02*
X133478667Y-77393332D01*
X131597856Y-75990311D02*
X131695989Y-76024649D01*
X131436308Y-75225578D02*
X131380994Y-75313610D01*
X140416010Y-108203990D02*
X140240000Y-108380000D01*
X131335016Y-75515056D02*
X131335016Y-75572003D01*
X131335016Y-75572003D02*
X131346656Y-75675316D01*
X133478667Y-77393332D02*
X133489375Y-77423933D01*
X131380994Y-75773449D02*
X131436308Y-75861481D01*
X133348224Y-77600930D02*
X131799302Y-77600930D01*
X131509824Y-75934997D02*
X131597856Y-75990311D01*
X91409749Y-72263829D02*
X91430005Y-72321720D01*
X133411042Y-76311512D02*
X133380441Y-76322220D01*
X131799302Y-79861530D02*
X132269230Y-79861530D01*
X131436308Y-79686721D02*
X131509824Y-79760237D01*
X131509824Y-76427142D02*
X131436308Y-76500658D01*
X131380994Y-76588690D02*
X131346656Y-76686823D01*
X133489375Y-78699013D02*
X133493004Y-78731230D01*
X131380994Y-77863770D02*
X131346656Y-77961903D01*
X133461418Y-76090801D02*
X133478667Y-76118252D01*
X133489375Y-76148853D02*
X133493004Y-76181070D01*
X132414010Y-88591070D02*
X140416010Y-96593070D01*
X131509824Y-78485157D02*
X131597856Y-78540471D01*
X131695989Y-77612570D02*
X131597856Y-77646908D01*
X131799302Y-76325850D02*
X131695989Y-76337490D01*
X131335016Y-79340296D02*
X131335016Y-79397243D01*
X131380994Y-77048529D02*
X131436308Y-77136561D01*
X131695989Y-76337490D02*
X131597856Y-76371828D01*
X131335016Y-76847083D02*
X131346656Y-76950396D01*
X91615827Y-72469907D02*
X91676774Y-72476775D01*
X133489375Y-76213286D02*
X133478667Y-76243887D01*
X133348224Y-76036290D02*
X133380441Y-76039919D01*
X131436308Y-76500658D02*
X131380994Y-76588690D01*
X131335016Y-78065216D02*
X131335016Y-78122163D01*
X91996014Y-72263829D02*
X92009749Y-72141935D01*
X133461418Y-76271338D02*
X133438493Y-76294263D01*
X133380441Y-76322220D02*
X133348224Y-76325850D01*
X133348224Y-76325850D02*
X131799302Y-76325850D01*
X131597856Y-76371828D02*
X131509824Y-76427142D01*
X133438493Y-77569343D02*
X133411042Y-77586592D01*
X131346656Y-76686823D02*
X131335016Y-76790136D01*
%TO.N,/Ethernet I/F/ETH_0_P*%
X131827776Y-77948910D02*
X131795559Y-77952539D01*
X133480011Y-77937269D02*
X133376698Y-77948910D01*
X133739692Y-77774101D02*
X133666176Y-77847617D01*
X133840984Y-77427676D02*
X133840984Y-77484623D01*
X133829344Y-77324363D02*
X133840984Y-77427676D01*
X131686625Y-76850826D02*
X131697333Y-76881427D01*
X133795006Y-77226230D02*
X133829344Y-77324363D01*
X133578144Y-77009368D02*
X133666176Y-77064682D01*
X133480011Y-76975030D02*
X133578144Y-77009368D01*
X131737507Y-76931803D02*
X131764958Y-76949052D01*
X131737507Y-77980496D02*
X131714582Y-78003421D01*
X131714582Y-76908878D02*
X131737507Y-76931803D01*
X131682996Y-76818610D02*
X131686625Y-76850826D01*
X131686625Y-76786393D02*
X131682996Y-76818610D01*
X131686625Y-75511313D02*
X131682996Y-75543530D01*
X133795006Y-77686069D02*
X133739692Y-77774101D01*
X133829344Y-77587936D02*
X133795006Y-77686069D01*
X80010000Y-70485000D02*
X80010000Y-71451848D01*
X131682996Y-75543530D02*
X131686625Y-75575746D01*
X131827776Y-76673830D02*
X131795559Y-76677459D01*
X133578144Y-76627851D02*
X133480011Y-76662189D01*
X131827776Y-76963390D02*
X133376698Y-76963390D01*
X133829344Y-76049283D02*
X133840984Y-76152596D01*
X133739692Y-77138198D02*
X133795006Y-77226230D01*
X132587181Y-75297457D02*
X132499149Y-75352771D01*
X131764958Y-76949052D02*
X131795559Y-76959760D01*
X133739692Y-75863118D02*
X133795006Y-75951150D01*
X133795006Y-76410989D02*
X133739692Y-76499021D01*
X133666176Y-76572537D02*
X133578144Y-76627851D01*
X132761990Y-88446930D02*
X140763990Y-96448930D01*
X131737507Y-76705416D02*
X131714582Y-76728341D01*
X133739692Y-76499021D02*
X133666176Y-76572537D01*
X131697333Y-75480712D02*
X131686625Y-75511313D01*
X132761990Y-79977836D02*
X132761990Y-88446930D01*
X133840984Y-77484623D02*
X133829344Y-77587936D01*
X133376698Y-76673830D02*
X131827776Y-76673830D01*
X132761990Y-73079930D02*
X132761990Y-74934463D01*
X132660697Y-75223941D02*
X132587181Y-75297457D01*
X133829344Y-76312856D02*
X133795006Y-76410989D01*
X131697333Y-76755792D02*
X131686625Y-76786393D01*
X132761990Y-74934463D02*
X132750349Y-75037776D01*
X131764958Y-79238327D02*
X131737507Y-79255576D01*
X131697333Y-76881427D02*
X131714582Y-76908878D01*
X131764958Y-77963247D02*
X131737507Y-77980496D01*
X131795559Y-75402379D02*
X131764958Y-75413087D01*
X80829382Y-71451848D02*
X80958544Y-71581010D01*
X131737507Y-75656723D02*
X131764958Y-75673972D01*
X133666176Y-75789602D02*
X133739692Y-75863118D01*
X131764958Y-76688167D02*
X131737507Y-76705416D01*
X131697333Y-78156507D02*
X131714582Y-78183958D01*
X132297703Y-75398750D02*
X131827776Y-75398750D01*
X131697333Y-75606347D02*
X131714582Y-75633798D01*
X131795559Y-76677459D02*
X131764958Y-76688167D01*
X131263070Y-71581010D02*
X132761990Y-73079930D01*
X133840984Y-76152596D02*
X133840984Y-76209543D01*
X131714582Y-76728341D02*
X131697333Y-76755792D01*
X80010000Y-71451848D02*
X80829382Y-71451848D01*
X133840984Y-76209543D02*
X133829344Y-76312856D01*
X131764958Y-75413087D02*
X131737507Y-75430336D01*
X133376698Y-76963390D02*
X133480011Y-76975030D01*
X131714582Y-75633798D02*
X131737507Y-75656723D01*
X131686625Y-75575746D02*
X131697333Y-75606347D01*
X133376698Y-79223990D02*
X131827776Y-79223990D01*
X132401016Y-75387109D02*
X132297703Y-75398750D01*
X133480011Y-76662189D02*
X133376698Y-76673830D01*
X131764958Y-75673972D02*
X131795559Y-75684680D01*
X131697333Y-78030872D02*
X131686625Y-78061473D01*
X131827776Y-75688310D02*
X133376698Y-75688310D01*
X133666176Y-77064682D02*
X133739692Y-77138198D01*
X133376698Y-75688310D02*
X133480011Y-75699950D01*
X132401016Y-79525190D02*
X132499149Y-79559528D01*
X133578144Y-77902931D02*
X133480011Y-77937269D01*
X133666176Y-77847617D02*
X133578144Y-77902931D01*
X133578144Y-75734288D02*
X133666176Y-75789602D01*
X131795559Y-76959760D02*
X131827776Y-76963390D01*
X132716011Y-75135909D02*
X132660697Y-75223941D01*
X133795006Y-75951150D02*
X133829344Y-76049283D01*
X131795559Y-77952539D02*
X131764958Y-77963247D01*
X133795006Y-78501310D02*
X133829344Y-78599443D01*
X131714582Y-78183958D02*
X131737507Y-78206883D01*
X133829344Y-78863016D02*
X133795006Y-78961149D01*
X133376698Y-77948910D02*
X131827776Y-77948910D01*
X133795006Y-78961149D02*
X133739692Y-79049181D01*
X133840984Y-78702756D02*
X133840984Y-78759703D01*
X131764958Y-78224132D02*
X131795559Y-78234840D01*
X133739692Y-79049181D02*
X133666176Y-79122697D01*
X131795559Y-75684680D02*
X131827776Y-75688310D01*
X133840984Y-78759703D02*
X133829344Y-78863016D01*
X131795559Y-78234840D02*
X131827776Y-78238470D01*
X133666176Y-79122697D02*
X133578144Y-79178011D01*
X131827776Y-78238470D02*
X133376698Y-78238470D01*
X132297703Y-79513550D02*
X132401016Y-79525190D01*
X131686625Y-78061473D02*
X131682996Y-78093690D01*
X133480011Y-78250110D02*
X133578144Y-78284448D01*
X131682996Y-78093690D02*
X131686625Y-78125906D01*
X133578144Y-78284448D02*
X133666176Y-78339762D01*
X131686625Y-78125906D02*
X131697333Y-78156507D01*
X133666176Y-78339762D02*
X133739692Y-78413278D01*
X133739692Y-78413278D02*
X133795006Y-78501310D01*
X131737507Y-78206883D02*
X131764958Y-78224132D01*
X133829344Y-78599443D02*
X133840984Y-78702756D01*
X133578144Y-79178011D02*
X133480011Y-79212349D01*
X133480011Y-79212349D02*
X133376698Y-79223990D01*
X131737507Y-79255576D02*
X131714582Y-79278501D01*
X131714582Y-79278501D02*
X131697333Y-79305952D01*
X131697333Y-79305952D02*
X131686625Y-79336553D01*
X131686625Y-79336553D02*
X131682996Y-79368770D01*
X132750349Y-75037776D02*
X132716011Y-75135909D01*
X131682996Y-79368770D02*
X131686625Y-79400986D01*
X131686625Y-79400986D02*
X131697333Y-79431587D01*
X131697333Y-79431587D02*
X131714582Y-79459038D01*
X131827776Y-75398750D02*
X131795559Y-75402379D01*
X131714582Y-79459038D02*
X131737507Y-79481963D01*
X133376698Y-78238470D02*
X133480011Y-78250110D01*
X131737507Y-79481963D02*
X131764958Y-79499212D01*
X131714582Y-75453261D02*
X131697333Y-75480712D01*
X131764958Y-79499212D02*
X131795559Y-79509920D01*
X131795559Y-79509920D02*
X131827776Y-79513550D01*
X132499149Y-75352771D02*
X132401016Y-75387109D01*
X131827776Y-79513550D02*
X132297703Y-79513550D01*
X131795559Y-79227619D02*
X131764958Y-79238327D01*
X132499149Y-79559528D02*
X132587181Y-79614842D01*
X132587181Y-79614842D02*
X132660697Y-79688358D01*
X132660697Y-79688358D02*
X132716011Y-79776390D01*
X132716011Y-79776390D02*
X132750349Y-79874523D01*
X132750349Y-79874523D02*
X132761990Y-79977836D01*
X140763990Y-96448930D02*
X140763990Y-108203990D01*
X140763990Y-108203990D02*
X140940000Y-108380000D01*
X133480011Y-75699950D02*
X133578144Y-75734288D01*
X131737507Y-75430336D02*
X131714582Y-75453261D01*
X131827776Y-79223990D02*
X131795559Y-79227619D01*
X131714582Y-78003421D02*
X131697333Y-78030872D01*
X86233000Y-71374000D02*
X86233000Y-71534020D01*
X131263070Y-71581010D02*
X86440010Y-71581010D01*
X86440010Y-71581010D02*
X86233000Y-71374000D01*
X80958544Y-71581010D02*
X86025990Y-71581010D01*
X86025990Y-71581010D02*
X86233000Y-71374000D01*
D23*
%TO.N,/Ethernet I/F/ETH_LEDG*%
X141440000Y-114180000D02*
X141440000Y-115989000D01*
X141440000Y-115989000D02*
X140970000Y-116459000D01*
X140970000Y-116459000D02*
X113284000Y-116459000D01*
X113284000Y-116459000D02*
X111633000Y-114808000D01*
X111633000Y-114808000D02*
X111633000Y-88900000D01*
X111633000Y-88900000D02*
X110998000Y-88265000D01*
X110998000Y-88265000D02*
X75438000Y-88265000D01*
X75438000Y-88265000D02*
X75438000Y-88265000D01*
%TO.N,/Ethernet I/F/ETH_LEDY*%
X142140000Y-114180000D02*
X142140000Y-116686000D01*
X142140000Y-116686000D02*
X141732000Y-117094000D01*
X141732000Y-117094000D02*
X112395000Y-117094000D01*
X112395000Y-117094000D02*
X110871000Y-115570000D01*
X110871000Y-115570000D02*
X110871000Y-91059000D01*
X110871000Y-91059000D02*
X109982000Y-90170000D01*
X109982000Y-90170000D02*
X75438000Y-90170000D01*
X75438000Y-90170000D02*
X75438000Y-90170000D01*
%TD*%
M02*
