%TF.GenerationSoftware,KiCad,Pcbnew,5.1.9+dfsg1-1~bpo10+1*%
%TF.CreationDate,2021-06-04T12:04:03+02:00*%
%TF.ProjectId,vacctrl_rpi,76616363-7472-46c5-9f72-70692e6b6963,1.0*%
%TF.SameCoordinates,Original*%
%TF.FileFunction,Soldermask,Bot*%
%TF.FilePolarity,Negative*%
%FSLAX46Y46*%
G04 Gerber Fmt 4.6, Leading zero omitted, Abs format (unit mm)*
G04 Created by KiCad (PCBNEW 5.1.9+dfsg1-1~bpo10+1) date 2021-06-04 12:04:03*
%MOMM*%
%LPD*%
G01*
G04 APERTURE LIST*
%ADD10C,1.680000*%
%ADD11C,1.508000*%
%ADD12C,1.408000*%
%ADD13R,1.508000X1.508000*%
%ADD14C,2.550000*%
%ADD15C,3.350000*%
%ADD16O,1.700000X1.700000*%
%ADD17R,1.700000X1.700000*%
%ADD18C,2.700000*%
%ADD19C,2.000000*%
%ADD20C,2.800000*%
%ADD21C,2.350000*%
%ADD22R,4.000000X0.560000*%
%ADD23C,1.800000*%
%ADD24R,1.800000X1.800000*%
G04 APERTURE END LIST*
D10*
%TO.C,J7*%
X67060000Y-82840000D03*
X67060000Y-80300000D03*
X67060000Y-72100000D03*
X67060000Y-69560000D03*
D11*
X73680000Y-79375000D03*
D12*
X74950000Y-81915000D03*
X74950000Y-70485000D03*
D11*
X73680000Y-73025000D03*
X77470000Y-81915000D03*
X80010000Y-80645000D03*
X77470000Y-79375000D03*
X80010000Y-78105000D03*
X77470000Y-76835000D03*
X80010000Y-75565000D03*
X77470000Y-74295000D03*
X80010000Y-73025000D03*
X77470000Y-71755000D03*
D13*
X80010000Y-70485000D03*
D14*
X74170000Y-84050000D03*
X74170000Y-68350000D03*
D15*
X71120000Y-81915000D03*
X71120000Y-70485000D03*
%TD*%
D16*
%TO.C,JP2*%
X191135000Y-65405000D03*
D17*
X193675000Y-65405000D03*
%TD*%
D16*
%TO.C,J4*%
X157480000Y-124904500D03*
D17*
X154940000Y-124904500D03*
%TD*%
D18*
%TO.C,U3*%
X122090000Y-110480000D03*
X122090000Y-77480000D03*
X170090000Y-77480000D03*
X170090000Y-110480000D03*
%TD*%
D16*
%TO.C,JP1*%
X79375000Y-144145000D03*
D17*
X79375000Y-141605000D03*
%TD*%
D19*
%TO.C,J6*%
X68500000Y-131400000D03*
D20*
X68500000Y-138900000D03*
X68500000Y-123900000D03*
D21*
X72500000Y-138900000D03*
X72500000Y-123900000D03*
D19*
X72500000Y-131400000D03*
X70732233Y-129632233D03*
X70732233Y-133167767D03*
X74267767Y-133167767D03*
X74267767Y-129632233D03*
%TD*%
D22*
%TO.C,J5*%
X229830000Y-93335000D03*
X229830000Y-94605000D03*
X229830000Y-95875000D03*
X229830000Y-97145000D03*
X229830000Y-98415000D03*
X229830000Y-99685000D03*
X229830000Y-100955000D03*
X229830000Y-102225000D03*
X229830000Y-103495000D03*
X229830000Y-104765000D03*
X229830000Y-106035000D03*
X229830000Y-107305000D03*
X229830000Y-108575000D03*
X229830000Y-109845000D03*
X229830000Y-111115000D03*
X229830000Y-112385000D03*
X229830000Y-113655000D03*
X229830000Y-114925000D03*
X229830000Y-116195000D03*
X229830000Y-117465000D03*
X229830000Y-118735000D03*
X229830000Y-120005000D03*
X229830000Y-121275000D03*
X229830000Y-122545000D03*
X229830000Y-125085000D03*
X229830000Y-126355000D03*
X229830000Y-127625000D03*
X229830000Y-128895000D03*
X229830000Y-130165000D03*
X229830000Y-131435000D03*
X229830000Y-132705000D03*
X229830000Y-133975000D03*
X229830000Y-135245000D03*
X229830000Y-136515000D03*
X229830000Y-137785000D03*
X229830000Y-139055000D03*
X229830000Y-140325000D03*
X229830000Y-141595000D03*
X229830000Y-142865000D03*
%TD*%
D19*
%TO.C,SW1*%
X78105000Y-97155000D03*
X78105000Y-101655000D03*
X71605000Y-97155000D03*
X71605000Y-101655000D03*
%TD*%
D23*
%TO.C,D2*%
X118364000Y-56515000D03*
D24*
X118364000Y-59055000D03*
%TD*%
D23*
%TO.C,D1*%
X127889000Y-56515000D03*
D24*
X127889000Y-59055000D03*
%TD*%
D18*
%TO.C,H2*%
X67200000Y-57860000D03*
%TD*%
%TO.C,H1*%
X67200000Y-146760000D03*
%TD*%
M02*
