%TF.GenerationSoftware,KiCad,Pcbnew,5.1.9+dfsg1-1~bpo10+1*%
%TF.CreationDate,2021-06-04T12:04:03+02:00*%
%TF.ProjectId,vacctrl_rpi,76616363-7472-46c5-9f72-70692e6b6963,1.0*%
%TF.SameCoordinates,Original*%
%TF.FileFunction,Legend,Top*%
%TF.FilePolarity,Positive*%
%FSLAX46Y46*%
G04 Gerber Fmt 4.6, Leading zero omitted, Abs format (unit mm)*
G04 Created by KiCad (PCBNEW 5.1.9+dfsg1-1~bpo10+1) date 2021-06-04 12:04:03*
%MOMM*%
%LPD*%
G01*
G04 APERTURE LIST*
%ADD10C,0.150000*%
%ADD11C,0.300000*%
%ADD12C,0.010000*%
%ADD13C,0.127000*%
%ADD14C,0.200000*%
%ADD15C,0.120000*%
G04 APERTURE END LIST*
D10*
X144590000Y-93607380D02*
X144256666Y-93131190D01*
X144018571Y-93607380D02*
X144018571Y-92607380D01*
X144399523Y-92607380D01*
X144494761Y-92655000D01*
X144542380Y-92702619D01*
X144590000Y-92797857D01*
X144590000Y-92940714D01*
X144542380Y-93035952D01*
X144494761Y-93083571D01*
X144399523Y-93131190D01*
X144018571Y-93131190D01*
X145447142Y-93607380D02*
X145447142Y-93083571D01*
X145399523Y-92988333D01*
X145304285Y-92940714D01*
X145113809Y-92940714D01*
X145018571Y-92988333D01*
X145447142Y-93559761D02*
X145351904Y-93607380D01*
X145113809Y-93607380D01*
X145018571Y-93559761D01*
X144970952Y-93464523D01*
X144970952Y-93369285D01*
X145018571Y-93274047D01*
X145113809Y-93226428D01*
X145351904Y-93226428D01*
X145447142Y-93178809D01*
X145875714Y-93559761D02*
X145970952Y-93607380D01*
X146161428Y-93607380D01*
X146256666Y-93559761D01*
X146304285Y-93464523D01*
X146304285Y-93416904D01*
X146256666Y-93321666D01*
X146161428Y-93274047D01*
X146018571Y-93274047D01*
X145923333Y-93226428D01*
X145875714Y-93131190D01*
X145875714Y-93083571D01*
X145923333Y-92988333D01*
X146018571Y-92940714D01*
X146161428Y-92940714D01*
X146256666Y-92988333D01*
X146732857Y-92940714D02*
X146732857Y-93940714D01*
X146732857Y-92988333D02*
X146828095Y-92940714D01*
X147018571Y-92940714D01*
X147113809Y-92988333D01*
X147161428Y-93035952D01*
X147209047Y-93131190D01*
X147209047Y-93416904D01*
X147161428Y-93512142D01*
X147113809Y-93559761D01*
X147018571Y-93607380D01*
X146828095Y-93607380D01*
X146732857Y-93559761D01*
X147637619Y-93607380D02*
X147637619Y-92607380D01*
X147637619Y-92988333D02*
X147732857Y-92940714D01*
X147923333Y-92940714D01*
X148018571Y-92988333D01*
X148066190Y-93035952D01*
X148113809Y-93131190D01*
X148113809Y-93416904D01*
X148066190Y-93512142D01*
X148018571Y-93559761D01*
X147923333Y-93607380D01*
X147732857Y-93607380D01*
X147637619Y-93559761D01*
X148923333Y-93559761D02*
X148828095Y-93607380D01*
X148637619Y-93607380D01*
X148542380Y-93559761D01*
X148494761Y-93464523D01*
X148494761Y-93083571D01*
X148542380Y-92988333D01*
X148637619Y-92940714D01*
X148828095Y-92940714D01*
X148923333Y-92988333D01*
X148970952Y-93083571D01*
X148970952Y-93178809D01*
X148494761Y-93274047D01*
X149399523Y-93607380D02*
X149399523Y-92940714D01*
X149399523Y-93131190D02*
X149447142Y-93035952D01*
X149494761Y-92988333D01*
X149590000Y-92940714D01*
X149685238Y-92940714D01*
X150018571Y-93607380D02*
X150018571Y-92940714D01*
X150018571Y-93131190D02*
X150066190Y-93035952D01*
X150113809Y-92988333D01*
X150209047Y-92940714D01*
X150304285Y-92940714D01*
X150542380Y-92940714D02*
X150780476Y-93607380D01*
X151018571Y-92940714D02*
X150780476Y-93607380D01*
X150685238Y-93845476D01*
X150637619Y-93893095D01*
X150542380Y-93940714D01*
X152161428Y-93607380D02*
X152161428Y-92607380D01*
X152542380Y-92607380D01*
X152637619Y-92655000D01*
X152685238Y-92702619D01*
X152732857Y-92797857D01*
X152732857Y-92940714D01*
X152685238Y-93035952D01*
X152637619Y-93083571D01*
X152542380Y-93131190D01*
X152161428Y-93131190D01*
X153161428Y-93607380D02*
X153161428Y-92940714D01*
X153161428Y-92607380D02*
X153113809Y-92655000D01*
X153161428Y-92702619D01*
X153209047Y-92655000D01*
X153161428Y-92607380D01*
X153161428Y-92702619D01*
X142304285Y-95162142D02*
X142256666Y-95209761D01*
X142113809Y-95257380D01*
X142018571Y-95257380D01*
X141875714Y-95209761D01*
X141780476Y-95114523D01*
X141732857Y-95019285D01*
X141685238Y-94828809D01*
X141685238Y-94685952D01*
X141732857Y-94495476D01*
X141780476Y-94400238D01*
X141875714Y-94305000D01*
X142018571Y-94257380D01*
X142113809Y-94257380D01*
X142256666Y-94305000D01*
X142304285Y-94352619D01*
X142875714Y-95257380D02*
X142780476Y-95209761D01*
X142732857Y-95162142D01*
X142685238Y-95066904D01*
X142685238Y-94781190D01*
X142732857Y-94685952D01*
X142780476Y-94638333D01*
X142875714Y-94590714D01*
X143018571Y-94590714D01*
X143113809Y-94638333D01*
X143161428Y-94685952D01*
X143209047Y-94781190D01*
X143209047Y-95066904D01*
X143161428Y-95162142D01*
X143113809Y-95209761D01*
X143018571Y-95257380D01*
X142875714Y-95257380D01*
X143637619Y-95257380D02*
X143637619Y-94590714D01*
X143637619Y-94685952D02*
X143685238Y-94638333D01*
X143780476Y-94590714D01*
X143923333Y-94590714D01*
X144018571Y-94638333D01*
X144066190Y-94733571D01*
X144066190Y-95257380D01*
X144066190Y-94733571D02*
X144113809Y-94638333D01*
X144209047Y-94590714D01*
X144351904Y-94590714D01*
X144447142Y-94638333D01*
X144494761Y-94733571D01*
X144494761Y-95257380D01*
X144970952Y-94590714D02*
X144970952Y-95590714D01*
X144970952Y-94638333D02*
X145066190Y-94590714D01*
X145256666Y-94590714D01*
X145351904Y-94638333D01*
X145399523Y-94685952D01*
X145447142Y-94781190D01*
X145447142Y-95066904D01*
X145399523Y-95162142D01*
X145351904Y-95209761D01*
X145256666Y-95257380D01*
X145066190Y-95257380D01*
X144970952Y-95209761D01*
X146304285Y-94590714D02*
X146304285Y-95257380D01*
X145875714Y-94590714D02*
X145875714Y-95114523D01*
X145923333Y-95209761D01*
X146018571Y-95257380D01*
X146161428Y-95257380D01*
X146256666Y-95209761D01*
X146304285Y-95162142D01*
X146637619Y-94590714D02*
X147018571Y-94590714D01*
X146780476Y-94257380D02*
X146780476Y-95114523D01*
X146828095Y-95209761D01*
X146923333Y-95257380D01*
X147018571Y-95257380D01*
X147732857Y-95209761D02*
X147637619Y-95257380D01*
X147447142Y-95257380D01*
X147351904Y-95209761D01*
X147304285Y-95114523D01*
X147304285Y-94733571D01*
X147351904Y-94638333D01*
X147447142Y-94590714D01*
X147637619Y-94590714D01*
X147732857Y-94638333D01*
X147780476Y-94733571D01*
X147780476Y-94828809D01*
X147304285Y-94924047D01*
X148970952Y-95257380D02*
X148970952Y-94257380D01*
X149304285Y-94971666D01*
X149637619Y-94257380D01*
X149637619Y-95257380D01*
X150256666Y-95257380D02*
X150161428Y-95209761D01*
X150113809Y-95162142D01*
X150066190Y-95066904D01*
X150066190Y-94781190D01*
X150113809Y-94685952D01*
X150161428Y-94638333D01*
X150256666Y-94590714D01*
X150399523Y-94590714D01*
X150494761Y-94638333D01*
X150542380Y-94685952D01*
X150590000Y-94781190D01*
X150590000Y-95066904D01*
X150542380Y-95162142D01*
X150494761Y-95209761D01*
X150399523Y-95257380D01*
X150256666Y-95257380D01*
X151447142Y-95257380D02*
X151447142Y-94257380D01*
X151447142Y-95209761D02*
X151351904Y-95257380D01*
X151161428Y-95257380D01*
X151066190Y-95209761D01*
X151018571Y-95162142D01*
X150970952Y-95066904D01*
X150970952Y-94781190D01*
X151018571Y-94685952D01*
X151066190Y-94638333D01*
X151161428Y-94590714D01*
X151351904Y-94590714D01*
X151447142Y-94638333D01*
X152351904Y-94590714D02*
X152351904Y-95257380D01*
X151923333Y-94590714D02*
X151923333Y-95114523D01*
X151970952Y-95209761D01*
X152066190Y-95257380D01*
X152209047Y-95257380D01*
X152304285Y-95209761D01*
X152351904Y-95162142D01*
X152970952Y-95257380D02*
X152875714Y-95209761D01*
X152828095Y-95114523D01*
X152828095Y-94257380D01*
X153732857Y-95209761D02*
X153637619Y-95257380D01*
X153447142Y-95257380D01*
X153351904Y-95209761D01*
X153304285Y-95114523D01*
X153304285Y-94733571D01*
X153351904Y-94638333D01*
X153447142Y-94590714D01*
X153637619Y-94590714D01*
X153732857Y-94638333D01*
X153780476Y-94733571D01*
X153780476Y-94828809D01*
X153304285Y-94924047D01*
X155399523Y-94590714D02*
X155399523Y-95257380D01*
X155161428Y-94209761D02*
X154923333Y-94924047D01*
X155542380Y-94924047D01*
X155448095Y-122356571D02*
X155114761Y-122356571D01*
X155114761Y-122880380D02*
X155114761Y-121880380D01*
X155590952Y-121880380D01*
X156400476Y-122880380D02*
X156400476Y-122356571D01*
X156352857Y-122261333D01*
X156257619Y-122213714D01*
X156067142Y-122213714D01*
X155971904Y-122261333D01*
X156400476Y-122832761D02*
X156305238Y-122880380D01*
X156067142Y-122880380D01*
X155971904Y-122832761D01*
X155924285Y-122737523D01*
X155924285Y-122642285D01*
X155971904Y-122547047D01*
X156067142Y-122499428D01*
X156305238Y-122499428D01*
X156400476Y-122451809D01*
X156876666Y-122213714D02*
X156876666Y-122880380D01*
X156876666Y-122308952D02*
X156924285Y-122261333D01*
X157019523Y-122213714D01*
X157162380Y-122213714D01*
X157257619Y-122261333D01*
X157305238Y-122356571D01*
X157305238Y-122880380D01*
X192992952Y-80621714D02*
X192992952Y-81288380D01*
X192564380Y-80621714D02*
X192564380Y-81145523D01*
X192612000Y-81240761D01*
X192707238Y-81288380D01*
X192850095Y-81288380D01*
X192945333Y-81240761D01*
X192992952Y-81193142D01*
X193421523Y-81240761D02*
X193564380Y-81288380D01*
X193802476Y-81288380D01*
X193897714Y-81240761D01*
X193945333Y-81193142D01*
X193992952Y-81097904D01*
X193992952Y-81002666D01*
X193945333Y-80907428D01*
X193897714Y-80859809D01*
X193802476Y-80812190D01*
X193612000Y-80764571D01*
X193516761Y-80716952D01*
X193469142Y-80669333D01*
X193421523Y-80574095D01*
X193421523Y-80478857D01*
X193469142Y-80383619D01*
X193516761Y-80336000D01*
X193612000Y-80288380D01*
X193850095Y-80288380D01*
X193992952Y-80336000D01*
X194421523Y-81288380D02*
X194421523Y-80288380D01*
X194659619Y-80288380D01*
X194802476Y-80336000D01*
X194897714Y-80431238D01*
X194945333Y-80526476D01*
X194992952Y-80716952D01*
X194992952Y-80859809D01*
X194945333Y-81050285D01*
X194897714Y-81145523D01*
X194802476Y-81240761D01*
X194659619Y-81288380D01*
X194421523Y-81288380D01*
X195992952Y-81193142D02*
X195945333Y-81240761D01*
X195802476Y-81288380D01*
X195707238Y-81288380D01*
X195564380Y-81240761D01*
X195469142Y-81145523D01*
X195421523Y-81050285D01*
X195373904Y-80859809D01*
X195373904Y-80716952D01*
X195421523Y-80526476D01*
X195469142Y-80431238D01*
X195564380Y-80336000D01*
X195707238Y-80288380D01*
X195802476Y-80288380D01*
X195945333Y-80336000D01*
X195992952Y-80383619D01*
X196373904Y-81002666D02*
X196850095Y-81002666D01*
X196278666Y-81288380D02*
X196612000Y-80288380D01*
X196945333Y-81288380D01*
X197850095Y-81288380D02*
X197516761Y-80812190D01*
X197278666Y-81288380D02*
X197278666Y-80288380D01*
X197659619Y-80288380D01*
X197754857Y-80336000D01*
X197802476Y-80383619D01*
X197850095Y-80478857D01*
X197850095Y-80621714D01*
X197802476Y-80716952D01*
X197754857Y-80764571D01*
X197659619Y-80812190D01*
X197278666Y-80812190D01*
X198278666Y-81288380D02*
X198278666Y-80288380D01*
X198516761Y-80288380D01*
X198659619Y-80336000D01*
X198754857Y-80431238D01*
X198802476Y-80526476D01*
X198850095Y-80716952D01*
X198850095Y-80859809D01*
X198802476Y-81050285D01*
X198754857Y-81145523D01*
X198659619Y-81240761D01*
X198516761Y-81288380D01*
X198278666Y-81288380D01*
X200183428Y-81288380D02*
X200088190Y-81240761D01*
X200040571Y-81193142D01*
X199992952Y-81097904D01*
X199992952Y-80812190D01*
X200040571Y-80716952D01*
X200088190Y-80669333D01*
X200183428Y-80621714D01*
X200326285Y-80621714D01*
X200421523Y-80669333D01*
X200469142Y-80716952D01*
X200516761Y-80812190D01*
X200516761Y-81097904D01*
X200469142Y-81193142D01*
X200421523Y-81240761D01*
X200326285Y-81288380D01*
X200183428Y-81288380D01*
X200945333Y-80621714D02*
X200945333Y-81288380D01*
X200945333Y-80716952D02*
X200992952Y-80669333D01*
X201088190Y-80621714D01*
X201231047Y-80621714D01*
X201326285Y-80669333D01*
X201373904Y-80764571D01*
X201373904Y-81288380D01*
X201992952Y-81288380D02*
X201897714Y-81240761D01*
X201850095Y-81145523D01*
X201850095Y-80288380D01*
X202278666Y-80621714D02*
X202516761Y-81288380D01*
X202754857Y-80621714D02*
X202516761Y-81288380D01*
X202421523Y-81526476D01*
X202373904Y-81574095D01*
X202278666Y-81621714D01*
X191969142Y-82271714D02*
X191969142Y-82938380D01*
X191540571Y-82271714D02*
X191540571Y-82795523D01*
X191588190Y-82890761D01*
X191683428Y-82938380D01*
X191826285Y-82938380D01*
X191921523Y-82890761D01*
X191969142Y-82843142D01*
X192397714Y-82890761D02*
X192492952Y-82938380D01*
X192683428Y-82938380D01*
X192778666Y-82890761D01*
X192826285Y-82795523D01*
X192826285Y-82747904D01*
X192778666Y-82652666D01*
X192683428Y-82605047D01*
X192540571Y-82605047D01*
X192445333Y-82557428D01*
X192397714Y-82462190D01*
X192397714Y-82414571D01*
X192445333Y-82319333D01*
X192540571Y-82271714D01*
X192683428Y-82271714D01*
X192778666Y-82319333D01*
X193635809Y-82890761D02*
X193540571Y-82938380D01*
X193350095Y-82938380D01*
X193254857Y-82890761D01*
X193207238Y-82795523D01*
X193207238Y-82414571D01*
X193254857Y-82319333D01*
X193350095Y-82271714D01*
X193540571Y-82271714D01*
X193635809Y-82319333D01*
X193683428Y-82414571D01*
X193683428Y-82509809D01*
X193207238Y-82605047D01*
X194540571Y-82938380D02*
X194540571Y-81938380D01*
X194540571Y-82890761D02*
X194445333Y-82938380D01*
X194254857Y-82938380D01*
X194159619Y-82890761D01*
X194112000Y-82843142D01*
X194064380Y-82747904D01*
X194064380Y-82462190D01*
X194112000Y-82366952D01*
X194159619Y-82319333D01*
X194254857Y-82271714D01*
X194445333Y-82271714D01*
X194540571Y-82319333D01*
X195635809Y-82271714D02*
X196016761Y-82271714D01*
X195778666Y-82938380D02*
X195778666Y-82081238D01*
X195826285Y-81986000D01*
X195921523Y-81938380D01*
X196016761Y-81938380D01*
X196492952Y-82938380D02*
X196397714Y-82890761D01*
X196350095Y-82843142D01*
X196302476Y-82747904D01*
X196302476Y-82462190D01*
X196350095Y-82366952D01*
X196397714Y-82319333D01*
X196492952Y-82271714D01*
X196635809Y-82271714D01*
X196731047Y-82319333D01*
X196778666Y-82366952D01*
X196826285Y-82462190D01*
X196826285Y-82747904D01*
X196778666Y-82843142D01*
X196731047Y-82890761D01*
X196635809Y-82938380D01*
X196492952Y-82938380D01*
X197254857Y-82938380D02*
X197254857Y-82271714D01*
X197254857Y-82462190D02*
X197302476Y-82366952D01*
X197350095Y-82319333D01*
X197445333Y-82271714D01*
X197540571Y-82271714D01*
X199207238Y-82843142D02*
X199159619Y-82890761D01*
X199016761Y-82938380D01*
X198921523Y-82938380D01*
X198778666Y-82890761D01*
X198683428Y-82795523D01*
X198635809Y-82700285D01*
X198588190Y-82509809D01*
X198588190Y-82366952D01*
X198635809Y-82176476D01*
X198683428Y-82081238D01*
X198778666Y-81986000D01*
X198921523Y-81938380D01*
X199016761Y-81938380D01*
X199159619Y-81986000D01*
X199207238Y-82033619D01*
X199635809Y-82938380D02*
X199635809Y-81938380D01*
X199969142Y-82652666D01*
X200302476Y-81938380D01*
X200302476Y-82938380D01*
X201207238Y-82271714D02*
X201207238Y-82938380D01*
X200969142Y-81890761D02*
X200731047Y-82605047D01*
X201350095Y-82605047D01*
X201873904Y-82938380D02*
X201778666Y-82890761D01*
X201731047Y-82795523D01*
X201731047Y-81938380D01*
X202254857Y-82938380D02*
X202254857Y-82271714D01*
X202254857Y-81938380D02*
X202207238Y-81986000D01*
X202254857Y-82033619D01*
X202302476Y-81986000D01*
X202254857Y-81938380D01*
X202254857Y-82033619D01*
X202588190Y-82271714D02*
X202969142Y-82271714D01*
X202731047Y-81938380D02*
X202731047Y-82795523D01*
X202778666Y-82890761D01*
X202873904Y-82938380D01*
X202969142Y-82938380D01*
X203683428Y-82890761D02*
X203588190Y-82938380D01*
X203397714Y-82938380D01*
X203302476Y-82890761D01*
X203254857Y-82795523D01*
X203254857Y-82414571D01*
X203302476Y-82319333D01*
X203397714Y-82271714D01*
X203588190Y-82271714D01*
X203683428Y-82319333D01*
X203731047Y-82414571D01*
X203731047Y-82509809D01*
X203254857Y-82605047D01*
X72089285Y-146614071D02*
X71755952Y-146614071D01*
X71755952Y-147137880D02*
X71755952Y-146137880D01*
X72232142Y-146137880D01*
X72613095Y-147137880D02*
X72613095Y-146471214D01*
X72613095Y-146137880D02*
X72565476Y-146185500D01*
X72613095Y-146233119D01*
X72660714Y-146185500D01*
X72613095Y-146137880D01*
X72613095Y-146233119D01*
X72946428Y-146471214D02*
X73327380Y-146471214D01*
X73089285Y-146137880D02*
X73089285Y-146995023D01*
X73136904Y-147090261D01*
X73232142Y-147137880D01*
X73327380Y-147137880D01*
X74422619Y-146471214D02*
X74422619Y-147328357D01*
X74375000Y-147423595D01*
X74279761Y-147471214D01*
X74232142Y-147471214D01*
X74422619Y-146137880D02*
X74375000Y-146185500D01*
X74422619Y-146233119D01*
X74470238Y-146185500D01*
X74422619Y-146137880D01*
X74422619Y-146233119D01*
X75327380Y-146471214D02*
X75327380Y-147137880D01*
X74898809Y-146471214D02*
X74898809Y-146995023D01*
X74946428Y-147090261D01*
X75041666Y-147137880D01*
X75184523Y-147137880D01*
X75279761Y-147090261D01*
X75327380Y-147042642D01*
X75803571Y-147137880D02*
X75803571Y-146471214D01*
X75803571Y-146566452D02*
X75851190Y-146518833D01*
X75946428Y-146471214D01*
X76089285Y-146471214D01*
X76184523Y-146518833D01*
X76232142Y-146614071D01*
X76232142Y-147137880D01*
X76232142Y-146614071D02*
X76279761Y-146518833D01*
X76375000Y-146471214D01*
X76517857Y-146471214D01*
X76613095Y-146518833D01*
X76660714Y-146614071D01*
X76660714Y-147137880D01*
X77136904Y-146471214D02*
X77136904Y-147471214D01*
X77136904Y-146518833D02*
X77232142Y-146471214D01*
X77422619Y-146471214D01*
X77517857Y-146518833D01*
X77565476Y-146566452D01*
X77613095Y-146661690D01*
X77613095Y-146947404D01*
X77565476Y-147042642D01*
X77517857Y-147090261D01*
X77422619Y-147137880D01*
X77232142Y-147137880D01*
X77136904Y-147090261D01*
X78422619Y-147090261D02*
X78327380Y-147137880D01*
X78136904Y-147137880D01*
X78041666Y-147090261D01*
X77994047Y-146995023D01*
X77994047Y-146614071D01*
X78041666Y-146518833D01*
X78136904Y-146471214D01*
X78327380Y-146471214D01*
X78422619Y-146518833D01*
X78470238Y-146614071D01*
X78470238Y-146709309D01*
X77994047Y-146804547D01*
X78898809Y-147137880D02*
X78898809Y-146471214D01*
X78898809Y-146661690D02*
X78946428Y-146566452D01*
X78994047Y-146518833D01*
X79089285Y-146471214D01*
X79184523Y-146471214D01*
X80136904Y-146471214D02*
X80517857Y-146471214D01*
X80279761Y-146137880D02*
X80279761Y-146995023D01*
X80327380Y-147090261D01*
X80422619Y-147137880D01*
X80517857Y-147137880D01*
X80994047Y-147137880D02*
X80898809Y-147090261D01*
X80851190Y-147042642D01*
X80803571Y-146947404D01*
X80803571Y-146661690D01*
X80851190Y-146566452D01*
X80898809Y-146518833D01*
X80994047Y-146471214D01*
X81136904Y-146471214D01*
X81232142Y-146518833D01*
X81279761Y-146566452D01*
X81327380Y-146661690D01*
X81327380Y-146947404D01*
X81279761Y-147042642D01*
X81232142Y-147090261D01*
X81136904Y-147137880D01*
X80994047Y-147137880D01*
X82898809Y-147090261D02*
X82803571Y-147137880D01*
X82613095Y-147137880D01*
X82517857Y-147090261D01*
X82470238Y-146995023D01*
X82470238Y-146614071D01*
X82517857Y-146518833D01*
X82613095Y-146471214D01*
X82803571Y-146471214D01*
X82898809Y-146518833D01*
X82946428Y-146614071D01*
X82946428Y-146709309D01*
X82470238Y-146804547D01*
X83375000Y-146471214D02*
X83375000Y-147137880D01*
X83375000Y-146566452D02*
X83422619Y-146518833D01*
X83517857Y-146471214D01*
X83660714Y-146471214D01*
X83755952Y-146518833D01*
X83803571Y-146614071D01*
X83803571Y-147137880D01*
X84708333Y-147137880D02*
X84708333Y-146614071D01*
X84660714Y-146518833D01*
X84565476Y-146471214D01*
X84375000Y-146471214D01*
X84279761Y-146518833D01*
X84708333Y-147090261D02*
X84613095Y-147137880D01*
X84375000Y-147137880D01*
X84279761Y-147090261D01*
X84232142Y-146995023D01*
X84232142Y-146899785D01*
X84279761Y-146804547D01*
X84375000Y-146756928D01*
X84613095Y-146756928D01*
X84708333Y-146709309D01*
X85184523Y-147137880D02*
X85184523Y-146137880D01*
X85184523Y-146518833D02*
X85279761Y-146471214D01*
X85470238Y-146471214D01*
X85565476Y-146518833D01*
X85613095Y-146566452D01*
X85660714Y-146661690D01*
X85660714Y-146947404D01*
X85613095Y-147042642D01*
X85565476Y-147090261D01*
X85470238Y-147137880D01*
X85279761Y-147137880D01*
X85184523Y-147090261D01*
X86232142Y-147137880D02*
X86136904Y-147090261D01*
X86089285Y-146995023D01*
X86089285Y-146137880D01*
X86994047Y-147090261D02*
X86898809Y-147137880D01*
X86708333Y-147137880D01*
X86613095Y-147090261D01*
X86565476Y-146995023D01*
X86565476Y-146614071D01*
X86613095Y-146518833D01*
X86708333Y-146471214D01*
X86898809Y-146471214D01*
X86994047Y-146518833D01*
X87041666Y-146614071D01*
X87041666Y-146709309D01*
X86565476Y-146804547D01*
X71160714Y-148406928D02*
X71922619Y-148406928D01*
X71541666Y-148787880D02*
X71541666Y-148025976D01*
X72351190Y-147883119D02*
X72398809Y-147835500D01*
X72494047Y-147787880D01*
X72732142Y-147787880D01*
X72827380Y-147835500D01*
X72875000Y-147883119D01*
X72922619Y-147978357D01*
X72922619Y-148073595D01*
X72875000Y-148216452D01*
X72303571Y-148787880D01*
X72922619Y-148787880D01*
X73779761Y-148121214D02*
X73779761Y-148787880D01*
X73541666Y-147740261D02*
X73303571Y-148454547D01*
X73922619Y-148454547D01*
X74160714Y-147787880D02*
X74494047Y-148787880D01*
X74827380Y-147787880D01*
X76065476Y-148787880D02*
X75970238Y-148740261D01*
X75922619Y-148692642D01*
X75875000Y-148597404D01*
X75875000Y-148311690D01*
X75922619Y-148216452D01*
X75970238Y-148168833D01*
X76065476Y-148121214D01*
X76208333Y-148121214D01*
X76303571Y-148168833D01*
X76351190Y-148216452D01*
X76398809Y-148311690D01*
X76398809Y-148597404D01*
X76351190Y-148692642D01*
X76303571Y-148740261D01*
X76208333Y-148787880D01*
X76065476Y-148787880D01*
X76827380Y-148121214D02*
X76827380Y-148787880D01*
X76827380Y-148216452D02*
X76875000Y-148168833D01*
X76970238Y-148121214D01*
X77113095Y-148121214D01*
X77208333Y-148168833D01*
X77255952Y-148264071D01*
X77255952Y-148787880D01*
X79065476Y-148787880D02*
X78732142Y-148311690D01*
X78494047Y-148787880D02*
X78494047Y-147787880D01*
X78875000Y-147787880D01*
X78970238Y-147835500D01*
X79017857Y-147883119D01*
X79065476Y-147978357D01*
X79065476Y-148121214D01*
X79017857Y-148216452D01*
X78970238Y-148264071D01*
X78875000Y-148311690D01*
X78494047Y-148311690D01*
X79446428Y-148740261D02*
X79589285Y-148787880D01*
X79827380Y-148787880D01*
X79922619Y-148740261D01*
X79970238Y-148692642D01*
X80017857Y-148597404D01*
X80017857Y-148502166D01*
X79970238Y-148406928D01*
X79922619Y-148359309D01*
X79827380Y-148311690D01*
X79636904Y-148264071D01*
X79541666Y-148216452D01*
X79494047Y-148168833D01*
X79446428Y-148073595D01*
X79446428Y-147978357D01*
X79494047Y-147883119D01*
X79541666Y-147835500D01*
X79636904Y-147787880D01*
X79875000Y-147787880D01*
X80017857Y-147835500D01*
X80875000Y-148121214D02*
X80875000Y-148787880D01*
X80636904Y-147740261D02*
X80398809Y-148454547D01*
X81017857Y-148454547D01*
X81541666Y-148216452D02*
X81446428Y-148168833D01*
X81398809Y-148121214D01*
X81351190Y-148025976D01*
X81351190Y-147978357D01*
X81398809Y-147883119D01*
X81446428Y-147835500D01*
X81541666Y-147787880D01*
X81732142Y-147787880D01*
X81827380Y-147835500D01*
X81875000Y-147883119D01*
X81922619Y-147978357D01*
X81922619Y-148025976D01*
X81875000Y-148121214D01*
X81827380Y-148168833D01*
X81732142Y-148216452D01*
X81541666Y-148216452D01*
X81446428Y-148264071D01*
X81398809Y-148311690D01*
X81351190Y-148406928D01*
X81351190Y-148597404D01*
X81398809Y-148692642D01*
X81446428Y-148740261D01*
X81541666Y-148787880D01*
X81732142Y-148787880D01*
X81827380Y-148740261D01*
X81875000Y-148692642D01*
X81922619Y-148597404D01*
X81922619Y-148406928D01*
X81875000Y-148311690D01*
X81827380Y-148264071D01*
X81732142Y-148216452D01*
X82827380Y-147787880D02*
X82351190Y-147787880D01*
X82303571Y-148264071D01*
X82351190Y-148216452D01*
X82446428Y-148168833D01*
X82684523Y-148168833D01*
X82779761Y-148216452D01*
X82827380Y-148264071D01*
X82875000Y-148359309D01*
X82875000Y-148597404D01*
X82827380Y-148692642D01*
X82779761Y-148740261D01*
X82684523Y-148787880D01*
X82446428Y-148787880D01*
X82351190Y-148740261D01*
X82303571Y-148692642D01*
X84065476Y-148121214D02*
X84065476Y-149121214D01*
X84065476Y-148168833D02*
X84160714Y-148121214D01*
X84351190Y-148121214D01*
X84446428Y-148168833D01*
X84494047Y-148216452D01*
X84541666Y-148311690D01*
X84541666Y-148597404D01*
X84494047Y-148692642D01*
X84446428Y-148740261D01*
X84351190Y-148787880D01*
X84160714Y-148787880D01*
X84065476Y-148740261D01*
X84970238Y-148787880D02*
X84970238Y-148121214D01*
X84970238Y-147787880D02*
X84922619Y-147835500D01*
X84970238Y-147883119D01*
X85017857Y-147835500D01*
X84970238Y-147787880D01*
X84970238Y-147883119D01*
X85446428Y-148121214D02*
X85446428Y-148787880D01*
X85446428Y-148216452D02*
X85494047Y-148168833D01*
X85589285Y-148121214D01*
X85732142Y-148121214D01*
X85827380Y-148168833D01*
X85875000Y-148264071D01*
X85875000Y-148787880D01*
X87065476Y-147883119D02*
X87113095Y-147835500D01*
X87208333Y-147787880D01*
X87446428Y-147787880D01*
X87541666Y-147835500D01*
X87589285Y-147883119D01*
X87636904Y-147978357D01*
X87636904Y-148073595D01*
X87589285Y-148216452D01*
X87017857Y-148787880D01*
X87636904Y-148787880D01*
X186723928Y-60698571D02*
X186390595Y-60698571D01*
X186390595Y-61222380D02*
X186390595Y-60222380D01*
X186866785Y-60222380D01*
X187247738Y-61222380D02*
X187247738Y-60555714D01*
X187247738Y-60222380D02*
X187200119Y-60270000D01*
X187247738Y-60317619D01*
X187295357Y-60270000D01*
X187247738Y-60222380D01*
X187247738Y-60317619D01*
X187581071Y-60555714D02*
X187962023Y-60555714D01*
X187723928Y-60222380D02*
X187723928Y-61079523D01*
X187771547Y-61174761D01*
X187866785Y-61222380D01*
X187962023Y-61222380D01*
X189057261Y-60555714D02*
X189057261Y-61412857D01*
X189009642Y-61508095D01*
X188914404Y-61555714D01*
X188866785Y-61555714D01*
X189057261Y-60222380D02*
X189009642Y-60270000D01*
X189057261Y-60317619D01*
X189104880Y-60270000D01*
X189057261Y-60222380D01*
X189057261Y-60317619D01*
X189962023Y-60555714D02*
X189962023Y-61222380D01*
X189533452Y-60555714D02*
X189533452Y-61079523D01*
X189581071Y-61174761D01*
X189676309Y-61222380D01*
X189819166Y-61222380D01*
X189914404Y-61174761D01*
X189962023Y-61127142D01*
X190438214Y-61222380D02*
X190438214Y-60555714D01*
X190438214Y-60650952D02*
X190485833Y-60603333D01*
X190581071Y-60555714D01*
X190723928Y-60555714D01*
X190819166Y-60603333D01*
X190866785Y-60698571D01*
X190866785Y-61222380D01*
X190866785Y-60698571D02*
X190914404Y-60603333D01*
X191009642Y-60555714D01*
X191152500Y-60555714D01*
X191247738Y-60603333D01*
X191295357Y-60698571D01*
X191295357Y-61222380D01*
X191771547Y-60555714D02*
X191771547Y-61555714D01*
X191771547Y-60603333D02*
X191866785Y-60555714D01*
X192057261Y-60555714D01*
X192152500Y-60603333D01*
X192200119Y-60650952D01*
X192247738Y-60746190D01*
X192247738Y-61031904D01*
X192200119Y-61127142D01*
X192152500Y-61174761D01*
X192057261Y-61222380D01*
X191866785Y-61222380D01*
X191771547Y-61174761D01*
X193057261Y-61174761D02*
X192962023Y-61222380D01*
X192771547Y-61222380D01*
X192676309Y-61174761D01*
X192628690Y-61079523D01*
X192628690Y-60698571D01*
X192676309Y-60603333D01*
X192771547Y-60555714D01*
X192962023Y-60555714D01*
X193057261Y-60603333D01*
X193104880Y-60698571D01*
X193104880Y-60793809D01*
X192628690Y-60889047D01*
X193533452Y-61222380D02*
X193533452Y-60555714D01*
X193533452Y-60746190D02*
X193581071Y-60650952D01*
X193628690Y-60603333D01*
X193723928Y-60555714D01*
X193819166Y-60555714D01*
X194771547Y-60555714D02*
X195152500Y-60555714D01*
X194914404Y-60222380D02*
X194914404Y-61079523D01*
X194962023Y-61174761D01*
X195057261Y-61222380D01*
X195152500Y-61222380D01*
X195628690Y-61222380D02*
X195533452Y-61174761D01*
X195485833Y-61127142D01*
X195438214Y-61031904D01*
X195438214Y-60746190D01*
X195485833Y-60650952D01*
X195533452Y-60603333D01*
X195628690Y-60555714D01*
X195771547Y-60555714D01*
X195866785Y-60603333D01*
X195914404Y-60650952D01*
X195962023Y-60746190D01*
X195962023Y-61031904D01*
X195914404Y-61127142D01*
X195866785Y-61174761D01*
X195771547Y-61222380D01*
X195628690Y-61222380D01*
X197581071Y-61222380D02*
X197581071Y-60222380D01*
X197581071Y-61174761D02*
X197485833Y-61222380D01*
X197295357Y-61222380D01*
X197200119Y-61174761D01*
X197152500Y-61127142D01*
X197104880Y-61031904D01*
X197104880Y-60746190D01*
X197152500Y-60650952D01*
X197200119Y-60603333D01*
X197295357Y-60555714D01*
X197485833Y-60555714D01*
X197581071Y-60603333D01*
X198057261Y-61222380D02*
X198057261Y-60555714D01*
X198057261Y-60222380D02*
X198009642Y-60270000D01*
X198057261Y-60317619D01*
X198104880Y-60270000D01*
X198057261Y-60222380D01*
X198057261Y-60317619D01*
X198485833Y-61174761D02*
X198581071Y-61222380D01*
X198771547Y-61222380D01*
X198866785Y-61174761D01*
X198914404Y-61079523D01*
X198914404Y-61031904D01*
X198866785Y-60936666D01*
X198771547Y-60889047D01*
X198628690Y-60889047D01*
X198533452Y-60841428D01*
X198485833Y-60746190D01*
X198485833Y-60698571D01*
X198533452Y-60603333D01*
X198628690Y-60555714D01*
X198771547Y-60555714D01*
X198866785Y-60603333D01*
X199771547Y-61222380D02*
X199771547Y-60698571D01*
X199723928Y-60603333D01*
X199628690Y-60555714D01*
X199438214Y-60555714D01*
X199342976Y-60603333D01*
X199771547Y-61174761D02*
X199676309Y-61222380D01*
X199438214Y-61222380D01*
X199342976Y-61174761D01*
X199295357Y-61079523D01*
X199295357Y-60984285D01*
X199342976Y-60889047D01*
X199438214Y-60841428D01*
X199676309Y-60841428D01*
X199771547Y-60793809D01*
X200247738Y-61222380D02*
X200247738Y-60222380D01*
X200247738Y-60603333D02*
X200342976Y-60555714D01*
X200533452Y-60555714D01*
X200628690Y-60603333D01*
X200676309Y-60650952D01*
X200723928Y-60746190D01*
X200723928Y-61031904D01*
X200676309Y-61127142D01*
X200628690Y-61174761D01*
X200533452Y-61222380D01*
X200342976Y-61222380D01*
X200247738Y-61174761D01*
X201295357Y-61222380D02*
X201200119Y-61174761D01*
X201152500Y-61079523D01*
X201152500Y-60222380D01*
X202057261Y-61174761D02*
X201962023Y-61222380D01*
X201771547Y-61222380D01*
X201676309Y-61174761D01*
X201628690Y-61079523D01*
X201628690Y-60698571D01*
X201676309Y-60603333D01*
X201771547Y-60555714D01*
X201962023Y-60555714D01*
X202057261Y-60603333D01*
X202104880Y-60698571D01*
X202104880Y-60793809D01*
X201628690Y-60889047D01*
X186771547Y-62824761D02*
X186676309Y-62872380D01*
X186485833Y-62872380D01*
X186390595Y-62824761D01*
X186342976Y-62729523D01*
X186342976Y-62348571D01*
X186390595Y-62253333D01*
X186485833Y-62205714D01*
X186676309Y-62205714D01*
X186771547Y-62253333D01*
X186819166Y-62348571D01*
X186819166Y-62443809D01*
X186342976Y-62539047D01*
X187247738Y-62872380D02*
X187247738Y-61872380D01*
X187581071Y-62586666D01*
X187914404Y-61872380D01*
X187914404Y-62872380D01*
X188390595Y-62872380D02*
X188390595Y-61872380D01*
X188723928Y-62586666D01*
X189057261Y-61872380D01*
X189057261Y-62872380D01*
X190104880Y-62777142D02*
X190057261Y-62824761D01*
X189914404Y-62872380D01*
X189819166Y-62872380D01*
X189676309Y-62824761D01*
X189581071Y-62729523D01*
X189533452Y-62634285D01*
X189485833Y-62443809D01*
X189485833Y-62300952D01*
X189533452Y-62110476D01*
X189581071Y-62015238D01*
X189676309Y-61920000D01*
X189819166Y-61872380D01*
X189914404Y-61872380D01*
X190057261Y-61920000D01*
X190104880Y-61967619D01*
X191628690Y-62348571D02*
X191771547Y-62396190D01*
X191819166Y-62443809D01*
X191866785Y-62539047D01*
X191866785Y-62681904D01*
X191819166Y-62777142D01*
X191771547Y-62824761D01*
X191676309Y-62872380D01*
X191295357Y-62872380D01*
X191295357Y-61872380D01*
X191628690Y-61872380D01*
X191723928Y-61920000D01*
X191771547Y-61967619D01*
X191819166Y-62062857D01*
X191819166Y-62158095D01*
X191771547Y-62253333D01*
X191723928Y-62300952D01*
X191628690Y-62348571D01*
X191295357Y-62348571D01*
X192438214Y-62872380D02*
X192342976Y-62824761D01*
X192295357Y-62777142D01*
X192247738Y-62681904D01*
X192247738Y-62396190D01*
X192295357Y-62300952D01*
X192342976Y-62253333D01*
X192438214Y-62205714D01*
X192581071Y-62205714D01*
X192676309Y-62253333D01*
X192723928Y-62300952D01*
X192771547Y-62396190D01*
X192771547Y-62681904D01*
X192723928Y-62777142D01*
X192676309Y-62824761D01*
X192581071Y-62872380D01*
X192438214Y-62872380D01*
X193342976Y-62872380D02*
X193247738Y-62824761D01*
X193200119Y-62777142D01*
X193152500Y-62681904D01*
X193152500Y-62396190D01*
X193200119Y-62300952D01*
X193247738Y-62253333D01*
X193342976Y-62205714D01*
X193485833Y-62205714D01*
X193581071Y-62253333D01*
X193628690Y-62300952D01*
X193676309Y-62396190D01*
X193676309Y-62681904D01*
X193628690Y-62777142D01*
X193581071Y-62824761D01*
X193485833Y-62872380D01*
X193342976Y-62872380D01*
X193962023Y-62205714D02*
X194342976Y-62205714D01*
X194104880Y-61872380D02*
X194104880Y-62729523D01*
X194152500Y-62824761D01*
X194247738Y-62872380D01*
X194342976Y-62872380D01*
D11*
X149087857Y-143278571D02*
X149587857Y-144778571D01*
X150087857Y-143278571D01*
X151230714Y-144778571D02*
X151230714Y-143992857D01*
X151159285Y-143850000D01*
X151016428Y-143778571D01*
X150730714Y-143778571D01*
X150587857Y-143850000D01*
X151230714Y-144707142D02*
X151087857Y-144778571D01*
X150730714Y-144778571D01*
X150587857Y-144707142D01*
X150516428Y-144564285D01*
X150516428Y-144421428D01*
X150587857Y-144278571D01*
X150730714Y-144207142D01*
X151087857Y-144207142D01*
X151230714Y-144135714D01*
X152587857Y-144707142D02*
X152445000Y-144778571D01*
X152159285Y-144778571D01*
X152016428Y-144707142D01*
X151945000Y-144635714D01*
X151873571Y-144492857D01*
X151873571Y-144064285D01*
X151945000Y-143921428D01*
X152016428Y-143850000D01*
X152159285Y-143778571D01*
X152445000Y-143778571D01*
X152587857Y-143850000D01*
X153873571Y-144707142D02*
X153730714Y-144778571D01*
X153445000Y-144778571D01*
X153302142Y-144707142D01*
X153230714Y-144635714D01*
X153159285Y-144492857D01*
X153159285Y-144064285D01*
X153230714Y-143921428D01*
X153302142Y-143850000D01*
X153445000Y-143778571D01*
X153730714Y-143778571D01*
X153873571Y-143850000D01*
X155159285Y-143778571D02*
X155159285Y-144778571D01*
X154516428Y-143778571D02*
X154516428Y-144564285D01*
X154587857Y-144707142D01*
X154730714Y-144778571D01*
X154945000Y-144778571D01*
X155087857Y-144707142D01*
X155159285Y-144635714D01*
X155873571Y-144778571D02*
X155873571Y-143778571D01*
X155873571Y-143921428D02*
X155945000Y-143850000D01*
X156087857Y-143778571D01*
X156302142Y-143778571D01*
X156445000Y-143850000D01*
X156516428Y-143992857D01*
X156516428Y-144778571D01*
X156516428Y-143992857D02*
X156587857Y-143850000D01*
X156730714Y-143778571D01*
X156945000Y-143778571D01*
X157087857Y-143850000D01*
X157159285Y-143992857D01*
X157159285Y-144778571D01*
X159873571Y-144635714D02*
X159802142Y-144707142D01*
X159587857Y-144778571D01*
X159445000Y-144778571D01*
X159230714Y-144707142D01*
X159087857Y-144564285D01*
X159016428Y-144421428D01*
X158945000Y-144135714D01*
X158945000Y-143921428D01*
X159016428Y-143635714D01*
X159087857Y-143492857D01*
X159230714Y-143350000D01*
X159445000Y-143278571D01*
X159587857Y-143278571D01*
X159802142Y-143350000D01*
X159873571Y-143421428D01*
X160730714Y-144778571D02*
X160587857Y-144707142D01*
X160516428Y-144635714D01*
X160445000Y-144492857D01*
X160445000Y-144064285D01*
X160516428Y-143921428D01*
X160587857Y-143850000D01*
X160730714Y-143778571D01*
X160945000Y-143778571D01*
X161087857Y-143850000D01*
X161159285Y-143921428D01*
X161230714Y-144064285D01*
X161230714Y-144492857D01*
X161159285Y-144635714D01*
X161087857Y-144707142D01*
X160945000Y-144778571D01*
X160730714Y-144778571D01*
X161873571Y-143778571D02*
X161873571Y-144778571D01*
X161873571Y-143921428D02*
X161945000Y-143850000D01*
X162087857Y-143778571D01*
X162302142Y-143778571D01*
X162445000Y-143850000D01*
X162516428Y-143992857D01*
X162516428Y-144778571D01*
X163016428Y-143778571D02*
X163587857Y-143778571D01*
X163230714Y-143278571D02*
X163230714Y-144564285D01*
X163302142Y-144707142D01*
X163445000Y-144778571D01*
X163587857Y-144778571D01*
X164087857Y-144778571D02*
X164087857Y-143778571D01*
X164087857Y-144064285D02*
X164159285Y-143921428D01*
X164230714Y-143850000D01*
X164373571Y-143778571D01*
X164516428Y-143778571D01*
X165230714Y-144778571D02*
X165087857Y-144707142D01*
X165016428Y-144635714D01*
X164945000Y-144492857D01*
X164945000Y-144064285D01*
X165016428Y-143921428D01*
X165087857Y-143850000D01*
X165230714Y-143778571D01*
X165445000Y-143778571D01*
X165587857Y-143850000D01*
X165659285Y-143921428D01*
X165730714Y-144064285D01*
X165730714Y-144492857D01*
X165659285Y-144635714D01*
X165587857Y-144707142D01*
X165445000Y-144778571D01*
X165230714Y-144778571D01*
X166587857Y-144778571D02*
X166445000Y-144707142D01*
X166373571Y-144564285D01*
X166373571Y-143278571D01*
X168087857Y-143778571D02*
X168659285Y-143778571D01*
X168302142Y-144778571D02*
X168302142Y-143492857D01*
X168373571Y-143350000D01*
X168516428Y-143278571D01*
X168659285Y-143278571D01*
X169373571Y-144778571D02*
X169230714Y-144707142D01*
X169159285Y-144635714D01*
X169087857Y-144492857D01*
X169087857Y-144064285D01*
X169159285Y-143921428D01*
X169230714Y-143850000D01*
X169373571Y-143778571D01*
X169587857Y-143778571D01*
X169730714Y-143850000D01*
X169802142Y-143921428D01*
X169873571Y-144064285D01*
X169873571Y-144492857D01*
X169802142Y-144635714D01*
X169730714Y-144707142D01*
X169587857Y-144778571D01*
X169373571Y-144778571D01*
X170516428Y-144778571D02*
X170516428Y-143778571D01*
X170516428Y-144064285D02*
X170587857Y-143921428D01*
X170659285Y-143850000D01*
X170802142Y-143778571D01*
X170945000Y-143778571D01*
X172516428Y-144707142D02*
X172730714Y-144778571D01*
X173087857Y-144778571D01*
X173230714Y-144707142D01*
X173302142Y-144635714D01*
X173373571Y-144492857D01*
X173373571Y-144350000D01*
X173302142Y-144207142D01*
X173230714Y-144135714D01*
X173087857Y-144064285D01*
X172802142Y-143992857D01*
X172659285Y-143921428D01*
X172587857Y-143850000D01*
X172516428Y-143707142D01*
X172516428Y-143564285D01*
X172587857Y-143421428D01*
X172659285Y-143350000D01*
X172802142Y-143278571D01*
X173159285Y-143278571D01*
X173373571Y-143350000D01*
X174659285Y-144707142D02*
X174516428Y-144778571D01*
X174230714Y-144778571D01*
X174087857Y-144707142D01*
X174016428Y-144635714D01*
X173945000Y-144492857D01*
X173945000Y-144064285D01*
X174016428Y-143921428D01*
X174087857Y-143850000D01*
X174230714Y-143778571D01*
X174516428Y-143778571D01*
X174659285Y-143850000D01*
X175945000Y-144778571D02*
X175945000Y-143992857D01*
X175873571Y-143850000D01*
X175730714Y-143778571D01*
X175445000Y-143778571D01*
X175302142Y-143850000D01*
X175945000Y-144707142D02*
X175802142Y-144778571D01*
X175445000Y-144778571D01*
X175302142Y-144707142D01*
X175230714Y-144564285D01*
X175230714Y-144421428D01*
X175302142Y-144278571D01*
X175445000Y-144207142D01*
X175802142Y-144207142D01*
X175945000Y-144135714D01*
X176445000Y-143778571D02*
X177016428Y-143778571D01*
X176659285Y-143278571D02*
X176659285Y-144564285D01*
X176730714Y-144707142D01*
X176873571Y-144778571D01*
X177016428Y-144778571D01*
X177302142Y-143778571D02*
X177873571Y-143778571D01*
X177516428Y-143278571D02*
X177516428Y-144564285D01*
X177587857Y-144707142D01*
X177730714Y-144778571D01*
X177873571Y-144778571D01*
X178945000Y-144707142D02*
X178802142Y-144778571D01*
X178516428Y-144778571D01*
X178373571Y-144707142D01*
X178302142Y-144564285D01*
X178302142Y-143992857D01*
X178373571Y-143850000D01*
X178516428Y-143778571D01*
X178802142Y-143778571D01*
X178945000Y-143850000D01*
X179016428Y-143992857D01*
X179016428Y-144135714D01*
X178302142Y-144278571D01*
X179659285Y-144778571D02*
X179659285Y-143778571D01*
X179659285Y-144064285D02*
X179730714Y-143921428D01*
X179802142Y-143850000D01*
X179945000Y-143778571D01*
X180087857Y-143778571D01*
X180587857Y-144778571D02*
X180587857Y-143778571D01*
X180587857Y-143278571D02*
X180516428Y-143350000D01*
X180587857Y-143421428D01*
X180659285Y-143350000D01*
X180587857Y-143278571D01*
X180587857Y-143421428D01*
X181302142Y-143778571D02*
X181302142Y-144778571D01*
X181302142Y-143921428D02*
X181373571Y-143850000D01*
X181516428Y-143778571D01*
X181730714Y-143778571D01*
X181873571Y-143850000D01*
X181945000Y-143992857D01*
X181945000Y-144778571D01*
X183302142Y-143778571D02*
X183302142Y-144992857D01*
X183230714Y-145135714D01*
X183159285Y-145207142D01*
X183016428Y-145278571D01*
X182802142Y-145278571D01*
X182659285Y-145207142D01*
X183302142Y-144707142D02*
X183159285Y-144778571D01*
X182873571Y-144778571D01*
X182730714Y-144707142D01*
X182659285Y-144635714D01*
X182587857Y-144492857D01*
X182587857Y-144064285D01*
X182659285Y-143921428D01*
X182730714Y-143850000D01*
X182873571Y-143778571D01*
X183159285Y-143778571D01*
X183302142Y-143850000D01*
X186016428Y-144635714D02*
X185945000Y-144707142D01*
X185730714Y-144778571D01*
X185587857Y-144778571D01*
X185373571Y-144707142D01*
X185230714Y-144564285D01*
X185159285Y-144421428D01*
X185087857Y-144135714D01*
X185087857Y-143921428D01*
X185159285Y-143635714D01*
X185230714Y-143492857D01*
X185373571Y-143350000D01*
X185587857Y-143278571D01*
X185730714Y-143278571D01*
X185945000Y-143350000D01*
X186016428Y-143421428D01*
X186659285Y-144778571D02*
X186659285Y-143278571D01*
X187302142Y-144778571D02*
X187302142Y-143992857D01*
X187230714Y-143850000D01*
X187087857Y-143778571D01*
X186873571Y-143778571D01*
X186730714Y-143850000D01*
X186659285Y-143921428D01*
X188659285Y-144778571D02*
X188659285Y-143992857D01*
X188587857Y-143850000D01*
X188445000Y-143778571D01*
X188159285Y-143778571D01*
X188016428Y-143850000D01*
X188659285Y-144707142D02*
X188516428Y-144778571D01*
X188159285Y-144778571D01*
X188016428Y-144707142D01*
X187945000Y-144564285D01*
X187945000Y-144421428D01*
X188016428Y-144278571D01*
X188159285Y-144207142D01*
X188516428Y-144207142D01*
X188659285Y-144135714D01*
X189373571Y-144778571D02*
X189373571Y-143778571D01*
X189373571Y-143921428D02*
X189445000Y-143850000D01*
X189587857Y-143778571D01*
X189802142Y-143778571D01*
X189945000Y-143850000D01*
X190016428Y-143992857D01*
X190016428Y-144778571D01*
X190016428Y-143992857D02*
X190087857Y-143850000D01*
X190230714Y-143778571D01*
X190445000Y-143778571D01*
X190587857Y-143850000D01*
X190659285Y-143992857D01*
X190659285Y-144778571D01*
X191373571Y-144778571D02*
X191373571Y-143278571D01*
X191373571Y-143850000D02*
X191516428Y-143778571D01*
X191802142Y-143778571D01*
X191945000Y-143850000D01*
X192016428Y-143921428D01*
X192087857Y-144064285D01*
X192087857Y-144492857D01*
X192016428Y-144635714D01*
X191945000Y-144707142D01*
X191802142Y-144778571D01*
X191516428Y-144778571D01*
X191373571Y-144707142D01*
X193302142Y-144707142D02*
X193159285Y-144778571D01*
X192873571Y-144778571D01*
X192730714Y-144707142D01*
X192659285Y-144564285D01*
X192659285Y-143992857D01*
X192730714Y-143850000D01*
X192873571Y-143778571D01*
X193159285Y-143778571D01*
X193302142Y-143850000D01*
X193373571Y-143992857D01*
X193373571Y-144135714D01*
X192659285Y-144278571D01*
X194016428Y-144778571D02*
X194016428Y-143778571D01*
X194016428Y-144064285D02*
X194087857Y-143921428D01*
X194159285Y-143850000D01*
X194302142Y-143778571D01*
X194445000Y-143778571D01*
X196087857Y-144207142D02*
X197230714Y-144207142D01*
X199945000Y-144778571D02*
X199445000Y-144064285D01*
X199087857Y-144778571D02*
X199087857Y-143278571D01*
X199659285Y-143278571D01*
X199802142Y-143350000D01*
X199873571Y-143421428D01*
X199945000Y-143564285D01*
X199945000Y-143778571D01*
X199873571Y-143921428D01*
X199802142Y-143992857D01*
X199659285Y-144064285D01*
X199087857Y-144064285D01*
X201230714Y-144778571D02*
X201230714Y-143992857D01*
X201159285Y-143850000D01*
X201016428Y-143778571D01*
X200730714Y-143778571D01*
X200587857Y-143850000D01*
X201230714Y-144707142D02*
X201087857Y-144778571D01*
X200730714Y-144778571D01*
X200587857Y-144707142D01*
X200516428Y-144564285D01*
X200516428Y-144421428D01*
X200587857Y-144278571D01*
X200730714Y-144207142D01*
X201087857Y-144207142D01*
X201230714Y-144135714D01*
X201873571Y-144707142D02*
X202016428Y-144778571D01*
X202302142Y-144778571D01*
X202445000Y-144707142D01*
X202516428Y-144564285D01*
X202516428Y-144492857D01*
X202445000Y-144350000D01*
X202302142Y-144278571D01*
X202087857Y-144278571D01*
X201945000Y-144207142D01*
X201873571Y-144064285D01*
X201873571Y-143992857D01*
X201945000Y-143850000D01*
X202087857Y-143778571D01*
X202302142Y-143778571D01*
X202445000Y-143850000D01*
X203159285Y-143778571D02*
X203159285Y-145278571D01*
X203159285Y-143850000D02*
X203302142Y-143778571D01*
X203587857Y-143778571D01*
X203730714Y-143850000D01*
X203802142Y-143921428D01*
X203873571Y-144064285D01*
X203873571Y-144492857D01*
X203802142Y-144635714D01*
X203730714Y-144707142D01*
X203587857Y-144778571D01*
X203302142Y-144778571D01*
X203159285Y-144707142D01*
X204516428Y-144778571D02*
X204516428Y-143278571D01*
X204516428Y-143850000D02*
X204659285Y-143778571D01*
X204945000Y-143778571D01*
X205087857Y-143850000D01*
X205159285Y-143921428D01*
X205230714Y-144064285D01*
X205230714Y-144492857D01*
X205159285Y-144635714D01*
X205087857Y-144707142D01*
X204945000Y-144778571D01*
X204659285Y-144778571D01*
X204516428Y-144707142D01*
X206445000Y-144707142D02*
X206302142Y-144778571D01*
X206016428Y-144778571D01*
X205873571Y-144707142D01*
X205802142Y-144564285D01*
X205802142Y-143992857D01*
X205873571Y-143850000D01*
X206016428Y-143778571D01*
X206302142Y-143778571D01*
X206445000Y-143850000D01*
X206516428Y-143992857D01*
X206516428Y-144135714D01*
X205802142Y-144278571D01*
X207159285Y-144778571D02*
X207159285Y-143778571D01*
X207159285Y-144064285D02*
X207230714Y-143921428D01*
X207302142Y-143850000D01*
X207445000Y-143778571D01*
X207587857Y-143778571D01*
X208087857Y-144778571D02*
X208087857Y-143778571D01*
X208087857Y-144064285D02*
X208159285Y-143921428D01*
X208230714Y-143850000D01*
X208373571Y-143778571D01*
X208516428Y-143778571D01*
X208873571Y-143778571D02*
X209230714Y-144778571D01*
X209587857Y-143778571D02*
X209230714Y-144778571D01*
X209087857Y-145135714D01*
X209016428Y-145207142D01*
X208873571Y-145278571D01*
X211302142Y-144778571D02*
X211302142Y-143278571D01*
X211873571Y-143278571D01*
X212016428Y-143350000D01*
X212087857Y-143421428D01*
X212159285Y-143564285D01*
X212159285Y-143778571D01*
X212087857Y-143921428D01*
X212016428Y-143992857D01*
X211873571Y-144064285D01*
X211302142Y-144064285D01*
X212802142Y-144778571D02*
X212802142Y-143778571D01*
X212802142Y-143278571D02*
X212730714Y-143350000D01*
X212802142Y-143421428D01*
X212873571Y-143350000D01*
X212802142Y-143278571D01*
X212802142Y-143421428D01*
X215516428Y-144635714D02*
X215445000Y-144707142D01*
X215230714Y-144778571D01*
X215087857Y-144778571D01*
X214873571Y-144707142D01*
X214730714Y-144564285D01*
X214659285Y-144421428D01*
X214587857Y-144135714D01*
X214587857Y-143921428D01*
X214659285Y-143635714D01*
X214730714Y-143492857D01*
X214873571Y-143350000D01*
X215087857Y-143278571D01*
X215230714Y-143278571D01*
X215445000Y-143350000D01*
X215516428Y-143421428D01*
X216159285Y-144778571D02*
X216159285Y-143278571D01*
X216659285Y-144350000D01*
X217159285Y-143278571D01*
X217159285Y-144778571D01*
X218516428Y-143778571D02*
X218516428Y-144778571D01*
X218159285Y-143207142D02*
X217802142Y-144278571D01*
X218730714Y-144278571D01*
X149802142Y-146542857D02*
X149302142Y-146542857D01*
X149302142Y-147328571D02*
X149302142Y-145828571D01*
X150016428Y-145828571D01*
X150587857Y-147185714D02*
X150659285Y-147257142D01*
X150587857Y-147328571D01*
X150516428Y-147257142D01*
X150587857Y-147185714D01*
X150587857Y-147328571D01*
X152945000Y-146542857D02*
X152445000Y-146542857D01*
X152445000Y-147328571D02*
X152445000Y-145828571D01*
X153159285Y-145828571D01*
X154302142Y-147257142D02*
X154159285Y-147328571D01*
X153873571Y-147328571D01*
X153730714Y-147257142D01*
X153659285Y-147114285D01*
X153659285Y-146542857D01*
X153730714Y-146400000D01*
X153873571Y-146328571D01*
X154159285Y-146328571D01*
X154302142Y-146400000D01*
X154373571Y-146542857D01*
X154373571Y-146685714D01*
X153659285Y-146828571D01*
X155230714Y-147328571D02*
X155087857Y-147257142D01*
X155016428Y-147114285D01*
X155016428Y-145828571D01*
X156445000Y-147328571D02*
X156445000Y-145828571D01*
X156445000Y-147257142D02*
X156302142Y-147328571D01*
X156016428Y-147328571D01*
X155873571Y-147257142D01*
X155802142Y-147185714D01*
X155730714Y-147042857D01*
X155730714Y-146614285D01*
X155802142Y-146471428D01*
X155873571Y-146400000D01*
X156016428Y-146328571D01*
X156302142Y-146328571D01*
X156445000Y-146400000D01*
X157159285Y-147328571D02*
X157159285Y-145828571D01*
X157159285Y-146400000D02*
X157302142Y-146328571D01*
X157587857Y-146328571D01*
X157730714Y-146400000D01*
X157802142Y-146471428D01*
X157873571Y-146614285D01*
X157873571Y-147042857D01*
X157802142Y-147185714D01*
X157730714Y-147257142D01*
X157587857Y-147328571D01*
X157302142Y-147328571D01*
X157159285Y-147257142D01*
X159159285Y-147328571D02*
X159159285Y-146542857D01*
X159087857Y-146400000D01*
X158945000Y-146328571D01*
X158659285Y-146328571D01*
X158516428Y-146400000D01*
X159159285Y-147257142D02*
X159016428Y-147328571D01*
X158659285Y-147328571D01*
X158516428Y-147257142D01*
X158445000Y-147114285D01*
X158445000Y-146971428D01*
X158516428Y-146828571D01*
X158659285Y-146757142D01*
X159016428Y-146757142D01*
X159159285Y-146685714D01*
X160516428Y-146328571D02*
X160516428Y-147328571D01*
X159873571Y-146328571D02*
X159873571Y-147114285D01*
X159945000Y-147257142D01*
X160087857Y-147328571D01*
X160302142Y-147328571D01*
X160445000Y-147257142D01*
X160516428Y-147185714D01*
X161802142Y-147257142D02*
X161659285Y-147328571D01*
X161373571Y-147328571D01*
X161230714Y-147257142D01*
X161159285Y-147114285D01*
X161159285Y-146542857D01*
X161230714Y-146400000D01*
X161373571Y-146328571D01*
X161659285Y-146328571D01*
X161802142Y-146400000D01*
X161873571Y-146542857D01*
X161873571Y-146685714D01*
X161159285Y-146828571D01*
X162516428Y-147328571D02*
X162516428Y-146328571D01*
X162516428Y-146614285D02*
X162587857Y-146471428D01*
X162659285Y-146400000D01*
X162802142Y-146328571D01*
X162945000Y-146328571D01*
X150159285Y-149878571D02*
X149659285Y-149164285D01*
X149302142Y-149878571D02*
X149302142Y-148378571D01*
X149873571Y-148378571D01*
X150016428Y-148450000D01*
X150087857Y-148521428D01*
X150159285Y-148664285D01*
X150159285Y-148878571D01*
X150087857Y-149021428D01*
X150016428Y-149092857D01*
X149873571Y-149164285D01*
X149302142Y-149164285D01*
X151373571Y-149807142D02*
X151230714Y-149878571D01*
X150945000Y-149878571D01*
X150802142Y-149807142D01*
X150730714Y-149664285D01*
X150730714Y-149092857D01*
X150802142Y-148950000D01*
X150945000Y-148878571D01*
X151230714Y-148878571D01*
X151373571Y-148950000D01*
X151445000Y-149092857D01*
X151445000Y-149235714D01*
X150730714Y-149378571D01*
X151945000Y-148878571D02*
X152302142Y-149878571D01*
X152659285Y-148878571D01*
X155159285Y-149878571D02*
X154302142Y-149878571D01*
X154730714Y-149878571D02*
X154730714Y-148378571D01*
X154587857Y-148592857D01*
X154445000Y-148735714D01*
X154302142Y-148807142D01*
X155802142Y-149735714D02*
X155873571Y-149807142D01*
X155802142Y-149878571D01*
X155730714Y-149807142D01*
X155802142Y-149735714D01*
X155802142Y-149878571D01*
X156802142Y-148378571D02*
X156945000Y-148378571D01*
X157087857Y-148450000D01*
X157159285Y-148521428D01*
X157230714Y-148664285D01*
X157302142Y-148950000D01*
X157302142Y-149307142D01*
X157230714Y-149592857D01*
X157159285Y-149735714D01*
X157087857Y-149807142D01*
X156945000Y-149878571D01*
X156802142Y-149878571D01*
X156659285Y-149807142D01*
X156587857Y-149735714D01*
X156516428Y-149592857D01*
X156445000Y-149307142D01*
X156445000Y-148950000D01*
X156516428Y-148664285D01*
X156587857Y-148521428D01*
X156659285Y-148450000D01*
X156802142Y-148378571D01*
X159016428Y-148521428D02*
X159087857Y-148450000D01*
X159230714Y-148378571D01*
X159587857Y-148378571D01*
X159730714Y-148450000D01*
X159802142Y-148521428D01*
X159873571Y-148664285D01*
X159873571Y-148807142D01*
X159802142Y-149021428D01*
X158945000Y-149878571D01*
X159873571Y-149878571D01*
X160802142Y-148378571D02*
X160945000Y-148378571D01*
X161087857Y-148450000D01*
X161159285Y-148521428D01*
X161230714Y-148664285D01*
X161302142Y-148950000D01*
X161302142Y-149307142D01*
X161230714Y-149592857D01*
X161159285Y-149735714D01*
X161087857Y-149807142D01*
X160945000Y-149878571D01*
X160802142Y-149878571D01*
X160659285Y-149807142D01*
X160587857Y-149735714D01*
X160516428Y-149592857D01*
X160445000Y-149307142D01*
X160445000Y-148950000D01*
X160516428Y-148664285D01*
X160587857Y-148521428D01*
X160659285Y-148450000D01*
X160802142Y-148378571D01*
X161873571Y-148521428D02*
X161945000Y-148450000D01*
X162087857Y-148378571D01*
X162445000Y-148378571D01*
X162587857Y-148450000D01*
X162659285Y-148521428D01*
X162730714Y-148664285D01*
X162730714Y-148807142D01*
X162659285Y-149021428D01*
X161802142Y-149878571D01*
X162730714Y-149878571D01*
X163659285Y-148378571D02*
X163802142Y-148378571D01*
X163945000Y-148450000D01*
X164016428Y-148521428D01*
X164087857Y-148664285D01*
X164159285Y-148950000D01*
X164159285Y-149307142D01*
X164087857Y-149592857D01*
X164016428Y-149735714D01*
X163945000Y-149807142D01*
X163802142Y-149878571D01*
X163659285Y-149878571D01*
X163516428Y-149807142D01*
X163445000Y-149735714D01*
X163373571Y-149592857D01*
X163302142Y-149307142D01*
X163302142Y-148950000D01*
X163373571Y-148664285D01*
X163445000Y-148521428D01*
X163516428Y-148450000D01*
X163659285Y-148378571D01*
X164802142Y-149307142D02*
X165945000Y-149307142D01*
X167445000Y-149878571D02*
X166587857Y-149878571D01*
X167016428Y-149878571D02*
X167016428Y-148378571D01*
X166873571Y-148592857D01*
X166730714Y-148735714D01*
X166587857Y-148807142D01*
X168373571Y-148378571D02*
X168516428Y-148378571D01*
X168659285Y-148450000D01*
X168730714Y-148521428D01*
X168802142Y-148664285D01*
X168873571Y-148950000D01*
X168873571Y-149307142D01*
X168802142Y-149592857D01*
X168730714Y-149735714D01*
X168659285Y-149807142D01*
X168516428Y-149878571D01*
X168373571Y-149878571D01*
X168230714Y-149807142D01*
X168159285Y-149735714D01*
X168087857Y-149592857D01*
X168016428Y-149307142D01*
X168016428Y-148950000D01*
X168087857Y-148664285D01*
X168159285Y-148521428D01*
X168230714Y-148450000D01*
X168373571Y-148378571D01*
X169516428Y-149307142D02*
X170659285Y-149307142D01*
X171302142Y-148521428D02*
X171373571Y-148450000D01*
X171516428Y-148378571D01*
X171873571Y-148378571D01*
X172016428Y-148450000D01*
X172087857Y-148521428D01*
X172159285Y-148664285D01*
X172159285Y-148807142D01*
X172087857Y-149021428D01*
X171230714Y-149878571D01*
X172159285Y-149878571D01*
X172659285Y-148378571D02*
X173587857Y-148378571D01*
X173087857Y-148950000D01*
X173302142Y-148950000D01*
X173445000Y-149021428D01*
X173516428Y-149092857D01*
X173587857Y-149235714D01*
X173587857Y-149592857D01*
X173516428Y-149735714D01*
X173445000Y-149807142D01*
X173302142Y-149878571D01*
X172873571Y-149878571D01*
X172730714Y-149807142D01*
X172659285Y-149735714D01*
D12*
%TO.C,G\u002A\u002A\u002A*%
G36*
X143814489Y-142081695D02*
G01*
X143916586Y-142162478D01*
X143983599Y-142246540D01*
X144044385Y-142356200D01*
X144100612Y-142497998D01*
X144153946Y-142678474D01*
X144206056Y-142904170D01*
X144258610Y-143181627D01*
X144313274Y-143517384D01*
X144371718Y-143917983D01*
X144380766Y-143983000D01*
X144457834Y-144536475D01*
X144526963Y-145025060D01*
X144589338Y-145455861D01*
X144646145Y-145835982D01*
X144698570Y-146172530D01*
X144747801Y-146472611D01*
X144795022Y-146743328D01*
X144841420Y-146991789D01*
X144888181Y-147225098D01*
X144936491Y-147450362D01*
X144987537Y-147674684D01*
X145019818Y-147811143D01*
X145179490Y-148413266D01*
X145353552Y-148946587D01*
X145541766Y-149410554D01*
X145743891Y-149804617D01*
X145959687Y-150128226D01*
X146099749Y-150292719D01*
X146164917Y-150364564D01*
X146204415Y-150424768D01*
X146224667Y-150494745D01*
X146232101Y-150595908D01*
X146233143Y-150737219D01*
X146229740Y-150875330D01*
X146220667Y-150980523D01*
X146207634Y-151036003D01*
X146202302Y-151040572D01*
X146143622Y-151016197D01*
X146048989Y-150950687D01*
X145932495Y-150855462D01*
X145808232Y-150741944D01*
X145705275Y-150637731D01*
X145483115Y-150370193D01*
X145277751Y-150059165D01*
X145087749Y-149700782D01*
X144911673Y-149291180D01*
X144748090Y-148826493D01*
X144595563Y-148302856D01*
X144452659Y-147716406D01*
X144317942Y-147063275D01*
X144258564Y-146740715D01*
X144223299Y-146539916D01*
X144190892Y-146348922D01*
X144159868Y-146157696D01*
X144128754Y-145956202D01*
X144096076Y-145734403D01*
X144060359Y-145482261D01*
X144020130Y-145189740D01*
X143973915Y-144846802D01*
X143920239Y-144443412D01*
X143911476Y-144377242D01*
X143860850Y-143999040D01*
X143817785Y-143687699D01*
X143781354Y-143438006D01*
X143750630Y-143244750D01*
X143724687Y-143102719D01*
X143702595Y-143006700D01*
X143683429Y-142951480D01*
X143666261Y-142931848D01*
X143655135Y-142936286D01*
X143635563Y-142988447D01*
X143609980Y-143109753D01*
X143578817Y-143297064D01*
X143542507Y-143547241D01*
X143501480Y-143857145D01*
X143456169Y-144223635D01*
X143407005Y-144643573D01*
X143354419Y-145113817D01*
X143349120Y-145162286D01*
X143268917Y-145877844D01*
X143191589Y-146525599D01*
X143116213Y-147110218D01*
X143041868Y-147636370D01*
X142967631Y-148108722D01*
X142892579Y-148531944D01*
X142815791Y-148910703D01*
X142736343Y-149249667D01*
X142653315Y-149553506D01*
X142565783Y-149826886D01*
X142472825Y-150074477D01*
X142373519Y-150300945D01*
X142307491Y-150434472D01*
X142128115Y-150727978D01*
X141928445Y-150958701D01*
X141713005Y-151125424D01*
X141486321Y-151226930D01*
X141252917Y-151262000D01*
X141017320Y-151229418D01*
X140784054Y-151127964D01*
X140557643Y-150956423D01*
X140516389Y-150916424D01*
X140405409Y-150794621D01*
X140302602Y-150657934D01*
X140205351Y-150499898D01*
X140111039Y-150314048D01*
X140017052Y-150093918D01*
X139920772Y-149833042D01*
X139819585Y-149524955D01*
X139710874Y-149163190D01*
X139592022Y-148741283D01*
X139502237Y-148409857D01*
X139403672Y-148057439D01*
X139309657Y-147752800D01*
X139222007Y-147500879D01*
X139142540Y-147306614D01*
X139073073Y-147174943D01*
X139027306Y-147119123D01*
X138985825Y-147109976D01*
X138944241Y-147154834D01*
X138901047Y-147257749D01*
X138854740Y-147422774D01*
X138803817Y-147653961D01*
X138776096Y-147795938D01*
X138677249Y-148279527D01*
X138574498Y-148698890D01*
X138464328Y-149062371D01*
X138343222Y-149378313D01*
X138207667Y-149655062D01*
X138054148Y-149900962D01*
X137879149Y-150124356D01*
X137726679Y-150287152D01*
X137436575Y-150542874D01*
X137119266Y-150756384D01*
X136767761Y-150930253D01*
X136375062Y-151067051D01*
X135934178Y-151169351D01*
X135438113Y-151239723D01*
X135048072Y-151271745D01*
X134766858Y-151288975D01*
X134766858Y-150761197D01*
X135172076Y-150736585D01*
X135701016Y-150679071D01*
X136176084Y-150573515D01*
X136598566Y-150419041D01*
X136969747Y-150214769D01*
X137290913Y-149959820D01*
X137563350Y-149653315D01*
X137788344Y-149294377D01*
X137967181Y-148882124D01*
X137992314Y-148809000D01*
X138035599Y-148663283D01*
X138087110Y-148465611D01*
X138142151Y-148235440D01*
X138196024Y-147992227D01*
X138233196Y-147811143D01*
X138279751Y-147585968D01*
X138327622Y-147373278D01*
X138373110Y-147188202D01*
X138412515Y-147045871D01*
X138439545Y-146967236D01*
X138552201Y-146775428D01*
X138696842Y-146641220D01*
X138865148Y-146568535D01*
X139048801Y-146561297D01*
X139204282Y-146606625D01*
X139306877Y-146661334D01*
X139399576Y-146733623D01*
X139485257Y-146829721D01*
X139566799Y-146955861D01*
X139647082Y-147118272D01*
X139728986Y-147323185D01*
X139815388Y-147576832D01*
X139909170Y-147885443D01*
X140013209Y-148255249D01*
X140079477Y-148500572D01*
X140199024Y-148936458D01*
X140307977Y-149307383D01*
X140408823Y-149619767D01*
X140504049Y-149880032D01*
X140596141Y-150094599D01*
X140687586Y-150269889D01*
X140780871Y-150412323D01*
X140855058Y-150503136D01*
X141015129Y-150648077D01*
X141170029Y-150720889D01*
X141321847Y-150721652D01*
X141472671Y-150650446D01*
X141603409Y-150531452D01*
X141745243Y-150343018D01*
X141879436Y-150099246D01*
X142006439Y-149798265D01*
X142126704Y-149438206D01*
X142240683Y-149017199D01*
X142348828Y-148533374D01*
X142451589Y-147984859D01*
X142549420Y-147369786D01*
X142642772Y-146686284D01*
X142732096Y-145932483D01*
X142746905Y-145797286D01*
X142773017Y-145560639D01*
X142799360Y-145329692D01*
X142823910Y-145121639D01*
X142844643Y-144953673D01*
X142857955Y-144853857D01*
X142874893Y-144729521D01*
X142897906Y-144552123D01*
X142924584Y-144340675D01*
X142952515Y-144114189D01*
X142968390Y-143983000D01*
X143022248Y-143561614D01*
X143075103Y-143206950D01*
X143128378Y-142913200D01*
X143183497Y-142674557D01*
X143241883Y-142485210D01*
X143304960Y-142339353D01*
X143374149Y-142231177D01*
X143406689Y-142194231D01*
X143547256Y-142084387D01*
X143683283Y-142046869D01*
X143814489Y-142081695D01*
G37*
X143814489Y-142081695D02*
X143916586Y-142162478D01*
X143983599Y-142246540D01*
X144044385Y-142356200D01*
X144100612Y-142497998D01*
X144153946Y-142678474D01*
X144206056Y-142904170D01*
X144258610Y-143181627D01*
X144313274Y-143517384D01*
X144371718Y-143917983D01*
X144380766Y-143983000D01*
X144457834Y-144536475D01*
X144526963Y-145025060D01*
X144589338Y-145455861D01*
X144646145Y-145835982D01*
X144698570Y-146172530D01*
X144747801Y-146472611D01*
X144795022Y-146743328D01*
X144841420Y-146991789D01*
X144888181Y-147225098D01*
X144936491Y-147450362D01*
X144987537Y-147674684D01*
X145019818Y-147811143D01*
X145179490Y-148413266D01*
X145353552Y-148946587D01*
X145541766Y-149410554D01*
X145743891Y-149804617D01*
X145959687Y-150128226D01*
X146099749Y-150292719D01*
X146164917Y-150364564D01*
X146204415Y-150424768D01*
X146224667Y-150494745D01*
X146232101Y-150595908D01*
X146233143Y-150737219D01*
X146229740Y-150875330D01*
X146220667Y-150980523D01*
X146207634Y-151036003D01*
X146202302Y-151040572D01*
X146143622Y-151016197D01*
X146048989Y-150950687D01*
X145932495Y-150855462D01*
X145808232Y-150741944D01*
X145705275Y-150637731D01*
X145483115Y-150370193D01*
X145277751Y-150059165D01*
X145087749Y-149700782D01*
X144911673Y-149291180D01*
X144748090Y-148826493D01*
X144595563Y-148302856D01*
X144452659Y-147716406D01*
X144317942Y-147063275D01*
X144258564Y-146740715D01*
X144223299Y-146539916D01*
X144190892Y-146348922D01*
X144159868Y-146157696D01*
X144128754Y-145956202D01*
X144096076Y-145734403D01*
X144060359Y-145482261D01*
X144020130Y-145189740D01*
X143973915Y-144846802D01*
X143920239Y-144443412D01*
X143911476Y-144377242D01*
X143860850Y-143999040D01*
X143817785Y-143687699D01*
X143781354Y-143438006D01*
X143750630Y-143244750D01*
X143724687Y-143102719D01*
X143702595Y-143006700D01*
X143683429Y-142951480D01*
X143666261Y-142931848D01*
X143655135Y-142936286D01*
X143635563Y-142988447D01*
X143609980Y-143109753D01*
X143578817Y-143297064D01*
X143542507Y-143547241D01*
X143501480Y-143857145D01*
X143456169Y-144223635D01*
X143407005Y-144643573D01*
X143354419Y-145113817D01*
X143349120Y-145162286D01*
X143268917Y-145877844D01*
X143191589Y-146525599D01*
X143116213Y-147110218D01*
X143041868Y-147636370D01*
X142967631Y-148108722D01*
X142892579Y-148531944D01*
X142815791Y-148910703D01*
X142736343Y-149249667D01*
X142653315Y-149553506D01*
X142565783Y-149826886D01*
X142472825Y-150074477D01*
X142373519Y-150300945D01*
X142307491Y-150434472D01*
X142128115Y-150727978D01*
X141928445Y-150958701D01*
X141713005Y-151125424D01*
X141486321Y-151226930D01*
X141252917Y-151262000D01*
X141017320Y-151229418D01*
X140784054Y-151127964D01*
X140557643Y-150956423D01*
X140516389Y-150916424D01*
X140405409Y-150794621D01*
X140302602Y-150657934D01*
X140205351Y-150499898D01*
X140111039Y-150314048D01*
X140017052Y-150093918D01*
X139920772Y-149833042D01*
X139819585Y-149524955D01*
X139710874Y-149163190D01*
X139592022Y-148741283D01*
X139502237Y-148409857D01*
X139403672Y-148057439D01*
X139309657Y-147752800D01*
X139222007Y-147500879D01*
X139142540Y-147306614D01*
X139073073Y-147174943D01*
X139027306Y-147119123D01*
X138985825Y-147109976D01*
X138944241Y-147154834D01*
X138901047Y-147257749D01*
X138854740Y-147422774D01*
X138803817Y-147653961D01*
X138776096Y-147795938D01*
X138677249Y-148279527D01*
X138574498Y-148698890D01*
X138464328Y-149062371D01*
X138343222Y-149378313D01*
X138207667Y-149655062D01*
X138054148Y-149900962D01*
X137879149Y-150124356D01*
X137726679Y-150287152D01*
X137436575Y-150542874D01*
X137119266Y-150756384D01*
X136767761Y-150930253D01*
X136375062Y-151067051D01*
X135934178Y-151169351D01*
X135438113Y-151239723D01*
X135048072Y-151271745D01*
X134766858Y-151288975D01*
X134766858Y-150761197D01*
X135172076Y-150736585D01*
X135701016Y-150679071D01*
X136176084Y-150573515D01*
X136598566Y-150419041D01*
X136969747Y-150214769D01*
X137290913Y-149959820D01*
X137563350Y-149653315D01*
X137788344Y-149294377D01*
X137967181Y-148882124D01*
X137992314Y-148809000D01*
X138035599Y-148663283D01*
X138087110Y-148465611D01*
X138142151Y-148235440D01*
X138196024Y-147992227D01*
X138233196Y-147811143D01*
X138279751Y-147585968D01*
X138327622Y-147373278D01*
X138373110Y-147188202D01*
X138412515Y-147045871D01*
X138439545Y-146967236D01*
X138552201Y-146775428D01*
X138696842Y-146641220D01*
X138865148Y-146568535D01*
X139048801Y-146561297D01*
X139204282Y-146606625D01*
X139306877Y-146661334D01*
X139399576Y-146733623D01*
X139485257Y-146829721D01*
X139566799Y-146955861D01*
X139647082Y-147118272D01*
X139728986Y-147323185D01*
X139815388Y-147576832D01*
X139909170Y-147885443D01*
X140013209Y-148255249D01*
X140079477Y-148500572D01*
X140199024Y-148936458D01*
X140307977Y-149307383D01*
X140408823Y-149619767D01*
X140504049Y-149880032D01*
X140596141Y-150094599D01*
X140687586Y-150269889D01*
X140780871Y-150412323D01*
X140855058Y-150503136D01*
X141015129Y-150648077D01*
X141170029Y-150720889D01*
X141321847Y-150721652D01*
X141472671Y-150650446D01*
X141603409Y-150531452D01*
X141745243Y-150343018D01*
X141879436Y-150099246D01*
X142006439Y-149798265D01*
X142126704Y-149438206D01*
X142240683Y-149017199D01*
X142348828Y-148533374D01*
X142451589Y-147984859D01*
X142549420Y-147369786D01*
X142642772Y-146686284D01*
X142732096Y-145932483D01*
X142746905Y-145797286D01*
X142773017Y-145560639D01*
X142799360Y-145329692D01*
X142823910Y-145121639D01*
X142844643Y-144953673D01*
X142857955Y-144853857D01*
X142874893Y-144729521D01*
X142897906Y-144552123D01*
X142924584Y-144340675D01*
X142952515Y-144114189D01*
X142968390Y-143983000D01*
X143022248Y-143561614D01*
X143075103Y-143206950D01*
X143128378Y-142913200D01*
X143183497Y-142674557D01*
X143241883Y-142485210D01*
X143304960Y-142339353D01*
X143374149Y-142231177D01*
X143406689Y-142194231D01*
X143547256Y-142084387D01*
X143683283Y-142046869D01*
X143814489Y-142081695D01*
G36*
X137344532Y-148282857D02*
G01*
X135708898Y-148282857D01*
X135718663Y-147475500D01*
X135728429Y-146668143D01*
X137325000Y-146668143D01*
X137344532Y-148282857D01*
G37*
X137344532Y-148282857D02*
X135708898Y-148282857D01*
X135718663Y-147475500D01*
X135728429Y-146668143D01*
X137325000Y-146668143D01*
X137344532Y-148282857D01*
G36*
X140600480Y-147475500D02*
G01*
X140610246Y-148282857D01*
X140389755Y-148282857D01*
X140399520Y-147475500D01*
X140409286Y-146668143D01*
X140590715Y-146668143D01*
X140600480Y-147475500D01*
G37*
X140600480Y-147475500D02*
X140610246Y-148282857D01*
X140389755Y-148282857D01*
X140399520Y-147475500D01*
X140409286Y-146668143D01*
X140590715Y-146668143D01*
X140600480Y-147475500D01*
G36*
X140962643Y-146656662D02*
G01*
X141062429Y-146668143D01*
X141072195Y-147475500D01*
X141081960Y-148282857D01*
X140862857Y-148282857D01*
X140862857Y-146645180D01*
X140962643Y-146656662D01*
G37*
X140962643Y-146656662D02*
X141062429Y-146668143D01*
X141072195Y-147475500D01*
X141081960Y-148282857D01*
X140862857Y-148282857D01*
X140862857Y-146645180D01*
X140962643Y-146656662D01*
G36*
X141516000Y-148282857D02*
G01*
X141334572Y-148282857D01*
X141334572Y-146650000D01*
X141516000Y-146650000D01*
X141516000Y-148282857D01*
G37*
X141516000Y-148282857D02*
X141334572Y-148282857D01*
X141334572Y-146650000D01*
X141516000Y-146650000D01*
X141516000Y-148282857D01*
G36*
X141987715Y-148282857D02*
G01*
X141768612Y-148282857D01*
X141778378Y-147475500D01*
X141788143Y-146668143D01*
X141887929Y-146656662D01*
X141987715Y-146645180D01*
X141987715Y-148282857D01*
G37*
X141987715Y-148282857D02*
X141768612Y-148282857D01*
X141778378Y-147475500D01*
X141788143Y-146668143D01*
X141887929Y-146656662D01*
X141987715Y-146645180D01*
X141987715Y-148282857D01*
G36*
X135630631Y-147475500D02*
G01*
X135619572Y-147647857D01*
X134766858Y-147668303D01*
X134766858Y-147303143D01*
X135641691Y-147303143D01*
X135630631Y-147475500D01*
G37*
X135630631Y-147475500D02*
X135619572Y-147647857D01*
X134766858Y-147668303D01*
X134766858Y-147303143D01*
X135641691Y-147303143D01*
X135630631Y-147475500D01*
G36*
X138015358Y-147304038D02*
G01*
X138134228Y-147307937D01*
X138203572Y-147316660D01*
X138234909Y-147332026D01*
X138239758Y-147355856D01*
X138237297Y-147366643D01*
X138217503Y-147446984D01*
X138195683Y-147548072D01*
X138171948Y-147666000D01*
X137415715Y-147666000D01*
X137415715Y-147303143D01*
X137835446Y-147303143D01*
X138015358Y-147304038D01*
G37*
X138015358Y-147304038D02*
X138134228Y-147307937D01*
X138203572Y-147316660D01*
X138234909Y-147332026D01*
X138239758Y-147355856D01*
X138237297Y-147366643D01*
X138217503Y-147446984D01*
X138195683Y-147548072D01*
X138171948Y-147666000D01*
X137415715Y-147666000D01*
X137415715Y-147303143D01*
X137835446Y-147303143D01*
X138015358Y-147304038D01*
G36*
X139029301Y-147312149D02*
G01*
X139086372Y-147384727D01*
X139120406Y-147446841D01*
X139174006Y-147561567D01*
X139185288Y-147627507D01*
X139149638Y-147657880D01*
X139062444Y-147665906D01*
X139043934Y-147666000D01*
X138894154Y-147666000D01*
X138918260Y-147515247D01*
X138948247Y-147376394D01*
X138984260Y-147309033D01*
X139029301Y-147312149D01*
G37*
X139029301Y-147312149D02*
X139086372Y-147384727D01*
X139120406Y-147446841D01*
X139174006Y-147561567D01*
X139185288Y-147627507D01*
X139149638Y-147657880D01*
X139062444Y-147665906D01*
X139043934Y-147666000D01*
X138894154Y-147666000D01*
X138918260Y-147515247D01*
X138948247Y-147376394D01*
X138984260Y-147309033D01*
X139029301Y-147312149D01*
G36*
X140282286Y-147666000D02*
G01*
X140121142Y-147666000D01*
X140018919Y-147658911D01*
X139950694Y-147641056D01*
X139938811Y-147631720D01*
X139914244Y-147578136D01*
X139878383Y-147485507D01*
X139865708Y-147450292D01*
X139813791Y-147303143D01*
X140282286Y-147303143D01*
X140282286Y-147666000D01*
G37*
X140282286Y-147666000D02*
X140121142Y-147666000D01*
X140018919Y-147658911D01*
X139950694Y-147641056D01*
X139938811Y-147631720D01*
X139914244Y-147578136D01*
X139878383Y-147485507D01*
X139865708Y-147450292D01*
X139813791Y-147303143D01*
X140282286Y-147303143D01*
X140282286Y-147666000D01*
G36*
X140738414Y-147335778D02*
G01*
X140751552Y-147419218D01*
X140754000Y-147484572D01*
X140747473Y-147588066D01*
X140730785Y-147653757D01*
X140717715Y-147666000D01*
X140697016Y-147633366D01*
X140683878Y-147549925D01*
X140681429Y-147484572D01*
X140687956Y-147381077D01*
X140704644Y-147315387D01*
X140717715Y-147303143D01*
X140738414Y-147335778D01*
G37*
X140738414Y-147335778D02*
X140751552Y-147419218D01*
X140754000Y-147484572D01*
X140747473Y-147588066D01*
X140730785Y-147653757D01*
X140717715Y-147666000D01*
X140697016Y-147633366D01*
X140683878Y-147549925D01*
X140681429Y-147484572D01*
X140687956Y-147381077D01*
X140704644Y-147315387D01*
X140717715Y-147303143D01*
X140738414Y-147335778D01*
G36*
X141210128Y-147335778D02*
G01*
X141223266Y-147419218D01*
X141225715Y-147484572D01*
X141219188Y-147588066D01*
X141202500Y-147653757D01*
X141189429Y-147666000D01*
X141168730Y-147633366D01*
X141155592Y-147549925D01*
X141153143Y-147484572D01*
X141159670Y-147381077D01*
X141176358Y-147315387D01*
X141189429Y-147303143D01*
X141210128Y-147335778D01*
G37*
X141210128Y-147335778D02*
X141223266Y-147419218D01*
X141225715Y-147484572D01*
X141219188Y-147588066D01*
X141202500Y-147653757D01*
X141189429Y-147666000D01*
X141168730Y-147633366D01*
X141155592Y-147549925D01*
X141153143Y-147484572D01*
X141159670Y-147381077D01*
X141176358Y-147315387D01*
X141189429Y-147303143D01*
X141210128Y-147335778D01*
G36*
X141681842Y-147335778D02*
G01*
X141694980Y-147419218D01*
X141697429Y-147484572D01*
X141690902Y-147588066D01*
X141674214Y-147653757D01*
X141661143Y-147666000D01*
X141640444Y-147633366D01*
X141627306Y-147549925D01*
X141624857Y-147484572D01*
X141631384Y-147381077D01*
X141648073Y-147315387D01*
X141661143Y-147303143D01*
X141681842Y-147335778D01*
G37*
X141681842Y-147335778D02*
X141694980Y-147419218D01*
X141697429Y-147484572D01*
X141690902Y-147588066D01*
X141674214Y-147653757D01*
X141661143Y-147666000D01*
X141640444Y-147633366D01*
X141627306Y-147549925D01*
X141624857Y-147484572D01*
X141631384Y-147381077D01*
X141648073Y-147315387D01*
X141661143Y-147303143D01*
X141681842Y-147335778D01*
G36*
X142385741Y-147307686D02*
G01*
X142443441Y-147331454D01*
X142460781Y-147389658D01*
X142447439Y-147497507D01*
X142436750Y-147552607D01*
X142416603Y-147623388D01*
X142378620Y-147656259D01*
X142299770Y-147665616D01*
X142255322Y-147666000D01*
X142096572Y-147666000D01*
X142096572Y-147303143D01*
X142278000Y-147303143D01*
X142385741Y-147307686D01*
G37*
X142385741Y-147307686D02*
X142443441Y-147331454D01*
X142460781Y-147389658D01*
X142447439Y-147497507D01*
X142436750Y-147552607D01*
X142416603Y-147623388D01*
X142378620Y-147656259D01*
X142299770Y-147665616D01*
X142255322Y-147666000D01*
X142096572Y-147666000D01*
X142096572Y-147303143D01*
X142278000Y-147303143D01*
X142385741Y-147307686D01*
G36*
X144308092Y-147439215D02*
G01*
X144330924Y-147521646D01*
X144340535Y-147581254D01*
X144327806Y-147621728D01*
X144283619Y-147646758D01*
X144198856Y-147660032D01*
X144064397Y-147665241D01*
X143871124Y-147666073D01*
X143747572Y-147666000D01*
X143148857Y-147666000D01*
X143149353Y-147566215D01*
X143158007Y-147457389D01*
X143171728Y-147384786D01*
X143182739Y-147353283D01*
X143203633Y-147331144D01*
X143245738Y-147316719D01*
X143320380Y-147308356D01*
X143438886Y-147304406D01*
X143612583Y-147303218D01*
X143731955Y-147303143D01*
X144270303Y-147303143D01*
X144308092Y-147439215D01*
G37*
X144308092Y-147439215D02*
X144330924Y-147521646D01*
X144340535Y-147581254D01*
X144327806Y-147621728D01*
X144283619Y-147646758D01*
X144198856Y-147660032D01*
X144064397Y-147665241D01*
X143871124Y-147666073D01*
X143747572Y-147666000D01*
X143148857Y-147666000D01*
X143149353Y-147566215D01*
X143158007Y-147457389D01*
X143171728Y-147384786D01*
X143182739Y-147353283D01*
X143203633Y-147331144D01*
X143245738Y-147316719D01*
X143320380Y-147308356D01*
X143438886Y-147304406D01*
X143612583Y-147303218D01*
X143731955Y-147303143D01*
X144270303Y-147303143D01*
X144308092Y-147439215D01*
G36*
X145616286Y-147303143D02*
G01*
X146233143Y-147303143D01*
X146233143Y-147666000D01*
X145075412Y-147666000D01*
X145037623Y-147529929D01*
X145015007Y-147448498D01*
X145005227Y-147389297D01*
X145017297Y-147348791D01*
X145060234Y-147323447D01*
X145143053Y-147309732D01*
X145274770Y-147304113D01*
X145464399Y-147303057D01*
X145616286Y-147303143D01*
G37*
X145616286Y-147303143D02*
X146233143Y-147303143D01*
X146233143Y-147666000D01*
X145075412Y-147666000D01*
X145037623Y-147529929D01*
X145015007Y-147448498D01*
X145005227Y-147389297D01*
X145017297Y-147348791D01*
X145060234Y-147323447D01*
X145143053Y-147309732D01*
X145274770Y-147304113D01*
X145464399Y-147303057D01*
X145616286Y-147303143D01*
D13*
%TO.C,J7*%
X60370000Y-68250000D02*
X71720000Y-68250000D01*
X76370000Y-68250000D02*
X81720000Y-68250000D01*
X60370000Y-84150000D02*
X71720000Y-84150000D01*
X76370000Y-84150000D02*
X81720000Y-84150000D01*
D14*
X80220000Y-67700000D02*
G75*
G03*
X80220000Y-67700000I-100000J0D01*
G01*
D13*
X81720000Y-84150000D02*
X81720000Y-68250000D01*
X60370000Y-68250000D02*
X60370000Y-84150000D01*
D15*
%TO.C,JP2*%
X195005000Y-64075000D02*
X195005000Y-65405000D01*
X193675000Y-64075000D02*
X195005000Y-64075000D01*
X192405000Y-64075000D02*
X192405000Y-66735000D01*
X192405000Y-66735000D02*
X189805000Y-66735000D01*
X192405000Y-64075000D02*
X189805000Y-64075000D01*
X189805000Y-64075000D02*
X189805000Y-66735000D01*
%TO.C,J4*%
X158810000Y-126234500D02*
X158810000Y-123574500D01*
X156210000Y-126234500D02*
X158810000Y-126234500D01*
X156210000Y-123574500D02*
X158810000Y-123574500D01*
X156210000Y-126234500D02*
X156210000Y-123574500D01*
X154940000Y-126234500D02*
X153610000Y-126234500D01*
X153610000Y-126234500D02*
X153610000Y-124904500D01*
%TO.C,J1*%
X220695000Y-71605000D02*
X221145000Y-71605000D01*
X221635000Y-80135000D02*
X221145000Y-79635000D01*
X221645000Y-82545000D02*
X221645000Y-80145000D01*
X220695000Y-79635000D02*
X221145000Y-79635000D01*
X220695000Y-71605000D02*
X220695000Y-79635000D01*
X216785000Y-70485000D02*
X217885000Y-70485000D01*
X210785000Y-70485000D02*
X215485000Y-70485000D01*
X205475000Y-84455000D02*
X219535000Y-84455000D01*
X205475000Y-70485000D02*
X209085000Y-70485000D01*
X205475000Y-84455000D02*
X205475000Y-82895000D01*
X205475000Y-70995000D02*
X205475000Y-70485000D01*
X205475000Y-80845000D02*
X205475000Y-81395000D01*
%TO.C,U3*%
X173590000Y-110480000D02*
X173590000Y-93980000D01*
X122090000Y-113980000D02*
X170090000Y-113980000D01*
X118590000Y-77480000D02*
X118590000Y-110480000D01*
X170090000Y-73980000D02*
X122090000Y-73980000D01*
X173590000Y-93980000D02*
X173590000Y-77480000D01*
D13*
X137290000Y-78420000D02*
X137290000Y-75540000D01*
X137290000Y-75540000D02*
X159890000Y-75540000D01*
X159890000Y-75540000D02*
X159890000Y-78420000D01*
X159890000Y-78420000D02*
X137290000Y-78420000D01*
X159890000Y-112420000D02*
X137290000Y-112420000D01*
X159890000Y-109540000D02*
X159890000Y-112420000D01*
X137290000Y-112420000D02*
X137290000Y-109540000D01*
X137290000Y-109540000D02*
X159890000Y-109540000D01*
D10*
X137590000Y-113480000D02*
X136590000Y-113480000D01*
X136590000Y-113480000D02*
X136590000Y-112480000D01*
X122090000Y-113980000D02*
G75*
G02*
X118590000Y-110480000I0J3500000D01*
G01*
X173590000Y-110480000D02*
G75*
G02*
X170090000Y-113980000I-3500000J0D01*
G01*
X170090000Y-73980000D02*
G75*
G02*
X173590000Y-77480000I0J-3500000D01*
G01*
X118590000Y-77480000D02*
G75*
G02*
X122090000Y-73980000I3500000J0D01*
G01*
D15*
%TO.C,R8*%
X85837500Y-134239724D02*
X85837500Y-133730276D01*
X86882500Y-134239724D02*
X86882500Y-133730276D01*
%TO.C,U8*%
X84590000Y-71117000D02*
X85590000Y-71117000D01*
X84590000Y-73917000D02*
X85890000Y-73917000D01*
%TO.C,U7*%
X84590000Y-78483000D02*
X85590000Y-78483000D01*
X84590000Y-81283000D02*
X85890000Y-81283000D01*
%TO.C,U5*%
X100965000Y-127475000D02*
X97105000Y-127475000D01*
X97105000Y-127475000D02*
X97105000Y-128980000D01*
X100965000Y-127475000D02*
X104825000Y-127475000D01*
X104825000Y-127475000D02*
X104825000Y-128980000D01*
X100965000Y-140495000D02*
X97105000Y-140495000D01*
X97105000Y-140495000D02*
X97105000Y-138990000D01*
X100965000Y-140495000D02*
X104825000Y-140495000D01*
X104825000Y-140495000D02*
X104825000Y-138990000D01*
X104825000Y-138990000D02*
X106640000Y-138990000D01*
%TO.C,R9*%
X85837500Y-130429724D02*
X85837500Y-129920276D01*
X86882500Y-130429724D02*
X86882500Y-129920276D01*
%TO.C,R7*%
X85837500Y-138049724D02*
X85837500Y-137540276D01*
X86882500Y-138049724D02*
X86882500Y-137540276D01*
%TO.C,R4*%
X73279724Y-90692500D02*
X72770276Y-90692500D01*
X73279724Y-89647500D02*
X72770276Y-89647500D01*
%TO.C,R3*%
X72770276Y-87742500D02*
X73279724Y-87742500D01*
X72770276Y-88787500D02*
X73279724Y-88787500D01*
%TO.C,JP1*%
X78045000Y-145475000D02*
X80705000Y-145475000D01*
X78045000Y-142875000D02*
X78045000Y-145475000D01*
X80705000Y-142875000D02*
X80705000Y-145475000D01*
X78045000Y-142875000D02*
X80705000Y-142875000D01*
X78045000Y-141605000D02*
X78045000Y-140275000D01*
X78045000Y-140275000D02*
X79375000Y-140275000D01*
%TO.C,J6*%
X74700000Y-140900000D02*
X74700000Y-134200000D01*
X74700000Y-128600000D02*
X74700000Y-121900000D01*
X65500000Y-121900000D02*
X65500000Y-124500000D01*
X65500000Y-140900000D02*
X65500000Y-138300000D01*
X65500000Y-121900000D02*
X74700000Y-121900000D01*
X74700000Y-140900000D02*
X65500000Y-140900000D01*
X63600000Y-138300000D02*
X65500000Y-138300000D01*
X65500000Y-124500000D02*
X63600000Y-124500000D01*
%TO.C,J5*%
X232330000Y-143220000D02*
X232330000Y-91730000D01*
X222220000Y-144490000D02*
X222220000Y-91730000D01*
X231060000Y-144490000D02*
X222220000Y-144490000D01*
X232330000Y-91730000D02*
X222220000Y-91730000D01*
X232330000Y-143220000D02*
X231060000Y-144490000D01*
%TO.C,C11*%
X91950000Y-137876233D02*
X91950000Y-138168767D01*
X90930000Y-137876233D02*
X90930000Y-138168767D01*
%TO.C,C10*%
X93855000Y-137876233D02*
X93855000Y-138168767D01*
X92835000Y-137876233D02*
X92835000Y-138168767D01*
%TO.C,C9*%
X92835000Y-130093767D02*
X92835000Y-129801233D01*
X93855000Y-130093767D02*
X93855000Y-129801233D01*
%TO.C,C7*%
X90930000Y-130093767D02*
X90930000Y-129801233D01*
X91950000Y-130093767D02*
X91950000Y-129801233D01*
%TO.C,C6*%
X111000000Y-137876233D02*
X111000000Y-138168767D01*
X109980000Y-137876233D02*
X109980000Y-138168767D01*
%TO.C,C5*%
X109095000Y-137876233D02*
X109095000Y-138168767D01*
X108075000Y-137876233D02*
X108075000Y-138168767D01*
%TO.C,C4*%
X109980000Y-130093767D02*
X109980000Y-129801233D01*
X111000000Y-130093767D02*
X111000000Y-129801233D01*
%TO.C,C3*%
X108075000Y-130093767D02*
X108075000Y-129801233D01*
X109095000Y-130093767D02*
X109095000Y-129801233D01*
%TO.C,C1*%
X85236267Y-76710000D02*
X84943733Y-76710000D01*
X85236267Y-75690000D02*
X84943733Y-75690000D01*
%TO.C,U4*%
X215776000Y-57920000D02*
X215776000Y-58920000D01*
X212976000Y-57920000D02*
X212976000Y-59220000D01*
%TO.C,R13*%
X188072500Y-75819724D02*
X188072500Y-75310276D01*
X189117500Y-75819724D02*
X189117500Y-75310276D01*
%TO.C,U2*%
X83180000Y-98965000D02*
X85080000Y-98965000D01*
X84580000Y-96645000D02*
X83180000Y-96645000D01*
%TO.C,U6*%
X193940000Y-73955000D02*
X192140000Y-73955000D01*
X192140000Y-77175000D02*
X194590000Y-77175000D01*
%TO.C,R6*%
X208167500Y-63522776D02*
X208167500Y-64032224D01*
X207122500Y-63522776D02*
X207122500Y-64032224D01*
%TO.C,R5*%
X211557776Y-62342500D02*
X212067224Y-62342500D01*
X211557776Y-63387500D02*
X212067224Y-63387500D01*
%TO.C,J3*%
X218000000Y-56515000D02*
X218000000Y-56895000D01*
X222050000Y-56515000D02*
X222310000Y-56515000D01*
X218000000Y-56515000D02*
X219770000Y-56515000D01*
X218000000Y-64135000D02*
X218000000Y-63755000D01*
X219770000Y-64135000D02*
X218000000Y-64135000D01*
X222310000Y-64135000D02*
X222050000Y-64135000D01*
%TO.C,U1*%
X126079000Y-66670000D02*
X126079000Y-68570000D01*
X128399000Y-68070000D02*
X128399000Y-66670000D01*
%TO.C,SW1*%
X72605000Y-102655000D02*
X77105000Y-102655000D01*
X71355000Y-98655000D02*
X71355000Y-100155000D01*
X77105000Y-96155000D02*
X72605000Y-96155000D01*
X78355000Y-100155000D02*
X78355000Y-98655000D01*
%TO.C,R1*%
X128411500Y-62252776D02*
X128411500Y-62762224D01*
X127366500Y-62252776D02*
X127366500Y-62762224D01*
%TO.C,R2*%
X117841500Y-62762224D02*
X117841500Y-62252776D01*
X118886500Y-62762224D02*
X118886500Y-62252776D01*
%TO.C,D2*%
X117128000Y-59345000D02*
X117284000Y-59345000D01*
X119444000Y-59345000D02*
X119600000Y-59345000D01*
X119443837Y-56743870D02*
G75*
G02*
X119444000Y-58825961I-1079837J-1041130D01*
G01*
X117284163Y-56743870D02*
G75*
G03*
X117284000Y-58825961I1079837J-1041130D01*
G01*
X119442608Y-56112665D02*
G75*
G02*
X119599516Y-59345000I-1078608J-1672335D01*
G01*
X117285392Y-56112665D02*
G75*
G03*
X117128484Y-59345000I1078608J-1672335D01*
G01*
%TO.C,D1*%
X126653000Y-59345000D02*
X126809000Y-59345000D01*
X128969000Y-59345000D02*
X129125000Y-59345000D01*
X128968837Y-56743870D02*
G75*
G02*
X128969000Y-58825961I-1079837J-1041130D01*
G01*
X126809163Y-56743870D02*
G75*
G03*
X126809000Y-58825961I1079837J-1041130D01*
G01*
X128967608Y-56112665D02*
G75*
G02*
X129124516Y-59345000I-1078608J-1672335D01*
G01*
X126810392Y-56112665D02*
G75*
G03*
X126653484Y-59345000I1078608J-1672335D01*
G01*
%TO.C,C12*%
X196975000Y-75736267D02*
X196975000Y-75393733D01*
X197995000Y-75736267D02*
X197995000Y-75393733D01*
%TO.C,J7*%
D10*
X82307380Y-71508333D02*
X83021666Y-71508333D01*
X83164523Y-71555952D01*
X83259761Y-71651190D01*
X83307380Y-71794047D01*
X83307380Y-71889285D01*
X82307380Y-71127380D02*
X82307380Y-70460714D01*
X83307380Y-70889285D01*
%TO.C,JP2*%
X195457380Y-66238333D02*
X196171666Y-66238333D01*
X196314523Y-66285952D01*
X196409761Y-66381190D01*
X196457380Y-66524047D01*
X196457380Y-66619285D01*
X196457380Y-65762142D02*
X195457380Y-65762142D01*
X195457380Y-65381190D01*
X195505000Y-65285952D01*
X195552619Y-65238333D01*
X195647857Y-65190714D01*
X195790714Y-65190714D01*
X195885952Y-65238333D01*
X195933571Y-65285952D01*
X195981190Y-65381190D01*
X195981190Y-65762142D01*
X195552619Y-64809761D02*
X195505000Y-64762142D01*
X195457380Y-64666904D01*
X195457380Y-64428809D01*
X195505000Y-64333571D01*
X195552619Y-64285952D01*
X195647857Y-64238333D01*
X195743095Y-64238333D01*
X195885952Y-64285952D01*
X196457380Y-64857380D01*
X196457380Y-64238333D01*
%TO.C,J4*%
X152062380Y-125237833D02*
X152776666Y-125237833D01*
X152919523Y-125285452D01*
X153014761Y-125380690D01*
X153062380Y-125523547D01*
X153062380Y-125618785D01*
X152395714Y-124333071D02*
X153062380Y-124333071D01*
X152014761Y-124571166D02*
X152729047Y-124809261D01*
X152729047Y-124190214D01*
%TO.C,J1*%
X203287380Y-77378333D02*
X204001666Y-77378333D01*
X204144523Y-77425952D01*
X204239761Y-77521190D01*
X204287380Y-77664047D01*
X204287380Y-77759285D01*
X204287380Y-76378333D02*
X204287380Y-76949761D01*
X204287380Y-76664047D02*
X203287380Y-76664047D01*
X203430238Y-76759285D01*
X203525476Y-76854523D01*
X203573095Y-76949761D01*
%TO.C,U3*%
X147828095Y-114202380D02*
X147828095Y-115011904D01*
X147875714Y-115107142D01*
X147923333Y-115154761D01*
X148018571Y-115202380D01*
X148209047Y-115202380D01*
X148304285Y-115154761D01*
X148351904Y-115107142D01*
X148399523Y-115011904D01*
X148399523Y-114202380D01*
X148780476Y-114202380D02*
X149399523Y-114202380D01*
X149066190Y-114583333D01*
X149209047Y-114583333D01*
X149304285Y-114630952D01*
X149351904Y-114678571D01*
X149399523Y-114773809D01*
X149399523Y-115011904D01*
X149351904Y-115107142D01*
X149304285Y-115154761D01*
X149209047Y-115202380D01*
X148923333Y-115202380D01*
X148828095Y-115154761D01*
X148780476Y-115107142D01*
%TO.C,R8*%
X85382380Y-134151666D02*
X84906190Y-134485000D01*
X85382380Y-134723095D02*
X84382380Y-134723095D01*
X84382380Y-134342142D01*
X84430000Y-134246904D01*
X84477619Y-134199285D01*
X84572857Y-134151666D01*
X84715714Y-134151666D01*
X84810952Y-134199285D01*
X84858571Y-134246904D01*
X84906190Y-134342142D01*
X84906190Y-134723095D01*
X84810952Y-133580238D02*
X84763333Y-133675476D01*
X84715714Y-133723095D01*
X84620476Y-133770714D01*
X84572857Y-133770714D01*
X84477619Y-133723095D01*
X84430000Y-133675476D01*
X84382380Y-133580238D01*
X84382380Y-133389761D01*
X84430000Y-133294523D01*
X84477619Y-133246904D01*
X84572857Y-133199285D01*
X84620476Y-133199285D01*
X84715714Y-133246904D01*
X84763333Y-133294523D01*
X84810952Y-133389761D01*
X84810952Y-133580238D01*
X84858571Y-133675476D01*
X84906190Y-133723095D01*
X85001428Y-133770714D01*
X85191904Y-133770714D01*
X85287142Y-133723095D01*
X85334761Y-133675476D01*
X85382380Y-133580238D01*
X85382380Y-133389761D01*
X85334761Y-133294523D01*
X85287142Y-133246904D01*
X85191904Y-133199285D01*
X85001428Y-133199285D01*
X84906190Y-133246904D01*
X84858571Y-133294523D01*
X84810952Y-133389761D01*
%TO.C,U8*%
X86702380Y-73278904D02*
X87511904Y-73278904D01*
X87607142Y-73231285D01*
X87654761Y-73183666D01*
X87702380Y-73088428D01*
X87702380Y-72897952D01*
X87654761Y-72802714D01*
X87607142Y-72755095D01*
X87511904Y-72707476D01*
X86702380Y-72707476D01*
X87130952Y-72088428D02*
X87083333Y-72183666D01*
X87035714Y-72231285D01*
X86940476Y-72278904D01*
X86892857Y-72278904D01*
X86797619Y-72231285D01*
X86750000Y-72183666D01*
X86702380Y-72088428D01*
X86702380Y-71897952D01*
X86750000Y-71802714D01*
X86797619Y-71755095D01*
X86892857Y-71707476D01*
X86940476Y-71707476D01*
X87035714Y-71755095D01*
X87083333Y-71802714D01*
X87130952Y-71897952D01*
X87130952Y-72088428D01*
X87178571Y-72183666D01*
X87226190Y-72231285D01*
X87321428Y-72278904D01*
X87511904Y-72278904D01*
X87607142Y-72231285D01*
X87654761Y-72183666D01*
X87702380Y-72088428D01*
X87702380Y-71897952D01*
X87654761Y-71802714D01*
X87607142Y-71755095D01*
X87511904Y-71707476D01*
X87321428Y-71707476D01*
X87226190Y-71755095D01*
X87178571Y-71802714D01*
X87130952Y-71897952D01*
%TO.C,U7*%
X86702380Y-80644904D02*
X87511904Y-80644904D01*
X87607142Y-80597285D01*
X87654761Y-80549666D01*
X87702380Y-80454428D01*
X87702380Y-80263952D01*
X87654761Y-80168714D01*
X87607142Y-80121095D01*
X87511904Y-80073476D01*
X86702380Y-80073476D01*
X86702380Y-79692523D02*
X86702380Y-79025857D01*
X87702380Y-79454428D01*
%TO.C,U5*%
X100203095Y-140787380D02*
X100203095Y-141596904D01*
X100250714Y-141692142D01*
X100298333Y-141739761D01*
X100393571Y-141787380D01*
X100584047Y-141787380D01*
X100679285Y-141739761D01*
X100726904Y-141692142D01*
X100774523Y-141596904D01*
X100774523Y-140787380D01*
X101726904Y-140787380D02*
X101250714Y-140787380D01*
X101203095Y-141263571D01*
X101250714Y-141215952D01*
X101345952Y-141168333D01*
X101584047Y-141168333D01*
X101679285Y-141215952D01*
X101726904Y-141263571D01*
X101774523Y-141358809D01*
X101774523Y-141596904D01*
X101726904Y-141692142D01*
X101679285Y-141739761D01*
X101584047Y-141787380D01*
X101345952Y-141787380D01*
X101250714Y-141739761D01*
X101203095Y-141692142D01*
%TO.C,R9*%
X85382380Y-130341666D02*
X84906190Y-130675000D01*
X85382380Y-130913095D02*
X84382380Y-130913095D01*
X84382380Y-130532142D01*
X84430000Y-130436904D01*
X84477619Y-130389285D01*
X84572857Y-130341666D01*
X84715714Y-130341666D01*
X84810952Y-130389285D01*
X84858571Y-130436904D01*
X84906190Y-130532142D01*
X84906190Y-130913095D01*
X85382380Y-129865476D02*
X85382380Y-129675000D01*
X85334761Y-129579761D01*
X85287142Y-129532142D01*
X85144285Y-129436904D01*
X84953809Y-129389285D01*
X84572857Y-129389285D01*
X84477619Y-129436904D01*
X84430000Y-129484523D01*
X84382380Y-129579761D01*
X84382380Y-129770238D01*
X84430000Y-129865476D01*
X84477619Y-129913095D01*
X84572857Y-129960714D01*
X84810952Y-129960714D01*
X84906190Y-129913095D01*
X84953809Y-129865476D01*
X85001428Y-129770238D01*
X85001428Y-129579761D01*
X84953809Y-129484523D01*
X84906190Y-129436904D01*
X84810952Y-129389285D01*
%TO.C,R7*%
X85382380Y-137961666D02*
X84906190Y-138295000D01*
X85382380Y-138533095D02*
X84382380Y-138533095D01*
X84382380Y-138152142D01*
X84430000Y-138056904D01*
X84477619Y-138009285D01*
X84572857Y-137961666D01*
X84715714Y-137961666D01*
X84810952Y-138009285D01*
X84858571Y-138056904D01*
X84906190Y-138152142D01*
X84906190Y-138533095D01*
X84382380Y-137628333D02*
X84382380Y-136961666D01*
X85382380Y-137390238D01*
%TO.C,R4*%
X72858333Y-92052380D02*
X72525000Y-91576190D01*
X72286904Y-92052380D02*
X72286904Y-91052380D01*
X72667857Y-91052380D01*
X72763095Y-91100000D01*
X72810714Y-91147619D01*
X72858333Y-91242857D01*
X72858333Y-91385714D01*
X72810714Y-91480952D01*
X72763095Y-91528571D01*
X72667857Y-91576190D01*
X72286904Y-91576190D01*
X73715476Y-91385714D02*
X73715476Y-92052380D01*
X73477380Y-91004761D02*
X73239285Y-91719047D01*
X73858333Y-91719047D01*
%TO.C,R3*%
X72858333Y-87287380D02*
X72525000Y-86811190D01*
X72286904Y-87287380D02*
X72286904Y-86287380D01*
X72667857Y-86287380D01*
X72763095Y-86335000D01*
X72810714Y-86382619D01*
X72858333Y-86477857D01*
X72858333Y-86620714D01*
X72810714Y-86715952D01*
X72763095Y-86763571D01*
X72667857Y-86811190D01*
X72286904Y-86811190D01*
X73191666Y-86287380D02*
X73810714Y-86287380D01*
X73477380Y-86668333D01*
X73620238Y-86668333D01*
X73715476Y-86715952D01*
X73763095Y-86763571D01*
X73810714Y-86858809D01*
X73810714Y-87096904D01*
X73763095Y-87192142D01*
X73715476Y-87239761D01*
X73620238Y-87287380D01*
X73334523Y-87287380D01*
X73239285Y-87239761D01*
X73191666Y-87192142D01*
%TO.C,JP1*%
X78541666Y-138727380D02*
X78541666Y-139441666D01*
X78494047Y-139584523D01*
X78398809Y-139679761D01*
X78255952Y-139727380D01*
X78160714Y-139727380D01*
X79017857Y-139727380D02*
X79017857Y-138727380D01*
X79398809Y-138727380D01*
X79494047Y-138775000D01*
X79541666Y-138822619D01*
X79589285Y-138917857D01*
X79589285Y-139060714D01*
X79541666Y-139155952D01*
X79494047Y-139203571D01*
X79398809Y-139251190D01*
X79017857Y-139251190D01*
X80541666Y-139727380D02*
X79970238Y-139727380D01*
X80255952Y-139727380D02*
X80255952Y-138727380D01*
X80160714Y-138870238D01*
X80065476Y-138965476D01*
X79970238Y-139013095D01*
%TO.C,J6*%
X75969880Y-131733333D02*
X76684166Y-131733333D01*
X76827023Y-131780952D01*
X76922261Y-131876190D01*
X76969880Y-132019047D01*
X76969880Y-132114285D01*
X75969880Y-130828571D02*
X75969880Y-131019047D01*
X76017500Y-131114285D01*
X76065119Y-131161904D01*
X76207976Y-131257142D01*
X76398452Y-131304761D01*
X76779404Y-131304761D01*
X76874642Y-131257142D01*
X76922261Y-131209523D01*
X76969880Y-131114285D01*
X76969880Y-130923809D01*
X76922261Y-130828571D01*
X76874642Y-130780952D01*
X76779404Y-130733333D01*
X76541309Y-130733333D01*
X76446071Y-130780952D01*
X76398452Y-130828571D01*
X76350833Y-130923809D01*
X76350833Y-131114285D01*
X76398452Y-131209523D01*
X76446071Y-131257142D01*
X76541309Y-131304761D01*
%TO.C,J5*%
X220832380Y-118443333D02*
X221546666Y-118443333D01*
X221689523Y-118490952D01*
X221784761Y-118586190D01*
X221832380Y-118729047D01*
X221832380Y-118824285D01*
X220832380Y-117490952D02*
X220832380Y-117967142D01*
X221308571Y-118014761D01*
X221260952Y-117967142D01*
X221213333Y-117871904D01*
X221213333Y-117633809D01*
X221260952Y-117538571D01*
X221308571Y-117490952D01*
X221403809Y-117443333D01*
X221641904Y-117443333D01*
X221737142Y-117490952D01*
X221784761Y-117538571D01*
X221832380Y-117633809D01*
X221832380Y-117871904D01*
X221784761Y-117967142D01*
X221737142Y-118014761D01*
%TO.C,C11*%
X91797142Y-141612857D02*
X91844761Y-141660476D01*
X91892380Y-141803333D01*
X91892380Y-141898571D01*
X91844761Y-142041428D01*
X91749523Y-142136666D01*
X91654285Y-142184285D01*
X91463809Y-142231904D01*
X91320952Y-142231904D01*
X91130476Y-142184285D01*
X91035238Y-142136666D01*
X90940000Y-142041428D01*
X90892380Y-141898571D01*
X90892380Y-141803333D01*
X90940000Y-141660476D01*
X90987619Y-141612857D01*
X91892380Y-140660476D02*
X91892380Y-141231904D01*
X91892380Y-140946190D02*
X90892380Y-140946190D01*
X91035238Y-141041428D01*
X91130476Y-141136666D01*
X91178095Y-141231904D01*
X91892380Y-139708095D02*
X91892380Y-140279523D01*
X91892380Y-139993809D02*
X90892380Y-139993809D01*
X91035238Y-140089047D01*
X91130476Y-140184285D01*
X91178095Y-140279523D01*
%TO.C,C10*%
X93702142Y-141612857D02*
X93749761Y-141660476D01*
X93797380Y-141803333D01*
X93797380Y-141898571D01*
X93749761Y-142041428D01*
X93654523Y-142136666D01*
X93559285Y-142184285D01*
X93368809Y-142231904D01*
X93225952Y-142231904D01*
X93035476Y-142184285D01*
X92940238Y-142136666D01*
X92845000Y-142041428D01*
X92797380Y-141898571D01*
X92797380Y-141803333D01*
X92845000Y-141660476D01*
X92892619Y-141612857D01*
X93797380Y-140660476D02*
X93797380Y-141231904D01*
X93797380Y-140946190D02*
X92797380Y-140946190D01*
X92940238Y-141041428D01*
X93035476Y-141136666D01*
X93083095Y-141231904D01*
X92797380Y-140041428D02*
X92797380Y-139946190D01*
X92845000Y-139850952D01*
X92892619Y-139803333D01*
X92987857Y-139755714D01*
X93178333Y-139708095D01*
X93416428Y-139708095D01*
X93606904Y-139755714D01*
X93702142Y-139803333D01*
X93749761Y-139850952D01*
X93797380Y-139946190D01*
X93797380Y-140041428D01*
X93749761Y-140136666D01*
X93702142Y-140184285D01*
X93606904Y-140231904D01*
X93416428Y-140279523D01*
X93178333Y-140279523D01*
X92987857Y-140231904D01*
X92892619Y-140184285D01*
X92845000Y-140136666D01*
X92797380Y-140041428D01*
%TO.C,C9*%
X93702142Y-127166666D02*
X93749761Y-127214285D01*
X93797380Y-127357142D01*
X93797380Y-127452380D01*
X93749761Y-127595238D01*
X93654523Y-127690476D01*
X93559285Y-127738095D01*
X93368809Y-127785714D01*
X93225952Y-127785714D01*
X93035476Y-127738095D01*
X92940238Y-127690476D01*
X92845000Y-127595238D01*
X92797380Y-127452380D01*
X92797380Y-127357142D01*
X92845000Y-127214285D01*
X92892619Y-127166666D01*
X93797380Y-126690476D02*
X93797380Y-126500000D01*
X93749761Y-126404761D01*
X93702142Y-126357142D01*
X93559285Y-126261904D01*
X93368809Y-126214285D01*
X92987857Y-126214285D01*
X92892619Y-126261904D01*
X92845000Y-126309523D01*
X92797380Y-126404761D01*
X92797380Y-126595238D01*
X92845000Y-126690476D01*
X92892619Y-126738095D01*
X92987857Y-126785714D01*
X93225952Y-126785714D01*
X93321190Y-126738095D01*
X93368809Y-126690476D01*
X93416428Y-126595238D01*
X93416428Y-126404761D01*
X93368809Y-126309523D01*
X93321190Y-126261904D01*
X93225952Y-126214285D01*
%TO.C,C7*%
X91797142Y-127166666D02*
X91844761Y-127214285D01*
X91892380Y-127357142D01*
X91892380Y-127452380D01*
X91844761Y-127595238D01*
X91749523Y-127690476D01*
X91654285Y-127738095D01*
X91463809Y-127785714D01*
X91320952Y-127785714D01*
X91130476Y-127738095D01*
X91035238Y-127690476D01*
X90940000Y-127595238D01*
X90892380Y-127452380D01*
X90892380Y-127357142D01*
X90940000Y-127214285D01*
X90987619Y-127166666D01*
X90892380Y-126833333D02*
X90892380Y-126166666D01*
X91892380Y-126595238D01*
%TO.C,C6*%
X110847142Y-141136666D02*
X110894761Y-141184285D01*
X110942380Y-141327142D01*
X110942380Y-141422380D01*
X110894761Y-141565238D01*
X110799523Y-141660476D01*
X110704285Y-141708095D01*
X110513809Y-141755714D01*
X110370952Y-141755714D01*
X110180476Y-141708095D01*
X110085238Y-141660476D01*
X109990000Y-141565238D01*
X109942380Y-141422380D01*
X109942380Y-141327142D01*
X109990000Y-141184285D01*
X110037619Y-141136666D01*
X109942380Y-140279523D02*
X109942380Y-140470000D01*
X109990000Y-140565238D01*
X110037619Y-140612857D01*
X110180476Y-140708095D01*
X110370952Y-140755714D01*
X110751904Y-140755714D01*
X110847142Y-140708095D01*
X110894761Y-140660476D01*
X110942380Y-140565238D01*
X110942380Y-140374761D01*
X110894761Y-140279523D01*
X110847142Y-140231904D01*
X110751904Y-140184285D01*
X110513809Y-140184285D01*
X110418571Y-140231904D01*
X110370952Y-140279523D01*
X110323333Y-140374761D01*
X110323333Y-140565238D01*
X110370952Y-140660476D01*
X110418571Y-140708095D01*
X110513809Y-140755714D01*
%TO.C,C5*%
X108942142Y-141136666D02*
X108989761Y-141184285D01*
X109037380Y-141327142D01*
X109037380Y-141422380D01*
X108989761Y-141565238D01*
X108894523Y-141660476D01*
X108799285Y-141708095D01*
X108608809Y-141755714D01*
X108465952Y-141755714D01*
X108275476Y-141708095D01*
X108180238Y-141660476D01*
X108085000Y-141565238D01*
X108037380Y-141422380D01*
X108037380Y-141327142D01*
X108085000Y-141184285D01*
X108132619Y-141136666D01*
X108037380Y-140231904D02*
X108037380Y-140708095D01*
X108513571Y-140755714D01*
X108465952Y-140708095D01*
X108418333Y-140612857D01*
X108418333Y-140374761D01*
X108465952Y-140279523D01*
X108513571Y-140231904D01*
X108608809Y-140184285D01*
X108846904Y-140184285D01*
X108942142Y-140231904D01*
X108989761Y-140279523D01*
X109037380Y-140374761D01*
X109037380Y-140612857D01*
X108989761Y-140708095D01*
X108942142Y-140755714D01*
%TO.C,C4*%
X110847142Y-127166666D02*
X110894761Y-127214285D01*
X110942380Y-127357142D01*
X110942380Y-127452380D01*
X110894761Y-127595238D01*
X110799523Y-127690476D01*
X110704285Y-127738095D01*
X110513809Y-127785714D01*
X110370952Y-127785714D01*
X110180476Y-127738095D01*
X110085238Y-127690476D01*
X109990000Y-127595238D01*
X109942380Y-127452380D01*
X109942380Y-127357142D01*
X109990000Y-127214285D01*
X110037619Y-127166666D01*
X110275714Y-126309523D02*
X110942380Y-126309523D01*
X109894761Y-126547619D02*
X110609047Y-126785714D01*
X110609047Y-126166666D01*
%TO.C,C3*%
X108942142Y-127166666D02*
X108989761Y-127214285D01*
X109037380Y-127357142D01*
X109037380Y-127452380D01*
X108989761Y-127595238D01*
X108894523Y-127690476D01*
X108799285Y-127738095D01*
X108608809Y-127785714D01*
X108465952Y-127785714D01*
X108275476Y-127738095D01*
X108180238Y-127690476D01*
X108085000Y-127595238D01*
X108037380Y-127452380D01*
X108037380Y-127357142D01*
X108085000Y-127214285D01*
X108132619Y-127166666D01*
X108037380Y-126833333D02*
X108037380Y-126214285D01*
X108418333Y-126547619D01*
X108418333Y-126404761D01*
X108465952Y-126309523D01*
X108513571Y-126261904D01*
X108608809Y-126214285D01*
X108846904Y-126214285D01*
X108942142Y-126261904D01*
X108989761Y-126309523D01*
X109037380Y-126404761D01*
X109037380Y-126690476D01*
X108989761Y-126785714D01*
X108942142Y-126833333D01*
%TO.C,C1*%
X88098333Y-76557142D02*
X88050714Y-76604761D01*
X87907857Y-76652380D01*
X87812619Y-76652380D01*
X87669761Y-76604761D01*
X87574523Y-76509523D01*
X87526904Y-76414285D01*
X87479285Y-76223809D01*
X87479285Y-76080952D01*
X87526904Y-75890476D01*
X87574523Y-75795238D01*
X87669761Y-75700000D01*
X87812619Y-75652380D01*
X87907857Y-75652380D01*
X88050714Y-75700000D01*
X88098333Y-75747619D01*
X89050714Y-76652380D02*
X88479285Y-76652380D01*
X88765000Y-76652380D02*
X88765000Y-75652380D01*
X88669761Y-75795238D01*
X88574523Y-75890476D01*
X88479285Y-75938095D01*
%TO.C,U4*%
X211328380Y-59163614D02*
X212137904Y-59163614D01*
X212233142Y-59115995D01*
X212280761Y-59068376D01*
X212328380Y-58973138D01*
X212328380Y-58782662D01*
X212280761Y-58687424D01*
X212233142Y-58639805D01*
X212137904Y-58592186D01*
X211328380Y-58592186D01*
X211661714Y-57687424D02*
X212328380Y-57687424D01*
X211280761Y-57925519D02*
X211995047Y-58163614D01*
X211995047Y-57544567D01*
%TO.C,R13*%
X187617380Y-76207857D02*
X187141190Y-76541190D01*
X187617380Y-76779285D02*
X186617380Y-76779285D01*
X186617380Y-76398333D01*
X186665000Y-76303095D01*
X186712619Y-76255476D01*
X186807857Y-76207857D01*
X186950714Y-76207857D01*
X187045952Y-76255476D01*
X187093571Y-76303095D01*
X187141190Y-76398333D01*
X187141190Y-76779285D01*
X187617380Y-75255476D02*
X187617380Y-75826904D01*
X187617380Y-75541190D02*
X186617380Y-75541190D01*
X186760238Y-75636428D01*
X186855476Y-75731666D01*
X186903095Y-75826904D01*
X186617380Y-74922142D02*
X186617380Y-74303095D01*
X186998333Y-74636428D01*
X186998333Y-74493571D01*
X187045952Y-74398333D01*
X187093571Y-74350714D01*
X187188809Y-74303095D01*
X187426904Y-74303095D01*
X187522142Y-74350714D01*
X187569761Y-74398333D01*
X187617380Y-74493571D01*
X187617380Y-74779285D01*
X187569761Y-74874523D01*
X187522142Y-74922142D01*
%TO.C,U2*%
X83118095Y-99257380D02*
X83118095Y-100066904D01*
X83165714Y-100162142D01*
X83213333Y-100209761D01*
X83308571Y-100257380D01*
X83499047Y-100257380D01*
X83594285Y-100209761D01*
X83641904Y-100162142D01*
X83689523Y-100066904D01*
X83689523Y-99257380D01*
X84118095Y-99352619D02*
X84165714Y-99305000D01*
X84260952Y-99257380D01*
X84499047Y-99257380D01*
X84594285Y-99305000D01*
X84641904Y-99352619D01*
X84689523Y-99447857D01*
X84689523Y-99543095D01*
X84641904Y-99685952D01*
X84070476Y-100257380D01*
X84689523Y-100257380D01*
%TO.C,U6*%
X192278095Y-77917380D02*
X192278095Y-78726904D01*
X192325714Y-78822142D01*
X192373333Y-78869761D01*
X192468571Y-78917380D01*
X192659047Y-78917380D01*
X192754285Y-78869761D01*
X192801904Y-78822142D01*
X192849523Y-78726904D01*
X192849523Y-77917380D01*
X193754285Y-77917380D02*
X193563809Y-77917380D01*
X193468571Y-77965000D01*
X193420952Y-78012619D01*
X193325714Y-78155476D01*
X193278095Y-78345952D01*
X193278095Y-78726904D01*
X193325714Y-78822142D01*
X193373333Y-78869761D01*
X193468571Y-78917380D01*
X193659047Y-78917380D01*
X193754285Y-78869761D01*
X193801904Y-78822142D01*
X193849523Y-78726904D01*
X193849523Y-78488809D01*
X193801904Y-78393571D01*
X193754285Y-78345952D01*
X193659047Y-78298333D01*
X193468571Y-78298333D01*
X193373333Y-78345952D01*
X193325714Y-78393571D01*
X193278095Y-78488809D01*
%TO.C,R6*%
X209527380Y-63944166D02*
X209051190Y-64277500D01*
X209527380Y-64515595D02*
X208527380Y-64515595D01*
X208527380Y-64134642D01*
X208575000Y-64039404D01*
X208622619Y-63991785D01*
X208717857Y-63944166D01*
X208860714Y-63944166D01*
X208955952Y-63991785D01*
X209003571Y-64039404D01*
X209051190Y-64134642D01*
X209051190Y-64515595D01*
X208527380Y-63087023D02*
X208527380Y-63277500D01*
X208575000Y-63372738D01*
X208622619Y-63420357D01*
X208765476Y-63515595D01*
X208955952Y-63563214D01*
X209336904Y-63563214D01*
X209432142Y-63515595D01*
X209479761Y-63467976D01*
X209527380Y-63372738D01*
X209527380Y-63182261D01*
X209479761Y-63087023D01*
X209432142Y-63039404D01*
X209336904Y-62991785D01*
X209098809Y-62991785D01*
X209003571Y-63039404D01*
X208955952Y-63087023D01*
X208908333Y-63182261D01*
X208908333Y-63372738D01*
X208955952Y-63467976D01*
X209003571Y-63515595D01*
X209098809Y-63563214D01*
%TO.C,R5*%
X211645833Y-61887380D02*
X211312500Y-61411190D01*
X211074404Y-61887380D02*
X211074404Y-60887380D01*
X211455357Y-60887380D01*
X211550595Y-60935000D01*
X211598214Y-60982619D01*
X211645833Y-61077857D01*
X211645833Y-61220714D01*
X211598214Y-61315952D01*
X211550595Y-61363571D01*
X211455357Y-61411190D01*
X211074404Y-61411190D01*
X212550595Y-60887380D02*
X212074404Y-60887380D01*
X212026785Y-61363571D01*
X212074404Y-61315952D01*
X212169642Y-61268333D01*
X212407738Y-61268333D01*
X212502976Y-61315952D01*
X212550595Y-61363571D01*
X212598214Y-61458809D01*
X212598214Y-61696904D01*
X212550595Y-61792142D01*
X212502976Y-61839761D01*
X212407738Y-61887380D01*
X212169642Y-61887380D01*
X212074404Y-61839761D01*
X212026785Y-61792142D01*
%TO.C,J3*%
X215862380Y-60658333D02*
X216576666Y-60658333D01*
X216719523Y-60705952D01*
X216814761Y-60801190D01*
X216862380Y-60944047D01*
X216862380Y-61039285D01*
X215862380Y-60277380D02*
X215862380Y-59658333D01*
X216243333Y-59991666D01*
X216243333Y-59848809D01*
X216290952Y-59753571D01*
X216338571Y-59705952D01*
X216433809Y-59658333D01*
X216671904Y-59658333D01*
X216767142Y-59705952D01*
X216814761Y-59753571D01*
X216862380Y-59848809D01*
X216862380Y-60134523D01*
X216814761Y-60229761D01*
X216767142Y-60277380D01*
%TO.C,U1*%
X124691380Y-68131904D02*
X125500904Y-68131904D01*
X125596142Y-68084285D01*
X125643761Y-68036666D01*
X125691380Y-67941428D01*
X125691380Y-67750952D01*
X125643761Y-67655714D01*
X125596142Y-67608095D01*
X125500904Y-67560476D01*
X124691380Y-67560476D01*
X125691380Y-66560476D02*
X125691380Y-67131904D01*
X125691380Y-66846190D02*
X124691380Y-66846190D01*
X124834238Y-66941428D01*
X124929476Y-67036666D01*
X124977095Y-67131904D01*
%TO.C,SW1*%
X73521666Y-95559761D02*
X73664523Y-95607380D01*
X73902619Y-95607380D01*
X73997857Y-95559761D01*
X74045476Y-95512142D01*
X74093095Y-95416904D01*
X74093095Y-95321666D01*
X74045476Y-95226428D01*
X73997857Y-95178809D01*
X73902619Y-95131190D01*
X73712142Y-95083571D01*
X73616904Y-95035952D01*
X73569285Y-94988333D01*
X73521666Y-94893095D01*
X73521666Y-94797857D01*
X73569285Y-94702619D01*
X73616904Y-94655000D01*
X73712142Y-94607380D01*
X73950238Y-94607380D01*
X74093095Y-94655000D01*
X74426428Y-94607380D02*
X74664523Y-95607380D01*
X74855000Y-94893095D01*
X75045476Y-95607380D01*
X75283571Y-94607380D01*
X76188333Y-95607380D02*
X75616904Y-95607380D01*
X75902619Y-95607380D02*
X75902619Y-94607380D01*
X75807380Y-94750238D01*
X75712142Y-94845476D01*
X75616904Y-94893095D01*
%TO.C,R1*%
X129771380Y-62674166D02*
X129295190Y-63007500D01*
X129771380Y-63245595D02*
X128771380Y-63245595D01*
X128771380Y-62864642D01*
X128819000Y-62769404D01*
X128866619Y-62721785D01*
X128961857Y-62674166D01*
X129104714Y-62674166D01*
X129199952Y-62721785D01*
X129247571Y-62769404D01*
X129295190Y-62864642D01*
X129295190Y-63245595D01*
X129771380Y-61721785D02*
X129771380Y-62293214D01*
X129771380Y-62007500D02*
X128771380Y-62007500D01*
X128914238Y-62102738D01*
X129009476Y-62197976D01*
X129057095Y-62293214D01*
%TO.C,R2*%
X117386380Y-62674166D02*
X116910190Y-63007500D01*
X117386380Y-63245595D02*
X116386380Y-63245595D01*
X116386380Y-62864642D01*
X116434000Y-62769404D01*
X116481619Y-62721785D01*
X116576857Y-62674166D01*
X116719714Y-62674166D01*
X116814952Y-62721785D01*
X116862571Y-62769404D01*
X116910190Y-62864642D01*
X116910190Y-63245595D01*
X116481619Y-62293214D02*
X116434000Y-62245595D01*
X116386380Y-62150357D01*
X116386380Y-61912261D01*
X116434000Y-61817023D01*
X116481619Y-61769404D01*
X116576857Y-61721785D01*
X116672095Y-61721785D01*
X116814952Y-61769404D01*
X117386380Y-62340833D01*
X117386380Y-61721785D01*
%TO.C,D2*%
X115856380Y-58523095D02*
X114856380Y-58523095D01*
X114856380Y-58285000D01*
X114904000Y-58142142D01*
X114999238Y-58046904D01*
X115094476Y-57999285D01*
X115284952Y-57951666D01*
X115427809Y-57951666D01*
X115618285Y-57999285D01*
X115713523Y-58046904D01*
X115808761Y-58142142D01*
X115856380Y-58285000D01*
X115856380Y-58523095D01*
X114951619Y-57570714D02*
X114904000Y-57523095D01*
X114856380Y-57427857D01*
X114856380Y-57189761D01*
X114904000Y-57094523D01*
X114951619Y-57046904D01*
X115046857Y-56999285D01*
X115142095Y-56999285D01*
X115284952Y-57046904D01*
X115856380Y-57618333D01*
X115856380Y-56999285D01*
%TO.C,D1*%
X125381380Y-58523095D02*
X124381380Y-58523095D01*
X124381380Y-58285000D01*
X124429000Y-58142142D01*
X124524238Y-58046904D01*
X124619476Y-57999285D01*
X124809952Y-57951666D01*
X124952809Y-57951666D01*
X125143285Y-57999285D01*
X125238523Y-58046904D01*
X125333761Y-58142142D01*
X125381380Y-58285000D01*
X125381380Y-58523095D01*
X125381380Y-56999285D02*
X125381380Y-57570714D01*
X125381380Y-57285000D02*
X124381380Y-57285000D01*
X124524238Y-57380238D01*
X124619476Y-57475476D01*
X124667095Y-57570714D01*
%TO.C,C12*%
X196412142Y-76207857D02*
X196459761Y-76255476D01*
X196507380Y-76398333D01*
X196507380Y-76493571D01*
X196459761Y-76636428D01*
X196364523Y-76731666D01*
X196269285Y-76779285D01*
X196078809Y-76826904D01*
X195935952Y-76826904D01*
X195745476Y-76779285D01*
X195650238Y-76731666D01*
X195555000Y-76636428D01*
X195507380Y-76493571D01*
X195507380Y-76398333D01*
X195555000Y-76255476D01*
X195602619Y-76207857D01*
X196507380Y-75255476D02*
X196507380Y-75826904D01*
X196507380Y-75541190D02*
X195507380Y-75541190D01*
X195650238Y-75636428D01*
X195745476Y-75731666D01*
X195793095Y-75826904D01*
X195602619Y-74874523D02*
X195555000Y-74826904D01*
X195507380Y-74731666D01*
X195507380Y-74493571D01*
X195555000Y-74398333D01*
X195602619Y-74350714D01*
X195697857Y-74303095D01*
X195793095Y-74303095D01*
X195935952Y-74350714D01*
X196507380Y-74922142D01*
X196507380Y-74303095D01*
%TD*%
M02*
