M48
; DRILL file {KiCad 5.1.9+dfsg1-1~bpo10+1} date Fri Jun  4 12:04:05 2021
; FORMAT={-:-/ absolute / metric / decimal}
; #@! TF.CreationDate,2021-06-04T12:04:05+02:00
; #@! TF.GenerationSoftware,Kicad,Pcbnew,5.1.9+dfsg1-1~bpo10+1
; #@! TF.FileFunction,Plated,1,4,PTH
FMAT,2
METRIC
T1C0.200
T2C0.300
T3C0.900
T4C1.000
T5C1.100
T6C1.120
T7C1.200
T8C1.300
T9C1.700
%
G90
G05
T1
X75.438Y-88.265
X75.438Y-90.17
X81.153Y-98.679
X86.233Y-71.374
X86.233Y-72.136
X86.233Y-72.898
X86.233Y-73.66
X86.233Y-78.74
X86.233Y-79.502
X86.233Y-80.264
X86.233Y-81.026
X86.868Y-98.044
X93.345Y-132.715
X93.345Y-135.255
X94.615Y-128.524
X94.615Y-129.54
X94.615Y-138.43
X94.615Y-139.446
X95.504Y-128.524
X95.758Y-139.446
X106.172Y-128.524
X106.172Y-139.446
X107.315Y-128.524
X107.315Y-129.54
X107.315Y-133.985
X107.315Y-138.43
X107.315Y-139.446
X107.442Y-135.89
X111.633Y-130.81
X111.633Y-137.16
X118.364Y-64.77
X130.29Y-69.48
X138.29Y-79.53
X139.04Y-79.53
X139.04Y-107.73
X139.04Y-114.18
X139.74Y-79.53
X139.74Y-107.73
X139.74Y-114.18
X140.24Y-108.38
X140.24Y-113.53
X140.94Y-108.38
X140.94Y-113.53
X141.44Y-114.18
X142.14Y-114.18
X142.79Y-111.38
X148.39Y-110.58
X148.89Y-113.53
X149.59Y-113.53
X149.59Y-129.53
X149.99Y-111.38
X150.79Y-110.58
X150.79Y-113.53
X151.39Y-111.38
X151.99Y-110.63
X152.39Y-113.53
X153.59Y-111.38
X154.94Y-114.3
X155.448Y-110.617
X156.79Y-108.38
X157.59Y-111.38
X158.39Y-113.58
X166.84Y-108.43
X175.29Y-112.43
X175.29Y-119.38
X175.94Y-112.43
X185.674Y-74.93
X185.89Y-109.38
X185.89Y-110.08
X185.89Y-110.78
X185.89Y-112.08
X185.89Y-112.78
X185.89Y-113.48
X187.59Y-78.48
X187.59Y-79.28
X187.59Y-80.28
X188.595Y-77.597
X189.5Y-102.7
X189.5Y-103.4
X189.5Y-104.1
X192.95Y-100.05
X192.95Y-100.75
X192.95Y-101.45
X204.089Y-72.39
X204.089Y-73.406
X204.089Y-75.438
X206.375Y-62.865
X215.54Y-60.08
X215.54Y-60.78
X216.408Y-62.738
X226.06Y-93.345
X226.06Y-98.425
X226.06Y-103.505
X226.06Y-108.585
X226.06Y-113.665
X226.06Y-118.745
X226.06Y-121.92
X226.06Y-128.27
X226.06Y-134.62
X226.06Y-138.43
X226.06Y-142.875
T2
X88.9Y-131.445
X88.9Y-136.525
X226.06Y-125.73
X226.06Y-131.445
X226.06Y-140.97
T3
X74.95Y-70.485
X74.95Y-81.915
X118.364Y-56.515
X118.364Y-59.055
X127.889Y-56.515
X127.889Y-59.055
T4
X73.68Y-73.025
X73.68Y-79.375
X77.47Y-71.755
X77.47Y-74.295
X77.47Y-76.835
X77.47Y-79.375
X77.47Y-81.915
X79.375Y-141.605
X79.375Y-144.145
X80.01Y-70.485
X80.01Y-73.025
X80.01Y-75.565
X80.01Y-78.105
X80.01Y-80.645
X154.94Y-124.904
X157.48Y-124.904
X191.135Y-65.405
X193.675Y-65.405
T5
X71.605Y-97.155
X71.605Y-101.655
X78.105Y-97.155
X78.105Y-101.655
T6
X67.06Y-69.56
X67.06Y-72.1
X67.06Y-80.3
X67.06Y-82.84
T7
X70.732Y-129.632
X70.732Y-133.168
X72.5Y-131.4
X74.268Y-129.632
X74.268Y-133.168
T8
X68.5Y-131.4
T9
X74.17Y-68.35
X74.17Y-84.05
T0
M30
